<svg xmlns="http://www.w3.org/2000/svg" enable-background="new 0 0 1364 960" viewBox="0 0 1364 960"><circle cx="546.497" cy="566.987" r="12.767" fill="#BDD3FF" transform="rotate(-80.781 546.507 566.979)"/><path fill="#BDD3FF" d="M552.01,531.012c0-4.006,3.247-7.253,7.253-7.253s7.253,3.248,7.253,7.253c0,4.006-3.248,7.253-7.253,7.253
	S552.01,535.018,552.01,531.012z"/><path fill="#BDD3FF" d="M552.01,333.246c0-4.006,3.247-7.253,7.253-7.253s7.253,3.248,7.253,7.253c0,4.006-3.248,7.254-7.253,7.254
	S552.01,337.252,552.01,333.246z"/><path fill="#BDD3FF" d="M845.25,769.966c0.087-6.098,6.528-10.61,12.612-10.471c6.084,0.138,11.579,3.725,16.097,7.834
	c7.308,6.646,12.54,14.25,17.656,22.436c-1.219-9.08-2.108-18.203-2.709-27.322c-0.397-6.031-0.66-12.076-0.794-18.126
	c-13.712-0.288-27.32-4.76-38.506-12.701c-4.24-3.011-8.469-7.206-8.381-12.404c0.102-6.074,6.543-10.586,12.617-10.464
	c6.074,0.122,11.549,3.681,16.049,7.762c7.554,6.853,12.873,14.741,18.147,23.236c-0.2-18.649,0.912-37.322,3.637-55.758
	c-13.273-2.543-25.772-9.053-35.413-18.528c-3.709-3.644-7.221-8.457-6.31-13.576c1.064-5.98,8.14-9.414,14.117-8.329
	c5.977,1.083,10.82,5.464,14.615,10.208c6.15,7.685,10.091,15.992,13.829,24.854c3.179-19.388,8.251-39.207,18.362-56.12
	c0.21-0.352,0.437-0.695,0.65-1.045c-12.946-4.373-24.55-12.672-32.832-23.546c-3.151-4.137-5.939-9.402-4.307-14.338
	c1.908-5.768,9.401-8.156,15.162-6.23c5.761,1.925,9.928,6.953,13.007,12.189c5.426,9.226,8.162,18.807,10.772,29.025
	c12.212-19.218,28.021-36.267,39.553-55.874c-13.215-4.311-25.077-12.7-33.502-23.761c-3.151-4.136-5.94-9.401-4.307-14.338
	c1.907-5.767,9.4-8.155,15.161-6.229c5.761,1.925,9.929,6.953,13.008,12.189c5.572,9.474,8.307,19.322,10.981,29.851
	c2.795-4.951,5.306-10.071,7.4-15.442c4.24-10.875,6.11-22.552,6.022-34.32c-14.21-0.576-28.21-5.658-39.453-14.372
	c-4.109-3.185-8.16-7.555-7.854-12.746c0.357-6.064,6.983-10.302,13.045-9.925c6.063,0.377,11.385,4.162,15.708,8.428
	c7.93,7.824,13.143,16.767,18.514,26.399c-0.537-18.987-6.121-38.087-15.124-54.319c-12.733-2.089-24.867-7.797-34.546-16.337
	c-3.899-3.441-7.663-8.059-7.028-13.219c0.742-6.03,7.625-9.837,13.651-9.075c6.026,0.763,11.097,4.878,15.14,9.412
	c6.45,7.231,10.796,15.178,14.943,23.675c0.295,0.192,0.564,0.459,0.782,0.83c7.972,13.643,13.096,28.871,15.48,44.473
	c0.525,3.441,0.928,6.917,1.2,10.407c3.822-11.957,10.934-22.859,20.404-31.105c3.921-3.415,8.994-6.541,14.026-5.236
	c5.88,1.526,8.753,8.847,7.208,14.721c-1.544,5.875-6.29,10.362-11.313,13.778c-9.371,6.369-19.333,9.759-30.028,13.222
	c0.248,7.343-0.187,14.702-1.665,21.89c-2.237,10.885-6.471,20.886-11.783,30.363c8.976-9.331,20.609-16.1,33.182-19.208
	c5.048-1.248,10.987-1.716,14.87,1.743c4.534,4.041,3.749,11.866-0.306,16.389c-4.055,4.522-10.325,6.348-16.354,7.095
	c-11.553,1.428-22.227-0.227-33.665-2.09c-9.214,15.375-21.025,29.462-31.389,43.853c-3.262,4.53-6.372,9.118-9.219,13.85
	c9.223-10.613,21.751-18.319,35.398-21.713c5.046-1.254,10.985-1.73,14.872,1.724c4.54,4.036,3.765,11.862-0.285,16.389
	c-4.049,4.528-10.317,6.363-16.345,7.116c-11.813,1.477-22.712-0.274-34.451-2.172c-2.979,5.078-5.633,10.336-7.793,15.902
	c-3.95,10.18-6.738,20.796-8.853,31.497c-0.563,2.846-1.072,5.702-1.544,8.566c7.409-10.376,17.728-18.672,29.49-23.604
	c4.795-2.011,10.592-3.387,14.959-0.567c5.104,3.295,5.533,11.148,2.222,16.24c-3.311,5.093-9.224,7.864-15.067,9.529
	c-10.794,3.077-21.222,3.195-32.343,3.129c-2.66,18.012-3.626,36.308-3.402,54.513c4.835-12.397,13.309-23.364,24.136-31.105
	c4.23-3.024,9.578-5.652,14.462-3.871c5.706,2.081,7.867,9.643,5.767,15.343c-2.099,5.701-7.25,9.714-12.578,12.633
	c-10.11,5.539-20.535,7.95-31.729,10.418c0.049,2.413,0.112,4.826,0.2,7.234c0.487,13.218,1.573,26.463,3.391,39.604
	c4.894-12.001,13.21-22.601,23.758-30.141c4.23-3.024,9.577-5.651,14.462-3.871c5.707,2.081,7.867,9.644,5.768,15.344
	c-2.099,5.7-7.251,9.713-12.579,12.632c-9.832,5.387-19.961,7.815-30.805,10.215c2.252,14.955,5.477,29.756,9.891,44.2
	c0.919,3.009-3.811,4.228-4.728,1.225c-4.457-14.586-7.683-29.541-9.946-44.641c-13.776-0.304-27.462-4.829-38.72-12.854
	C849.425,779.408,845.177,775.185,845.25,769.966z"/><path fill="#BDD3FF" d="M580.024,647.755c-2.373-3.746-7.159-5.556-11.556-5.032c-4.397,0.525-8.365,3.102-11.285,6.433
	c-2.919,3.332-4.895,7.383-6.545,11.496c-2.73,6.807-4.658,14.181-4.182,21.439c-7.953-7.252-15.346-15.123-22.102-23.521
	c-0.615-0.764-1.215-1.539-1.819-2.31c6.307-4.38,12.614-8.76,18.921-13.14c4.208-2.922,8.521-5.95,11.335-10.234
	c2.814-4.284,3.807-10.18,1.062-14.514c-2.373-3.746-7.159-5.556-11.557-5.031c-4.398,0.524-8.365,3.102-11.285,6.433
	c-2.919,3.331-4.895,7.382-6.545,11.496c-2.816,7.021-4.781,14.647-4.132,22.125c-7.211-9.546-13.62-19.692-19.135-30.306
	c6.22-4.683,12.439-9.366,18.66-14.05c4.092-3.082,8.286-6.274,10.934-10.662c2.647-4.389,3.414-10.318,0.505-14.544
	c-2.515-3.653-7.366-5.277-11.74-4.584c-4.374,0.693-8.24,3.421-11.029,6.862c-2.79,3.441-4.609,7.565-6.1,11.739
	c-2.386,6.682-4.008,13.868-3.429,20.88c-3.813-7.768-7.162-15.764-9.993-23.944c-0.838-2.422-1.614-4.863-2.359-7.314
	c6.238-5.027,12.476-10.054,18.714-15.082c3.989-3.215,8.076-6.543,10.578-11.017c2.502-4.473,3.074-10.425,0.028-14.553
	c-2.634-3.568-7.535-5.032-11.884-4.195c-4.349,0.836-8.124,3.69-10.798,7.221c-2.675,3.531-4.358,7.713-5.711,11.934
	c-1.934,6.031-3.238,12.441-2.923,18.718c-2.23-8.398-3.92-16.937-5.051-25.559c3.014-7.206,6.028-14.413,9.042-21.619
	c1.978-4.729,3.988-9.605,4.061-14.734c0.072-5.129-2.255-10.639-6.894-12.82c-4.011-1.885-9.016-0.839-12.441,1.969
	c-3.425,2.807-5.385,7.117-6.058,11.499c-0.673,4.382-0.164,8.863,0.653,13.222c1.506,8.033,4.223,16.128,9.52,22.29
	c0.002,0.029-0.001,0.054,0.003,0.083c1.187,9.179,3.01,18.266,5.43,27.19c-3.785-5.396-9.106-9.756-14.692-13.358
	c-3.726-2.402-7.681-4.565-11.99-5.596c-4.309-1.031-9.037-0.841-12.928,1.273c-3.892,2.114-6.749,6.356-6.518,10.784
	c0.267,5.123,4.488,9.359,9.262,11.228c4.774,1.869,10.045,1.846,15.168,1.798c7.803-0.072,15.606-0.146,23.408-0.219
	c3.285,10.832,7.454,21.395,12.438,31.563c-5.129-4.674-11.689-7.78-18.328-9.994c-4.204-1.402-8.571-2.515-12.999-2.443
	c-4.428,0.071-8.961,1.431-12.204,4.446c-3.244,3.015-4.96,7.836-3.638,12.069c1.529,4.897,6.667,7.953,11.753,8.578
	c5.087,0.625,10.185-0.707,15.136-2.026c7.535-2.009,15.07-4.017,22.605-6.026c0.165,0.316,0.322,0.635,0.488,0.951
	c5.448,10.336,11.738,20.22,18.771,29.54c-6.367-4.462-14.27-6.494-22.043-7.415c-4.399-0.522-8.9-0.727-13.221,0.241
	c-4.322,0.969-8.483,3.219-11.05,6.829c-2.567,3.611-3.271,8.681-1.121,12.56c2.487,4.487,8.136,6.438,13.242,6.019
	c5.106-0.419,9.829-2.757,14.408-5.053c7.196-3.608,14.392-7.215,21.587-10.822c0.1,0.129,0.202,0.256,0.302,0.384l-0.073,0.216
	c0.053-0.036,0.104-0.073,0.157-0.109c6.995,8.954,14.692,17.355,23.027,25.087c-6.835-1.435-14.113-0.821-21.015,0.602
	c-4.421,0.912-8.838,2.161-12.707,4.487s-7.172,5.839-8.497,10.153s-0.383,9.439,2.939,12.496c3.842,3.536,9.929,3.605,14.732,1.557
	c4.804-2.048,8.622-5.826,12.314-9.517c5.245-5.243,10.489-10.486,15.734-15.728c0.185-0.128,0.37-0.257,0.555-0.385
	c9.404,8.271,19.547,15.681,30.309,22.085c1.137,0.677,2.411-0.97,1.259-1.655c-10.581-6.296-20.552-13.562-29.806-21.654
	c5.984-4.155,11.967-8.31,17.95-12.466c4.207-2.922,8.521-5.95,11.335-10.234C581.776,657.984,582.769,652.089,580.024,647.755z"/><ellipse cx="661.057" cy="873.383" fill="#E5EBF5" rx="311.21" ry="28.563"/><path fill="#8482FF" d="M546.314,715.969l-116.71-1.545l0.094-30.708c0.065-20.909,17.947-37.684,39.862-37.394l37.219,0.493
	c21.915,0.291,39.694,17.538,39.63,38.447L546.314,715.969z M441.479,706.75l92.627,1.227l0.261-22.875
	c0.045-14.574-12.348-26.596-27.624-26.799l-37.218-0.493c-15.276-0.202-27.741,11.491-27.785,26.065L441.479,706.75z"/><path fill="#6360D6" d="M506.779,646.815l-37.219-0.493c-0.591-0.008-1.167,0.045-1.753,0.062l32.577,0.431
	c21.915,0.291,39.694,17.538,39.63,38.446l-0.094,30.624l6.394,0.084l0.095-30.708C546.472,664.352,528.694,647.105,506.779,646.815
	z"/><path fill="#6360D6" d="M467.771,657.871l-4.642-0.062c-15.276-0.202-27.74,11.491-27.784,26.065l-0.261,22.875l92.628,1.227
	l0.001-0.085l-86.232-1.142l0.26-22.875C441.783,669.865,453.311,658.549,467.771,657.871z"/><path fill="#6360D6" d="M623.283,719.504l-0.422,137.389c-0.021,6.999-5.985,12.594-13.321,12.497l-31.392-0.416l0.498-162.733
	l31.392,0.416C617.374,706.753,623.304,712.505,623.283,719.504z"/><path fill="#8482FF" d="M600.948,718.338l-0.426,139.128c-0.021,6.519-5.575,11.729-12.408,11.638L388.4,866.459
	c-8.039-0.107-14.537-6.41-14.514-14.079l0.414-134.961c0.023-7.669,6.559-13.8,14.598-13.693l199.714,2.645
	C595.445,706.462,600.968,711.82,600.948,718.338z"/><path fill="#D9DFFF" d="M570.405,858.491l-166.548-2.206c-9.429-0.125-17.05-7.518-17.022-16.514l0.336-109.639
	c0.028-8.996,7.693-16.186,17.122-16.062l166.548,2.207c9.429,0.125,17.049,7.518,17.022,16.513l-0.336,109.64
	C587.499,851.425,579.833,858.616,570.405,858.491z"/><path fill="#FFF" d="M529.932,778.819l-38.766-0.514l0.113-36.985c0.012-3.898-3.303-7.113-7.388-7.167
	c-4.087-0.054-7.42,3.073-7.431,6.971l-0.113,36.986l-38.767-0.514c-4.087-0.054-7.42,3.073-7.432,6.971
	c-0.012,3.897,3.302,7.113,7.389,7.168l38.766,0.513l-0.113,36.985c-0.012,3.898,3.302,7.113,7.389,7.167
	c4.086,0.054,7.42-3.073,7.431-6.97l0.114-36.986l38.767,0.513c4.085,0.054,7.418-3.073,7.43-6.971
	C537.33,782.087,534.016,778.873,529.932,778.819z"/><path fill="#FFF" d="M426.122,748.67c6.798-8.771,7.215-19.5,0.931-23.964c-6.285-4.463-16.89-0.971-23.688,7.799
	c-6.798,8.771-7.215,19.5-0.93,23.964C408.718,760.933,419.324,757.441,426.122,748.67z"/><path fill="#FFF" d="M882.927,547.736l-103.025,0.162c-5.603,0.009-10.138,4.558-10.129,10.161l0.458,291.319
	c0.02,12.444,10.123,22.517,22.568,22.497l78.25-0.123c12.444-0.019,22.517-10.123,22.497-22.568l-0.458-291.319
	C893.079,552.262,888.53,547.727,882.927,547.736z M828.895,576.849c-4.106-0.915-7.422-4.222-8.349-8.325
	c-1.839-8.137,5.265-15.281,13.438-13.492c4.119,0.902,7.447,4.219,8.363,8.334C844.164,571.534,837.039,578.664,828.895,576.849z"/><path fill="#CFD3E6" d="M789.219,624.048c-7.088-7.065-7.105-18.539-0.04-25.626c7.065-7.087,18.538-7.105,25.626-0.04
	c7.088,7.065,7.106,18.539,0.04,25.626C807.779,631.096,796.306,631.114,789.219,624.048z"/><path fill="#7D7AFF" d="M791.574,621.685c-5.782-5.764-5.797-15.125-0.033-20.907c5.765-5.783,15.125-5.797,20.908-0.033
	c5.783,5.765,5.797,15.125,0.033,20.907C806.717,627.435,797.357,627.45,791.574,621.685z"/><path fill="#524FDB" d="M812.449,600.745c-0.403-0.402-0.828-0.769-1.263-1.115c4.63,5.797,4.275,14.269-1.086,19.648
	c-5.362,5.379-13.833,5.76-19.644,1.148c0.347,0.435,0.716,0.858,1.119,1.26c5.783,5.764,15.143,5.75,20.907-0.033
	C818.246,615.87,818.231,606.51,812.449,600.745z"/><path fill="#9694FF" d="M797.641,605.274c-3.172,2.339-6.468,3.253-7.359,2.043c-0.892-1.21,0.955-4.088,4.128-6.426
	c3.172-2.339,6.468-3.253,7.36-2.043C802.661,600.058,800.813,602.935,797.641,605.274z"/><path fill="#CFD3E6" d="M851.321,623.951c-7.088-7.065-7.105-18.539-0.04-25.626c7.065-7.088,18.538-7.106,25.626-0.04
	s7.105,18.539,0.04,25.626C869.882,630.998,858.409,631.016,851.321,623.951z"/><path fill="#7D7AFF" d="M853.677,621.588c-5.782-5.764-5.797-15.125-0.033-20.907c5.765-5.783,15.125-5.797,20.907-0.033
	c5.783,5.764,5.797,15.125,0.033,20.907C868.82,627.337,859.459,627.352,853.677,621.588z"/><path fill="#524FDB" d="M874.551,600.647c-0.403-0.402-0.828-0.769-1.263-1.115c4.63,5.797,4.275,14.269-1.086,19.647
	c-5.363,5.379-13.833,5.76-19.644,1.148c0.347,0.435,0.716,0.858,1.118,1.26c5.783,5.765,15.143,5.75,20.908-0.033
	C880.349,615.772,880.334,606.412,874.551,600.647z"/><path fill="#9694FF" d="M859.743,605.176c-3.173,2.339-6.468,3.253-7.36,2.043c-0.892-1.211,0.956-4.088,4.128-6.426
	c3.172-2.339,6.467-3.253,7.36-2.043C864.764,599.961,862.916,602.837,859.743,605.176z"/><path fill="#CFD3E6" d="M789.291,670.222c-7.088-7.066-7.106-18.539-0.04-25.626c7.065-7.088,18.538-7.106,25.626-0.04
	c7.088,7.065,7.106,18.538,0.04,25.626C807.852,677.269,796.378,677.287,789.291,670.222z"/><path fill="#7D7AFF" d="M791.646,667.858c-5.782-5.764-5.797-15.125-0.033-20.907c5.765-5.783,15.125-5.797,20.908-0.033
	c5.783,5.764,5.797,15.125,0.033,20.907C806.79,673.608,797.429,673.623,791.646,667.858z"/><path fill="#524FDB" d="M812.521,646.918c-0.403-0.402-0.828-0.769-1.263-1.115c4.63,5.797,4.275,14.268-1.086,19.648
	c-5.362,5.379-13.833,5.76-19.644,1.148c0.347,0.434,0.716,0.857,1.119,1.26c5.783,5.765,15.143,5.75,20.907-0.033
	C818.319,662.043,818.304,652.682,812.521,646.918z"/><path fill="#9694FF" d="M797.713,651.447c-3.172,2.339-6.467,3.253-7.359,2.043c-0.892-1.211,0.956-4.088,4.128-6.426
	c3.172-2.339,6.467-3.254,7.36-2.043C802.734,646.231,800.885,649.108,797.713,651.447z"/><path fill="#CFD3E6" d="M851.394,670.124c-7.087-7.066-7.105-18.539-0.04-25.626c7.065-7.087,18.538-7.106,25.626-0.04
	s7.106,18.538,0.04,25.626C869.954,677.171,858.481,677.189,851.394,670.124z"/><path fill="#7D7AFF" d="M853.749,667.761c-5.782-5.764-5.797-15.125-0.033-20.907c5.764-5.783,15.125-5.797,20.907-0.033
	c5.783,5.764,5.797,15.124,0.033,20.907C868.892,673.511,859.532,673.525,853.749,667.761z"/><path fill="#524FDB" d="M874.624,646.82c-0.403-0.402-0.828-0.769-1.263-1.115c4.63,5.797,4.275,14.268-1.086,19.647
	c-5.363,5.379-13.833,5.76-19.644,1.148c0.347,0.435,0.716,0.858,1.119,1.26c5.783,5.764,15.143,5.75,20.908-0.033
	C880.421,661.945,880.406,652.585,874.624,646.82z"/><path fill="#9694FF" d="M859.816,651.349c-3.172,2.338-6.467,3.253-7.36,2.043c-0.892-1.21,0.956-4.088,4.128-6.426
	c3.172-2.339,6.467-3.254,7.36-2.043C864.836,646.134,862.988,649.011,859.816,651.349z"/><path fill="#CFD3E6" d="M789.363,716.395c-7.087-7.066-7.105-18.539-0.04-25.626c7.065-7.088,18.538-7.105,25.626-0.04
	c7.088,7.065,7.106,18.538,0.04,25.626C807.924,723.442,796.451,723.46,789.363,716.395z"/><path fill="#7D7AFF" d="M791.719,714.032c-5.782-5.764-5.797-15.125-0.033-20.907c5.764-5.783,15.125-5.797,20.908-0.033
	c5.783,5.764,5.797,15.125,0.033,20.907C806.862,719.781,797.502,719.796,791.719,714.032z"/><path fill="#524FDB" d="M812.594,693.091c-0.404-0.402-0.828-0.769-1.263-1.115c4.63,5.797,4.276,14.268-1.086,19.647
	c-5.362,5.379-13.833,5.76-19.644,1.147c0.348,0.435,0.716,0.858,1.119,1.26c5.783,5.764,15.143,5.75,20.907-0.033
	C818.391,708.216,818.376,698.856,812.594,693.091z"/><path fill="#9694FF" d="M797.785,697.62c-3.172,2.338-6.467,3.253-7.359,2.042c-0.892-1.21,0.955-4.088,4.128-6.426
	c3.172-2.339,6.467-3.254,7.36-2.043C802.806,692.404,800.958,695.282,797.785,697.62z"/><path fill="#CFD3E6" d="M851.466,716.297c-7.087-7.066-7.105-18.539-0.04-25.626c7.065-7.088,18.539-7.105,25.626-0.04
	c7.088,7.065,7.106,18.538,0.04,25.626C870.027,723.345,858.554,723.363,851.466,716.297z"/><path fill="#7D7AFF" d="M853.822,713.934c-5.782-5.764-5.797-15.125-0.033-20.907c5.765-5.783,15.125-5.797,20.907-0.033
	c5.783,5.764,5.798,15.125,0.033,20.907C868.965,719.684,859.604,719.699,853.822,713.934z"/><path fill="#524FDB" d="M874.696,692.994c-0.403-0.402-0.828-0.769-1.263-1.115c4.63,5.797,4.276,14.268-1.086,19.647
	c-5.363,5.379-13.833,5.76-19.644,1.148c0.347,0.435,0.716,0.858,1.119,1.26c5.783,5.764,15.143,5.75,20.908-0.033
	C880.494,708.119,880.479,698.758,874.696,692.994z"/><path fill="#9694FF" d="M859.888,697.523c-3.172,2.338-6.467,3.253-7.36,2.043c-0.892-1.211,0.956-4.088,4.128-6.426
	c3.172-2.339,6.467-3.254,7.36-2.043C864.909,692.307,863.061,695.184,859.888,697.523z"/><path fill="#CFD3E6" d="M789.436,762.568c-7.087-7.065-7.106-18.539-0.04-25.626c7.065-7.088,18.539-7.106,25.626-0.04
	c7.088,7.065,7.106,18.539,0.04,25.626C807.997,769.615,796.524,769.633,789.436,762.568z"/><path fill="#7D7AFF" d="M791.792,760.205c-5.782-5.764-5.797-15.125-0.033-20.907c5.764-5.782,15.125-5.797,20.908-0.033
	c5.783,5.765,5.797,15.125,0.033,20.908C806.935,765.954,797.574,765.969,791.792,760.205z"/><path fill="#524FDB" d="M812.666,739.265c-0.404-0.402-0.828-0.769-1.263-1.115c4.63,5.796,4.275,14.268-1.086,19.647
	c-5.362,5.379-13.833,5.76-19.644,1.148c0.347,0.434,0.716,0.858,1.119,1.26c5.783,5.764,15.143,5.749,20.907-0.033
	C818.464,754.39,818.449,745.029,812.666,739.265z"/><path fill="#9694FF" d="M797.858,743.793c-3.172,2.339-6.467,3.253-7.359,2.043c-0.892-1.211,0.955-4.088,4.128-6.426
	c3.172-2.338,6.468-3.253,7.36-2.043C802.879,738.578,801.03,741.455,797.858,743.793z"/><circle cx="864.332" cy="749.637" r="18.12" fill="#CFD3E6" transform="rotate(-57.016 864.344 749.666)"/><path fill="#7D7AFF" d="M853.894,760.108c-5.782-5.765-5.797-15.125-0.033-20.908c5.764-5.782,15.125-5.797,20.907-0.033
	c5.783,5.764,5.797,15.125,0.033,20.908C869.038,765.857,859.677,765.872,853.894,760.108z"/><path fill="#524FDB" d="M874.769,739.167c-0.404-0.402-0.828-0.769-1.263-1.115c4.63,5.796,4.276,14.268-1.086,19.647
	c-5.363,5.379-13.833,5.76-19.644,1.148c0.347,0.435,0.716,0.858,1.119,1.26c5.783,5.764,15.143,5.749,20.908-0.033
	C880.566,754.292,880.552,744.931,874.769,739.167z"/><path fill="#9694FF" d="M859.961,743.696c-3.172,2.339-6.468,3.253-7.36,2.043c-0.892-1.211,0.956-4.088,4.128-6.427
	c3.172-2.338,6.467-3.253,7.36-2.043C864.981,738.48,863.133,741.357,859.961,743.696z"/><ellipse cx="802.302" cy="795.908" fill="#CFD3E6" rx="18.121" ry="18.12" transform="translate(-.821 .829)"/><path fill="#7D7AFF" d="M791.864,806.378c-5.782-5.764-5.797-15.125-0.033-20.907c5.764-5.783,15.125-5.797,20.908-0.033
	c5.783,5.764,5.797,15.125,0.033,20.907C807.007,812.127,797.647,812.142,791.864,806.378z"/><path fill="#524FDB" d="M812.739,785.438c-0.404-0.402-0.828-0.769-1.263-1.115c4.63,5.796,4.276,14.268-1.086,19.647
	c-5.362,5.379-13.833,5.76-19.644,1.148c0.347,0.434,0.716,0.857,1.119,1.26c5.782,5.764,15.143,5.75,20.907-0.033
	C818.536,800.563,818.521,791.202,812.739,785.438z"/><path fill="#9694FF" d="M797.931,789.967c-3.172,2.339-6.467,3.253-7.359,2.043c-0.892-1.211,0.955-4.088,4.128-6.427
	c3.172-2.338,6.468-3.253,7.36-2.043C802.951,784.751,801.103,787.628,797.931,789.967z"/><path fill="#CFD3E6" d="M851.611,808.644c-7.087-7.065-7.106-18.539-0.04-25.626c7.065-7.087,18.538-7.105,25.626-0.04
	c7.087,7.065,7.106,18.539,0.04,25.626C870.172,815.691,858.699,815.709,851.611,808.644z"/><path fill="#7D7AFF" d="M853.967,806.28c-5.782-5.764-5.797-15.125-0.033-20.907c5.764-5.783,15.125-5.797,20.907-0.033
	c5.783,5.764,5.797,15.125,0.033,20.907C869.11,812.03,859.749,812.045,853.967,806.28z"/><path fill="#524FDB" d="M874.842,785.34c-0.404-0.402-0.828-0.769-1.263-1.115c4.63,5.796,4.275,14.268-1.086,19.647
	c-5.363,5.379-13.833,5.76-19.644,1.148c0.347,0.434,0.716,0.857,1.119,1.26c5.783,5.765,15.143,5.75,20.907-0.033
	C880.639,800.465,880.624,791.105,874.842,785.34z"/><path fill="#9694FF" d="M860.033,789.869c-3.172,2.339-6.467,3.253-7.36,2.043c-0.892-1.211,0.956-4.088,4.128-6.427
	c3.172-2.338,6.468-3.253,7.36-2.042C865.054,784.653,863.206,787.531,860.033,789.869z"/><path fill="#CFD3E6" d="M789.581,854.914c-7.088-7.065-7.106-18.539-0.04-25.626c7.065-7.087,18.538-7.105,25.626-0.04
	c7.087,7.065,7.105,18.539,0.04,25.626C808.142,861.962,796.669,861.98,789.581,854.914z"/><path fill="#7D7AFF" d="M791.937,852.551c-5.782-5.764-5.797-15.125-0.033-20.907c5.764-5.783,15.125-5.797,20.908-0.033
	c5.783,5.765,5.797,15.125,0.033,20.907C807.08,858.301,797.719,858.316,791.937,852.551z"/><path fill="#524FDB" d="M812.811,831.611c-0.404-0.402-0.828-0.769-1.263-1.115c4.63,5.796,4.276,14.268-1.086,19.647
	c-5.362,5.379-13.833,5.76-19.644,1.148c0.347,0.435,0.716,0.858,1.119,1.26c5.783,5.764,15.143,5.75,20.907-0.033
	C818.609,846.736,818.594,837.376,812.811,831.611z"/><path fill="#9694FF" d="M798.003,836.14c-3.172,2.339-6.467,3.253-7.359,2.042c-0.893-1.21,0.955-4.088,4.128-6.426
	c3.172-2.339,6.467-3.253,7.36-2.043C803.024,830.924,801.175,833.801,798.003,836.14z"/><path fill="#CFD3E6" d="M851.684,854.817c-7.087-7.065-7.106-18.539-0.04-25.626c7.065-7.088,18.538-7.106,25.626-0.04
	c7.087,7.065,7.105,18.539,0.04,25.626C870.244,861.864,858.771,861.882,851.684,854.817z"/><path fill="#7D7AFF" d="M854.039,852.454c-5.782-5.765-5.797-15.125-0.033-20.907c5.764-5.783,15.125-5.797,20.907-0.033
	c5.783,5.764,5.797,15.125,0.033,20.907C869.182,858.203,859.822,858.218,854.039,852.454z"/><path fill="#524FDB" d="M874.914,831.513c-0.403-0.402-0.828-0.769-1.263-1.115c4.63,5.797,4.276,14.268-1.086,19.647
	c-5.363,5.379-13.833,5.76-19.644,1.148c0.347,0.434,0.716,0.857,1.119,1.26c5.782,5.764,15.143,5.75,20.908-0.033
	C880.711,846.638,880.697,837.278,874.914,831.513z"/><path fill="#9694FF" d="M860.106,836.042c-3.172,2.339-6.467,3.253-7.36,2.043c-0.892-1.211,0.956-4.088,4.128-6.426
	c3.172-2.339,6.468-3.253,7.36-2.043C865.126,830.826,863.278,833.703,860.106,836.042z"/><path fill="#CFD3E6" d="M833.544,857.197L833.544,857.197c0.914,0,1.655-0.741,1.655-1.655V599.871c0-0.914-0.741-1.655-1.655-1.655
	l0,0c-0.914,0-1.655,0.741-1.655,1.655v255.671C831.889,856.456,832.63,857.197,833.544,857.197z"/><rect width="191.38" height="10.258" x="565.602" y="540.93" fill="#3658D1"/><path fill="#3658D1" d="M745.211,876.245c-59.72,10.681-115.712,10.613-166.158-0.143c-8.496-1.812-14.751-9.05-14.751-17.737
	v-13.657h195.467l0.001,13.831C759.769,867.156,753.693,874.728,745.211,876.245z"/><path fill="#5C92FF" d="M758.617,854.197c-9.397,2.335-20.749,4.056-33.357,5.311c-51.713,5.195-123.593,1.926-159.402-5.311
	c-35.808-37.268-40.945-69.253-35.108-105.558c0.467-2.802,0.963-5.633,1.547-8.492c0.963-4.757,2.072-9.631,3.298-14.592
	c1.605-6.596,3.443-13.366,5.37-20.399c6.625-23.989,14.475-50.692,19.524-82.035c1.08-6.566,2.014-13.366,2.802-20.37
	c0.467-4.232,0.905-8.522,1.225-12.9c0.234-2.801,0.438-5.632,0.584-8.492c0.233-3.619,0.379-7.325,0.496-11.061
	c0.175-4.115,0.262-8.346,0.262-12.637c56.5,0.263,134.012-0.321,192.759,0c0,8.172,0.263,16.051,0.7,23.698
	c0.175,2.86,0.38,5.691,0.613,8.492c0.35,4.378,0.788,8.697,1.255,12.9c0.759,7.033,1.692,13.804,2.743,20.37
	c5.049,31.372,12.899,58.046,19.524,82.035c1.926,7.004,3.765,13.804,5.399,20.399c1.225,4.961,2.335,9.835,3.298,14.592
	c0.584,2.86,1.08,5.691,1.547,8.492C799.503,784.944,794.396,816.929,758.617,854.197z"/><path fill="#3658D1" d="M759.038,469.87H563.077c-6.951,0-12.585,5.634-12.585,12.585v36.761c0,6.95,5.634,12.585,12.585,12.585
	h195.961c6.95,0,12.585-5.634,12.585-12.585v-36.761C771.622,475.504,765.988,469.87,759.038,469.87z"/><path fill="#FFF" d="M788.852,725.555H535.595c1.605-6.596,3.443-13.366,5.37-20.399c6.625-23.989,14.475-50.692,19.524-82.035
	c1.08-6.566,2.014-13.366,2.802-20.37h197.895c0.759,7.033,1.692,13.804,2.743,20.37c5.049,31.372,12.899,58.046,19.524,82.035
	C785.379,712.159,787.217,718.959,788.852,725.555z"/><path fill="#E6E7E8" d="M758.609,854.209c-9.398,2.328-20.756,4.045-33.338,5.312c104.284-62.007,22.227-242.532,7.217-270.337
	c-15.733-29.144-166.845-18.847-166.845-18.847l-0.041-0.041c0.164-4.126,0.245-8.334,0.245-12.624
	c56.505,0.245,134.011-0.327,192.762,0C758.609,708.881,842.161,767.143,758.609,854.209z"/><path fill="#5C92FF" d="M756.53,559.508H565.585c-3.135,0-5.676-2.542-5.676-5.677l0,0c0-3.135,2.542-5.677,5.676-5.677H756.53
	c3.135,0,5.677,2.541,5.677,5.677l0,0C762.207,556.966,759.665,559.508,756.53,559.508z"/><path fill="#5C92FF" d="M756.53,543.154H565.585c-3.135,0-5.676-2.542-5.676-5.676l0,0c0-3.135,2.542-5.677,5.676-5.677H756.53
	c3.135,0,5.677,2.542,5.677,5.677l0,0C762.207,540.612,759.665,543.154,756.53,543.154z"/><path fill="#FFF" d="M610.959,835.099h-33.475c-1.017,0-1.842-0.824-1.842-1.842v-24.538c0-1.017,0.825-1.842,1.842-1.842h33.475
	c1.017,0,1.842,0.824,1.842,1.842v24.538C612.8,834.274,611.976,835.099,610.959,835.099z"/><path fill="#FFF" d="M730.08,826.197H627.895c-2.565,0-4.645-2.08-4.645-4.645l0,0c0-2.565,2.08-4.645,4.645-4.645H730.08
	c2.565,0,4.645,2.08,4.645,4.645l0,0C734.725,824.117,732.645,826.197,730.08,826.197z"/><path fill="#5C92FF" d="M700.023,657.452h-35.055v-35.055c0-3.695-3.005-6.7-6.701-6.7c-3.695,0-6.701,3.005-6.701,6.7v35.055
	h-35.055c-3.695,0-6.701,3.005-6.701,6.7c0,3.695,3.005,6.7,6.701,6.7h35.055v35.055c0,3.695,3.005,6.7,6.701,6.7
	c3.695,0,6.701-3.005,6.701-6.7v-35.055h35.055c3.694,0,6.699-3.006,6.699-6.7C706.722,660.457,703.717,657.452,700.023,657.452z"/><path fill="#FFF" d="M793.696,748.639H530.75c0.467-2.802,0.963-5.633,1.547-8.492h259.852
	C792.733,743.007,793.229,745.837,793.696,748.639z"/><path fill="#FFF" d="M759.93,589.85H564.516c0.234-2.801,0.438-5.632,0.584-8.492h194.217
	C759.493,584.218,759.697,587.049,759.93,589.85z"/><path fill="#5476EB" d="M584.705,480.701h-15.131c-2.281,0-4.466,2.006-4.36,4.36c0.106,2.363,1.916,4.36,4.36,4.36h15.131
	c2.281,0,4.466-2.006,4.36-4.36C588.959,482.699,587.15,480.701,584.705,480.701z"/><path fill="#5476EB" d="M669.782,480.701h-63.379c-5.612,0-5.621,8.721,0,8.721h63.379
	C675.393,489.422,675.403,480.701,669.782,480.701z"/><path fill="#FF8FCF" d="M523.735,337.51l-18.664,25.841l-30.686-22.163c-3.051-2.204-5.09-5.315-6.02-8.717l-0.018-0.013
	c-1.214-4.482-0.493-9.449,2.449-13.523c2.579-3.571,6.366-5.752,10.401-6.387c4.031-0.666,8.28,0.218,11.851,2.797L523.735,337.51z
	"/><path fill="#F580C3" d="M523.735,337.51l-1.979-1.429l-12.774,17.687c-1.947,2.695-5.71,3.302-8.405,1.355l-25.806-18.638
	c-3.051-2.204-5.09-5.315-6.02-8.717l-0.018-0.013c-0.276-1.02-0.439-2.066-0.511-3.119c-0.604,2.597-0.562,5.286,0.125,7.822
	l0.018,0.013c0.929,3.402,2.969,6.513,6.02,8.717l30.686,22.163L523.735,337.51z"/><path fill="#E660AD" d="M558.027,381.938c-2.579,3.571-6.366,5.751-10.383,6.4c-4.036,0.635-8.298-0.232-11.869-2.811
	l-30.705-22.176l18.664-25.841l30.704,22.175c5.168,3.733,7.447,9.993,6.317,15.867C560.339,377.792,559.44,379.982,558.027,381.938
	z"/><path fill="#DB53A1" d="M560.755,375.552c0.647-3.363,0.172-6.852-1.319-9.922c0.062,1.252-0.015,2.514-0.255,3.759
	c-0.416,2.239-1.315,4.429-2.728,6.386c-2.579,3.571-6.366,5.752-10.383,6.4c-4.036,0.635-8.298-0.232-11.869-2.811l-26.745-19.316
	l-2.385,3.303l30.705,22.176c3.571,2.579,7.833,3.446,11.869,2.811c4.017-0.648,7.804-2.829,10.383-6.4
	C559.44,379.982,560.339,377.792,560.755,375.552z"/><path fill="#A7A9AC" d="M490.254,318.8c0.271-0.837-0.114-1.652-0.913-2.001c-3.037-1.322-6.532-1.341-9.619-0.18
	c-0.763,0.287-1.152,1.327-0.794,2.051c0.391,0.791,1.236,1.101,2.051,0.794c0.167-0.063,0.335-0.123,0.504-0.178
	c0.008-0.003,0.029-0.009,0.047-0.015c0.029-0.007,0.174-0.05,0.187-0.053c0.328-0.086,0.659-0.156,0.994-0.211
	c0.334-0.055,0.671-0.095,1.008-0.12c0.088-0.007,0.177-0.01,0.265-0.016c0.171,0,0.343-0.002,0.514,0.003
	c0.676,0.02,1.344,0.107,2.006,0.241c0.08,0.022,0.16,0.041,0.24,0.062c0.172,0.047,0.343,0.098,0.512,0.154
	c0.339,0.111,0.671,0.24,0.998,0.382C489.001,320.038,490.006,319.569,490.254,318.8z"/><path fill="#A7A9AC" d="M536.309,349.778c-13.084-9.411-26.169-18.822-39.253-28.232c-1.624-1.168-3.449,1.349-1.822,2.52
	c13.085,9.411,26.169,18.822,39.253,28.232C536.111,353.466,537.936,350.949,536.309,349.778z"/><path fill="#A7A9AC" d="M541.277,353.505c-1.622-1.172-3.446,1.346-1.822,2.52C541.077,357.197,542.901,354.679,541.277,353.505z"/><path fill="#8AB1FF" d="M784.957,309.314l7.314,31.026l-36.843,8.686c-3.663,0.863-7.35,0.368-10.53-1.157l-0.021,0.005
	c-4.183-2.016-7.466-5.814-8.619-10.704c-1.011-4.288-0.18-8.577,1.982-12.044c2.136-3.483,5.586-6.116,9.874-7.127L784.957,309.314
	z"/><path fill="#7DA7FA" d="M784.957,309.314l-2.376,0.56l5.006,21.236c0.763,3.236-1.242,6.478-4.478,7.241l-30.983,7.304
	c-3.663,0.863-7.35,0.368-10.53-1.156l-0.021,0.005c-0.952-0.458-1.849-1.021-2.693-1.656c1.568,2.157,3.628,3.885,5.995,5.026
	l0.021-0.005c3.18,1.525,6.867,2.02,10.53,1.157l36.843-8.686L784.957,309.314z"/><path fill="#5C92FF" d="M840.991,312.479c1.011,4.287,0.18,8.577-1.96,12.038c-2.162,3.466-5.608,6.12-9.895,7.131l-36.865,8.691
	l-7.314-31.026l36.864-8.691c6.205-1.463,12.429,0.914,16.129,5.613C839.37,308.017,840.437,310.13,840.991,312.479z"/><path fill="#5088FA" d="M837.95,306.236c-2.119-2.691-5.067-4.616-8.363-5.499c0.987,0.773,1.89,1.658,2.675,2.654
	c1.42,1.781,2.487,3.894,3.041,6.243c1.011,4.287,0.18,8.577-1.96,12.038c-2.162,3.466-5.608,6.12-9.895,7.131l-32.111,7.57
	l0.935,3.966l36.865-8.691c4.287-1.011,7.733-3.665,9.895-7.131c2.14-3.461,2.971-7.751,1.96-12.038
	C840.437,310.13,839.371,308.017,837.95,306.236z"/><path fill="#A7A9AC" d="M748.895,322.371c-0.455-0.752-1.323-0.996-2.11-0.619c-2.988,1.43-5.29,4.06-6.433,7.153
	c-0.282,0.765,0.249,1.739,1.03,1.943c0.854,0.223,1.641-0.214,1.943-1.03c0.062-0.167,0.126-0.334,0.195-0.498
	c0.003-0.008,0.012-0.028,0.019-0.045c0.013-0.026,0.077-0.164,0.083-0.176c0.15-0.304,0.314-0.6,0.491-0.889
	c0.177-0.289,0.367-0.57,0.569-0.841c0.053-0.071,0.109-0.14,0.161-0.211c0.112-0.13,0.223-0.26,0.339-0.386
	c0.458-0.498,0.961-0.946,1.495-1.359c0.068-0.046,0.136-0.094,0.204-0.14c0.148-0.099,0.299-0.195,0.452-0.286
	c0.306-0.183,0.621-0.35,0.943-0.504C749.01,324.13,749.313,323.063,748.895,322.371z"/><path fill="#A7A9AC" d="M802.463,307.841c-15.68,3.729-31.36,7.458-47.04,11.187c-1.946,0.463-1.238,3.491,0.712,3.027
	c15.68-3.729,31.36-7.458,47.04-11.188C805.121,310.405,804.413,307.377,802.463,307.841z"/><path fill="#A7A9AC" d="M808.532,306.525c-1.948,0.458-1.239,3.486,0.712,3.027C811.192,309.094,810.483,306.066,808.532,306.525z"/><path fill="#8AB1FF" d="M550.465,85.664l-20.216,24.646l-29.267-24.006c-2.909-2.387-4.754-5.618-5.473-9.07l-0.017-0.014
	c-0.937-4.548,0.088-9.462,3.275-13.347c2.794-3.406,6.707-5.35,10.774-5.736c4.064-0.417,8.251,0.727,11.657,3.52L550.465,85.664z"/><path fill="#7DA7FA" d="M550.465,85.664l-1.887-1.548l-13.837,16.869c-2.109,2.571-5.902,2.945-8.473,0.837l-24.612-20.188
	c-2.909-2.387-4.754-5.618-5.473-9.07l-0.017-0.014c-0.213-1.035-0.311-2.089-0.318-3.145c-0.763,2.555-0.885,5.241-0.355,7.815
	l0.017,0.014c0.718,3.453,2.563,6.683,5.473,9.07l29.267,24.006L550.465,85.664z"/><path fill="#5C92FF" d="M581.963,132.115c-2.793,3.406-6.707,5.349-10.757,5.75c-4.068,0.386-8.268-0.741-11.674-3.535
	l-29.284-24.02l20.216-24.646l29.284,24.02c4.929,4.043,6.818,10.432,5.33,16.225C584.525,128.119,583.493,130.249,581.963,132.115z
	"/><path fill="#5088FA" d="M585.078,125.909c0.853-3.317,0.592-6.828-0.707-9.984c-0.015,1.254-0.17,2.509-0.485,3.737
	c-0.553,2.21-1.585,4.34-3.115,6.206c-2.793,3.406-6.707,5.349-10.757,5.75c-4.067,0.386-8.268-0.741-11.673-3.535l-25.508-20.923
	l-2.584,3.15l29.284,24.02c3.406,2.794,7.606,3.921,11.674,3.535c4.05-0.4,7.963-2.344,10.756-5.75
	C583.493,130.249,584.525,128.119,585.078,125.909z"/><path fill="#A7A9AC" d="M518.197,64.932c0.322-0.819-0.012-1.656-0.789-2.053c-2.95-1.506-6.438-1.74-9.589-0.77
	c-0.779,0.24-1.231,1.253-0.918,1.998c0.341,0.813,1.166,1.175,1.998,0.919c0.171-0.052,0.342-0.102,0.514-0.147
	c0.008-0.002,0.029-0.007,0.048-0.012c0.029-0.005,0.177-0.039,0.19-0.041c0.332-0.065,0.668-0.115,1.004-0.15
	c0.337-0.034,0.675-0.054,1.014-0.058c0.088-0.001,0.177,0.002,0.265,0c0.171,0.01,0.342,0.019,0.513,0.035
	c0.674,0.062,1.335,0.189,1.988,0.363c0.078,0.026,0.157,0.05,0.235,0.077c0.169,0.058,0.336,0.119,0.501,0.185
	c0.332,0.132,0.655,0.281,0.973,0.443C516.87,66.092,517.901,65.685,518.197,64.932z"/><path fill="#A7A9AC" d="M562.261,98.682c-12.482-10.197-24.963-20.394-37.445-30.591c-1.549-1.266-3.525,1.135-1.973,2.403
	c12.481,10.197,24.963,20.394,37.445,30.591C561.837,102.351,563.813,99.95,562.261,98.682z"/><path fill="#A7A9AC" d="M566.991,102.707c-1.546-1.27-3.522,1.131-1.973,2.403C566.565,106.379,568.54,103.978,566.991,102.707z"/><path fill="#FFBC8F" d="M637.248,177.864l21.423,19.55l-23.214,25.44c-2.308,2.529-5.332,4.05-8.503,4.538l-0.013,0.015
	c-4.177,0.633-8.593-0.534-11.969-3.615c-2.961-2.702-4.539-6.35-4.695-10.064c-0.184-3.713,1.056-7.462,3.757-10.423
	L637.248,177.864z"/><path fill="#F5AB7B" d="M637.248,177.865l-1.497,1.64l14.663,13.381c2.234,2.039,2.393,5.504,0.354,7.738l-19.522,21.394
	c-2.308,2.529-5.332,4.05-8.503,4.538l-0.013,0.014c-0.95,0.144-1.913,0.182-2.872,0.139c2.285,0.816,4.72,1.056,7.083,0.697
	l0.013-0.015c3.171-0.487,6.195-2.009,8.504-4.538l23.214-25.44L637.248,177.865z"/><path fill="#EB9C68" d="M680.962,151.473c2.961,2.701,4.539,6.35,4.708,10.049c0.156,3.714-1.07,7.476-3.771,10.437l-23.228,25.456
	l-21.423-19.55l23.228-25.455c3.91-4.285,9.805-5.695,14.997-4.065C677.454,148.953,679.34,149.993,680.962,151.473z"/><path fill="#E6925C" d="M675.473,148.345c-2.974-0.933-6.176-0.865-9.105,0.164c1.138,0.074,2.271,0.274,3.372,0.62
	c1.981,0.608,3.867,1.648,5.489,3.128c2.96,2.701,4.539,6.35,4.708,10.049c0.155,3.714-1.07,7.476-3.771,10.437l-20.233,22.173
	l2.738,2.499l23.228-25.456c2.701-2.96,3.927-6.723,3.771-10.437c-0.169-3.699-1.748-7.348-4.708-10.049
	C679.34,149.993,677.454,148.953,675.473,148.345z"/><path fill="#A7A9AC" d="M616.865,206.188c-0.729-0.331-1.505-0.068-1.903,0.619c-1.51,2.608-1.889,5.765-1.159,8.676
	c0.18,0.719,1.08,1.179,1.771,0.93c0.755-0.271,1.123-1.004,0.93-1.771c-0.039-0.157-0.076-0.315-0.109-0.474
	c-0.002-0.008-0.005-0.027-0.009-0.044c-0.003-0.027-0.027-0.163-0.029-0.175c-0.043-0.305-0.073-0.612-0.088-0.92
	c-0.015-0.308-0.017-0.616-0.004-0.924c0.003-0.08,0.01-0.161,0.013-0.241c0.018-0.155,0.034-0.31,0.056-0.464
	c0.088-0.609,0.236-1.203,0.426-1.788c0.028-0.07,0.053-0.141,0.081-0.21c0.06-0.151,0.125-0.3,0.192-0.447
	c0.135-0.295,0.287-0.582,0.449-0.863C617.854,207.45,617.534,206.493,616.865,206.188z"/><path fill="#A7A9AC" d="M649.641,167.771c-9.863,10.852-19.726,21.703-29.589,32.555c-1.224,1.347,0.862,3.258,2.089,1.908
	c9.863-10.852,19.726-21.703,29.589-32.555C652.954,168.332,650.868,166.421,649.641,167.771z"/><path fill="#A7A9AC" d="M653.525,163.665c-1.228,1.344,0.859,3.254,2.089,1.908C656.841,164.23,654.754,162.319,653.525,163.665z"/><path fill="#E06BAE" d="M526.682,199.948c1.873,4.756-5.806,12.235-17.153,16.705s-22.064,4.238-23.938-0.518
	c-0.28-0.71-2.11-5.357-2.11-5.357s9.609-7.545,19.263-11.348c9.711-3.825,21.842-4.801,21.842-4.801
	S526.411,199.262,526.682,199.948z"/><path fill="#D1589D" d="M523.694,194.713c0.49,1.243,1.669,4.236,1.882,4.777c1.873,4.756-5.806,12.235-17.153,16.705
	c-8.086,3.185-15.848,3.981-20.322,2.455c4.211,2.106,12.629,1.469,21.428-1.997c11.347-4.47,19.027-11.949,17.153-16.705
	c-0.27-0.686-2.096-5.32-2.096-5.32S524.267,194.654,523.694,194.713z"/><path fill="#FF8FCF" d="M524.551,194.541c1.874,4.756-5.806,12.235-17.153,16.705c-11.347,4.47-22.064,4.238-23.938-0.519
	c-1.874-4.756,5.806-12.235,17.153-16.705C511.961,189.553,522.678,189.785,524.551,194.541z"/><path fill="#FFA8D9" d="M486.059,211.313c-1.874-4.756,5.806-12.235,17.153-16.705c6.695-2.637,13.169-3.636,17.739-3.036
	c-4.472-1.532-12.243-0.738-20.337,2.45c-11.347,4.47-19.027,11.949-17.153,16.705c0.768,1.95,3.024,3.138,6.199,3.555
	C487.862,213.667,486.596,212.677,486.059,211.313z"/><path fill="#FA82C7" d="M518.785,191.051c1.433,0.62,2.447,1.523,2.913,2.706c1.873,4.756-5.806,12.235-17.153,16.705
	c-6.91,2.722-13.583,3.697-18.171,2.972c4.331,1.875,12.5,1.171,21.025-2.187c11.347-4.47,19.027-11.949,17.153-16.705
	C523.819,192.681,521.73,191.517,518.785,191.051z"/><polygon fill="#E06BAE" points="516.506 194.195 494.116 208.976 490.781 208.656 512.278 194.492"/><path fill="#E06BAE" d="M806.246,169.661c2.487,4.466-4.135,12.896-14.79,18.829c-10.655,5.933-21.309,7.122-23.796,2.656
	c-0.371-0.666-2.801-5.031-2.801-5.031s8.526-8.751,17.591-13.799c9.119-5.077,21.014-7.651,21.014-7.651
	S805.887,169.017,806.246,169.661z"/><path fill="#D1589D" d="M802.591,164.867c0.65,1.168,2.215,3.978,2.498,4.486c2.487,4.466-4.135,12.896-14.79,18.829
	c-7.592,4.227-15.181,6.044-19.818,5.124c4.453,1.53,12.712-0.216,20.975-4.817c10.655-5.933,17.277-14.363,14.79-18.829
	c-0.359-0.644-2.782-4.995-2.782-4.995S803.152,164.733,802.591,164.867z"/><ellipse cx="784.126" cy="175.326" fill="#FF8FCF" rx="22.082" ry="9.256" transform="rotate(-29.109 784.115 175.299)"/><path fill="#FFA8D9" d="M767.486,186.305c-2.487-4.466,4.135-12.897,14.79-18.829c6.287-3.501,12.572-5.348,17.18-5.359
	c-4.635-0.926-12.233,0.89-19.833,5.122c-10.655,5.933-17.277,14.363-14.79,18.829c1.019,1.831,3.413,2.71,6.615,2.702
	C769.585,188.398,768.198,187.585,767.486,186.305z"/><path fill="#FA82C7" d="M797.241,161.887c1.503,0.425,2.627,1.185,3.245,2.296c2.487,4.466-4.135,12.896-14.79,18.829
	c-6.489,3.613-12.974,5.463-17.618,5.351c4.541,1.285,12.545-0.494,20.55-4.952c10.655-5.933,17.277-14.363,14.79-18.829
	C802.446,162.837,800.222,161.959,797.241,161.887z"/><polygon fill="#E06BAE" points="795.398 165.306 775.163 182.922 771.815 183.046 791.247 166.16"/><path fill="#94B8FF" d="M628.184,289.304c-0.202,9.569-8.392,17.156-18.292,16.947c-9.9-0.209-17.762-8.135-17.56-17.704
	c0.202-9.568,8.391-17.156,18.292-16.947C620.524,271.81,628.386,279.736,628.184,289.304z"/><path fill="#A8C5FF" d="M594.061,291.388c0.202-9.569,8.392-17.156,18.292-16.947c5.841,0.123,10.972,2.935,14.156,7.183
	c-2.801-5.798-8.823-9.875-15.885-10.024c-9.9-0.209-18.09,7.378-18.292,16.947c-0.083,3.923,1.191,7.568,3.404,10.52
	C594.61,296.738,594.003,294.131,594.061,291.388z"/><path fill="#7FA7F5" d="M625.079,279.2c0.854,2.083,1.304,4.36,1.253,6.74c-0.202,9.569-8.392,17.156-18.292,16.947
	c-6.029-0.127-11.299-3.12-14.455-7.599c2.581,6.293,8.869,10.807,16.307,10.964c9.9,0.209,18.09-7.378,18.292-16.947
	C628.263,285.563,627.105,282.076,625.079,279.2z"/><rect width="3.062" height="23.421" x="609.092" y="277.491" fill="#4270CC" transform="rotate(46.945 610.61 289.188)"/><path fill="#EB8F52" d="M704.282,410.523c-0.515,5.42-11.416,8.818-24.348,7.589c-12.932-1.229-22.997-6.62-22.482-12.04
	c0.077-0.809,0.58-6.105,0.58-6.105s12.765-2.529,23.767-1.483c11.067,1.052,23.058,5.978,23.058,5.978
	S704.357,409.741,704.282,410.523z"/><path fill="#E08241" d="M703.971,404.11c-0.135,1.417-0.459,4.828-0.518,5.444c-0.515,5.42-11.416,8.818-24.348,7.589
	c-9.215-0.876-16.97-3.866-20.483-7.472c2.983,4.031,11.284,7.488,21.312,8.441c12.932,1.229,23.833-2.168,24.348-7.589
	c0.075-0.782,0.576-6.063,0.576-6.063S704.543,404.331,703.971,404.11z"/><ellipse cx="681.453" cy="402.134" fill="#FFBC8F" rx="9.859" ry="23.52" transform="rotate(-84.572 681.43 402.148)"/><path fill="#FFC8A3" d="M660.223,401.718c0.515-5.42,11.416-8.818,24.348-7.588c7.63,0.725,14.26,2.9,18.31,5.674
	c-3.508-3.612-11.27-6.607-20.495-7.484c-12.932-1.229-23.833,2.168-24.348,7.588c-0.211,2.222,1.358,4.439,4.172,6.366
	C660.801,404.823,660.075,403.272,660.223,401.718z"/><path fill="#FAAE7C" d="M701.076,398.264c1.062,1.281,1.589,2.626,1.461,3.974c-0.515,5.42-11.416,8.818-24.348,7.588
	c-7.875-0.749-14.683-3.042-18.689-5.944c3.208,3.87,11.305,7.142,21.021,8.066c12.932,1.229,23.832-2.168,24.348-7.588
	C705.069,402.241,703.648,400.128,701.076,398.264z"/><polygon fill="#EB8F52" points="697.394 400.15 669.003 403.386 665.99 401.473 693.236 398.393"/><path fill="#6A93E6" d="M770.041,88.219c-2.215,4.58-12.869,4.009-23.797-1.275c-10.927-5.285-17.99-13.282-15.775-17.862
	c0.33-0.683,2.495-5.159,2.495-5.159s12.004,1.938,21.302,6.435c9.351,4.522,18.253,12.739,18.253,12.739
	S770.361,87.558,770.041,88.219z"/><path fill="#4E77CC" d="M771.855,82.501c-0.579,1.197-1.973,4.079-2.225,4.6c-2.215,4.58-12.869,4.009-23.796-1.275
	c-7.786-3.766-13.607-8.908-15.51-13.21c1.302,4.502,7.448,10.23,15.922,14.328c10.927,5.285,21.581,5.856,23.796,1.275
	c0.319-0.661,2.478-5.123,2.478-5.123S772.285,82.88,771.855,82.501z"/><path fill="#8AB1FF" d="M772.56,83.012c-2.215,4.58-12.869,4.009-23.797-1.275c-10.927-5.285-17.99-13.282-15.775-17.862
	c2.215-4.58,12.869-4.009,23.797,1.275C767.712,70.434,774.774,78.431,772.56,83.012z"/><path fill="#A8C5FF" d="M734.313,66.171c2.215-4.58,12.869-4.009,23.797,1.275c6.447,3.118,11.547,7.18,14.192,10.928
	c-1.897-4.305-7.722-9.454-15.517-13.224c-10.927-5.285-21.581-5.855-23.797-1.275c-0.908,1.878-0.255,4.33,1.583,6.934
	C733.808,69.078,733.678,67.484,734.313,66.171z"/><path fill="#7FA7F5" d="M771.221,76.438c0.513,1.467,0.537,2.818-0.014,3.957c-2.215,4.58-12.869,4.009-23.796-1.275
	c-6.655-3.218-11.871-7.442-14.437-11.288c1.551,4.433,7.579,9.935,15.789,13.905c10.927,5.285,21.581,5.856,23.797,1.275
	C773.425,81.221,772.868,78.907,771.221,76.438z"/><polygon fill="#4E77CC" points="767.383 76.892 741.46 70.488 739.444 67.832 764.312 74"/><rect width="191.38" height="10.258" x="565.602" y="540.93" fill="#3658D1"/><path fill="#3658D1" d="M745.211,876.245c-59.72,10.681-115.712,10.613-166.158-0.143c-8.496-1.812-14.751-9.05-14.751-17.737
	v-13.657h195.467l0.001,13.831C759.769,867.156,753.693,874.728,745.211,876.245z"/><path fill="#5C92FF" d="M758.617,854.197c-9.397,2.335-20.749,4.056-33.357,5.311c-51.713,5.195-123.593,1.926-159.402-5.311
	c-35.808-37.268-40.945-69.253-35.108-105.558c0.467-2.802,0.963-5.633,1.547-8.492c0.963-4.757,2.072-9.631,3.298-14.592
	c1.605-6.596,3.443-13.366,5.37-20.399c6.625-23.989,14.475-50.692,19.524-82.035c1.08-6.566,2.014-13.366,2.802-20.37
	c0.467-4.232,0.905-8.522,1.225-12.9c0.234-2.801,0.438-5.632,0.584-8.492c0.233-3.619,0.379-7.325,0.496-11.061
	c0.175-4.115,0.262-8.346,0.262-12.637c56.5,0.263,134.012-0.321,192.759,0c0,8.172,0.263,16.051,0.7,23.698
	c0.175,2.86,0.38,5.691,0.613,8.492c0.35,4.378,0.788,8.697,1.255,12.9c0.759,7.033,1.692,13.804,2.743,20.37
	c5.049,31.372,12.899,58.046,19.524,82.035c1.926,7.004,3.765,13.804,5.399,20.399c1.225,4.961,2.335,9.835,3.298,14.592
	c0.584,2.86,1.08,5.691,1.547,8.492C799.503,784.944,794.396,816.929,758.617,854.197z"/><path fill="#3658D1" d="M759.038,469.87H563.077c-6.951,0-12.585,5.634-12.585,12.585v36.761c0,6.95,5.634,12.585,12.585,12.585
	h195.961c6.95,0,12.585-5.634,12.585-12.585v-36.761C771.622,475.504,765.988,469.87,759.038,469.87z"/><path fill="#FFF" d="M788.852,725.555H535.595c1.605-6.596,3.443-13.366,5.37-20.399c6.625-23.989,14.475-50.692,19.524-82.035
	c1.08-6.566,2.014-13.366,2.802-20.37h197.895c0.759,7.033,1.692,13.804,2.743,20.37c5.049,31.372,12.899,58.046,19.524,82.035
	C785.379,712.159,787.217,718.959,788.852,725.555z"/><path fill="#E6E7E8" d="M758.609,854.209c-9.398,2.328-20.756,4.045-33.338,5.312c104.284-62.007,22.227-242.532,7.217-270.337
	c-15.733-29.144-166.845-18.847-166.845-18.847l-0.041-0.041c0.164-4.126,0.245-8.334,0.245-12.624
	c56.505,0.245,134.011-0.327,192.762,0C758.609,708.881,842.161,767.143,758.609,854.209z"/><path fill="#5C92FF" d="M756.53,559.508H565.585c-3.135,0-5.676-2.542-5.676-5.677l0,0c0-3.135,2.542-5.677,5.676-5.677H756.53
	c3.135,0,5.677,2.541,5.677,5.677l0,0C762.207,556.966,759.665,559.508,756.53,559.508z"/><path fill="#5C92FF" d="M756.53,543.154H565.585c-3.135,0-5.676-2.542-5.676-5.676l0,0c0-3.135,2.542-5.677,5.676-5.677H756.53
	c3.135,0,5.677,2.542,5.677,5.677l0,0C762.207,540.612,759.665,543.154,756.53,543.154z"/><path fill="#FFF" d="M610.959,835.099h-33.475c-1.017,0-1.842-0.824-1.842-1.842v-24.538c0-1.017,0.825-1.842,1.842-1.842h33.475
	c1.017,0,1.842,0.824,1.842,1.842v24.538C612.8,834.274,611.976,835.099,610.959,835.099z"/><path fill="#FFF" d="M730.08,826.197H627.895c-2.565,0-4.645-2.08-4.645-4.645l0,0c0-2.565,2.08-4.645,4.645-4.645H730.08
	c2.565,0,4.645,2.08,4.645,4.645l0,0C734.725,824.117,732.645,826.197,730.08,826.197z"/><path fill="#5C92FF" d="M700.023,657.452h-35.055v-35.055c0-3.695-3.005-6.7-6.701-6.7c-3.695,0-6.701,3.005-6.701,6.7v35.055
	h-35.055c-3.695,0-6.701,3.005-6.701,6.7c0,3.695,3.005,6.7,6.701,6.7h35.055v35.055c0,3.695,3.005,6.7,6.701,6.7
	c3.695,0,6.701-3.005,6.701-6.7v-35.055h35.055c3.694,0,6.699-3.006,6.699-6.7C706.722,660.457,703.717,657.452,700.023,657.452z"/><path fill="#FFF" d="M793.696,748.639H530.75c0.467-2.802,0.963-5.633,1.547-8.492h259.852
	C792.733,743.007,793.229,745.837,793.696,748.639z"/><path fill="#FFF" d="M759.93,589.85H564.516c0.234-2.801,0.438-5.632,0.584-8.492h194.217
	C759.493,584.218,759.697,587.049,759.93,589.85z"/><path fill="#5476EB" d="M584.705,480.701h-15.131c-2.281,0-4.466,2.006-4.36,4.36c0.106,2.363,1.916,4.36,4.36,4.36h15.131
	c2.281,0,4.466-2.006,4.36-4.36C588.959,482.699,587.15,480.701,584.705,480.701z"/><path fill="#5476EB" d="M669.782,480.701h-63.379c-5.612,0-5.621,8.721,0,8.721h63.379
	C675.393,489.422,675.403,480.701,669.782,480.701z"/><path fill="#FFF" d="M617.876,852.985L617.876,852.985c-0.002-0.758,0.61-1.373,1.368-1.375l63.531-0.16l0.007,2.744
	l-63.531,0.16C618.494,854.355,617.878,853.742,617.876,852.985z"/><path fill="#FA69BC" d="M949.522,870.339l-0.09-35.748c-0.01-4.082-3.083-7.383-6.863-7.374c-3.78,0.009-6.836,3.327-6.825,7.409
	l0.022,8.883l-38.516,0.097l0.045,17.982l38.516-0.097l0.022,8.883c0.01,4.082,3.083,7.383,6.863,7.374
	C946.476,877.737,949.532,874.421,949.522,870.339z"/><path fill="#E6E6E6" d="M935.934,832.938c-0.116,0.544-0.193,1.105-0.191,1.688l0.017,6.722l0.196,0L935.934,832.938z"/><path fill="#E6E6E6" d="M949.522,870.339l-0.001-0.474c-0.701,3.267-3.394,5.712-6.634,5.721c-3.78,0.01-6.853-3.292-6.863-7.374
	l-0.023-8.883l-38.515,0.097l-0.04-15.821h-0.196l0.045,17.982l38.516-0.097l0.022,8.883c0.01,4.082,3.083,7.383,6.863,7.374
	C946.476,877.737,949.532,874.421,949.522,870.339z"/><path fill="#FA69BC" d="M909.421,880.052l-0.137-54.436c-0.005-1.653,1.332-2.997,2.986-3.001l0,0
	c1.653-0.004,2.997,1.333,3.001,2.986l0.137,54.436c0.004,1.653-1.333,2.997-2.986,3.001l0,0
	C910.768,883.042,909.425,881.705,909.421,880.052z"/><path fill="#FFDEF1" d="M909.282,825.076l-196.149,0.495l-19.795,14.595l-9.821,0.024l0.007,2.87l0,0
	c-3.334,0.009-6.03,2.718-6.022,6.052l0.017,6.562c0.008,3.334,2.718,6.03,6.052,6.022l0,0l0.009,3.314l10.106-0.026l19.586,15.563
	l196.149-0.495L909.282,825.076z"/><path fill="#FA69BC" d="M714.995,875.587l-19.585-15.563l-6.887,0.018l-0.009-3.315l-4.956,0.013
	c-0.369,0.001-0.619-0.171-0.764-0.315c-0.144-0.144-0.318-0.393-0.318-0.763l-0.017-6.563c-0.001-0.545,0.373-0.911,0.746-1.032
	c0.105-0.034,0.217-0.051,0.333-0.051l4.956-0.013l-0.007-2.87l6.487-0.015l19.795-14.595l98.009-0.248
	c-7.023,17.072,7.507,36.993-0.506,45.066L714.995,875.587z"/><rect width="3.236" height="17.826" x="876.324" y="862.306" fill="#FFF" transform="translate(-2.176 2.198)"/><rect width="3.25" height="17.826" x="850.394" y="862.371" fill="#FFF" transform="translate(-2.196 2.153)"/><rect width="3.251" height="17.826" x="824.479" y="862.436" fill="#FFF" transform="translate(-2.256 2.144)"/><rect width="3.236" height="17.826" x="798.563" y="862.502" fill="#FFF" transform="translate(-2.117 1.949)"/><rect width="3.236" height="17.826" x="772.648" y="862.567" fill="#FFF" transform="translate(-2.267 2.019)"/><rect width="3.236" height="17.826" x="746.733" y="862.633" fill="#FFF" transform="translate(-2.177 1.874)"/><path fill="#E6E7E8" d="M909.403,873.1l-0.121-48.024l-5.07,0.013l0.045,17.632c0.042,16.785-13.53,30.427-30.315,30.469
	l-153.702,0.388c-4.522,0.011-8.914-1.515-12.454-4.328l-14.118-11.218l-10.096,3.664l0.009,3.314l10.106-0.026l19.586,15.563
	l191.08-0.482l5.07-0.013L909.403,873.1z"/><circle cx="376.079" cy="645.681" r="14.625" fill="#BDD3FF"/><path fill="#BDD3FF" d="M822.769,543.89c0-8.077,6.548-14.625,14.625-14.625c8.077,0,14.624,6.547,14.624,14.625
	c0,8.077-6.548,14.624-14.624,14.624C829.316,558.515,822.769,551.967,822.769,543.89z"/><ellipse cx="383.836" cy="480.735" fill="#BDD3FF" rx="14.625" ry="14.624" transform="rotate(-67.5 383.83 480.724)"/><path fill="#BDD3FF" d="M396.728,599.508c0-4.137,3.354-7.491,7.49-7.491c4.137,0,7.491,3.354,7.491,7.491
	c0,4.137-3.354,7.49-7.491,7.49C400.081,606.998,396.728,603.645,396.728,599.508z"/><circle cx="523.144" cy="474.42" r="8.309" fill="#BDD3FF"/></svg>