<svg xmlns="http://www.w3.org/2000/svg" viewBox="0 0 1364 960"><path fill="#DBEFFF" d="M1164.375,377.326c-4.6-33.43-15.761-66.368-32.586-96.59c-90.088-161.37-235.365-60.199-341.097-168.066  c-19.902-15.208-42.099-28.948-65.013-38.805c-54.966-24.467-116.684-23.996-173.228-1.22  C420.534,122.279,422.069,194.96,349.428,270.037c-17.273,17.28-39.455,35.812-69.34,55.946  c-73.265,48.253-79.605,150.594-52.015,227.944c23.09,66.047,72.999,136.245,150.434,149.761  c72.416,4.466,136.308,19.857,202.363,42.45C836.249,851.31,1201.657,649.484,1164.375,377.326z"/><path fill="#90D4FB" d="M1136.669,403.557c-3.473-1.802-7.666-1.477-11.468-0.554c-6.065,1.471-11.277,4.092-16.585,7.077  c-0.226-0.006-0.467,0.036-0.718,0.154c-9.219,4.312-17.509,10.507-24.483,17.903c-1.538,1.631-3.023,3.326-4.446,5.076  c2.351-7.736,2.573-16.117,0.573-23.953c-0.828-3.245-2.372-6.759-5.517-7.909c-3.674-1.344-7.877,1.484-9.209,5.163  c-1.332,3.679-0.459,7.794,0.952,11.443c2.635,6.805,6.673,12.249,11.074,17.999c-2.819,3.8-5.282,7.86-7.13,12.21  c-2.799,6.587-4.216,13.437-4.87,20.404c-1.341-8.231-5.029-16.075-10.554-22.326c-2.218-2.509-5.195-4.931-8.518-4.519  c-3.883,0.482-6.331,4.916-5.837,8.797c0.493,3.881,3.148,7.144,6.069,9.746c5.599,4.986,11.862,8.016,18.606,11.215  c-0.745,11.521,0.358,23.309,0.582,34.73c0.071,3.595,0.04,7.164-0.184,10.714c-1.002-9-4.821-17.67-10.811-24.464  c-2.215-2.512-5.189-4.938-8.513-4.53c-3.883,0.476-6.336,4.908-5.848,8.789c0.489,3.882,3.138,7.149,6.057,9.754  c5.72,5.107,12.136,8.169,19.052,11.46c-0.28,3.781-0.799,7.539-1.691,11.28c-1.633,6.841-4.042,13.487-6.838,19.933  c-0.743,1.714-1.52,3.414-2.318,5.104c-0.129-8.211-2.56-16.384-6.988-23.304c-1.805-2.82-4.373-5.672-7.72-5.776  c-3.911-0.123-7.013,3.883-7.122,7.793c-0.11,3.911,2.01,7.544,4.497,10.565c4.593,5.582,10.077,9.461,15.994,13.497  c-5.183,10.519-11.368,20.569-18.151,30.135c1.975-8.34,1.5-17.253-1.405-25.32c-1.135-3.151-3.007-6.501-6.247-7.345  c-3.786-0.986-7.699,2.231-8.673,6.02c-0.975,3.789,0.287,7.801,2.041,11.299c3.33,6.636,7.973,11.729,13.002,17.135  c-0.909,1.261-1.825,2.516-2.754,3.76c-5.097,6.827-10.521,13.449-16.294,19.747c1.799-8.152,1.272-16.813-1.558-24.67  c-1.135-3.151-3.007-6.501-6.247-7.345c-3.786-0.986-7.699,2.231-8.673,6.02c-0.974,3.789,0.287,7.802,2.042,11.299  c3.238,6.454,7.718,11.448,12.586,16.69c-6.667,7.101-13.794,13.764-21.42,19.804c-1.589,1.258,0.472,3.635,2.057,2.379  c7.701-6.098,14.885-12.843,21.612-20.017c7.412,4.881,16.321,7.492,25.225,7.361c3.365-0.05,7.162-0.733,9.033-3.526  c2.187-3.263,0.424-8.012-2.851-10.166c-3.274-2.154-7.5-2.265-11.398-1.741c-6.306,0.847-11.862,2.962-17.57,5.427  c3.97-4.366,7.78-8.875,11.436-13.488c2.418-3.051,4.77-6.158,7.056-9.316c7.372,4.867,16.22,7.477,25.055,7.364  c3.349-0.044,7.126-0.719,8.983-3.506c2.169-3.256,0.407-8.005-2.856-10.164c-3.263-2.159-7.468-2.277-11.345-1.761  c-6.512,0.866-12.218,3.099-18.123,5.671c6.932-9.81,13.178-20.113,18.482-30.881c7.964,3.511,16.972,4.636,25.549,3.144  c3.299-0.574,6.922-1.839,8.313-4.885c1.625-3.559-0.868-7.969-4.432-9.582c-3.564-1.614-7.734-1.065-11.482,0.06  c-6.073,1.822-11.202,4.781-16.427,8.11c5.412-11.438,9.979-23.798,10.811-36.463c0.017-0.263,0.023-0.528,0.039-0.792  c8.461,2.421,17.649,2.271,26.019-0.46c3.184-1.039,6.589-2.809,7.53-6.022c1.101-3.755-1.996-7.763-5.754-8.852  c-3.757-1.088-7.806,0.051-11.355,1.699c-6.253,2.903-11.21,6.979-16.333,11.439c0.563-14.655-1.575-29.477-0.509-44.089  c8.581,2.553,17.939,2.449,26.452-0.329c3.184-1.038,6.59-2.808,7.531-6.022c1.101-3.754-1.997-7.762-5.755-8.851  c-3.757-1.088-7.807,0.05-11.355,1.698c-6.42,2.981-11.475,7.199-16.747,11.8c0.331-3.647,0.875-7.279,1.731-10.892  c1.733-7.315,5.016-14.188,9.371-20.392c7.741,4.896,17.021,7.327,26.168,6.825c3.344-0.184,7.09-1.017,8.828-3.88  c2.03-3.344,0.071-8.016-3.281-10.035c-3.351-2.02-7.557-1.962-11.41-1.283c-7.067,1.244-13.103,4.075-19.475,7.214  c7.235-9.866,17.186-17.944,27.898-23.25c7.513,3.554,16.032,4.97,24.288,3.988c3.326-0.396,7.011-1.466,8.563-4.433  C1142.396,409.896,1140.142,405.359,1136.669,403.557z"/><ellipse cx="682" cy="843.766" fill="#EAF2F9" rx="534" ry="60.696"/><path fill="#106DAD" d="M607.986,215.729h-36.577c0-20.526-16.639-37.164-37.164-37.164c-20.526,0-37.164,16.639-37.164,37.164  h-36.576c-5.957,0-10.785,4.828-10.785,10.785v30.55c0,2.703,2.191,4.893,4.893,4.893h159.265c2.703,0,4.893-2.191,4.893-4.893  v-30.55C618.771,220.557,613.943,215.729,607.986,215.729z M534.246,208.553c-4.86,0-8.8-3.94-8.8-8.8c0-4.86,3.94-8.8,8.8-8.8  c4.86,0,8.8,3.94,8.8,8.8C543.046,204.613,539.106,208.553,534.246,208.553z"/><path fill="#1D74BC" d="M729.209,233.634H339.283c-7.723,0-13.985,6.261-13.985,13.985v569.287c0,7.724,6.261,13.985,13.985,13.985  h389.926c7.723,0,13.984-6.261,13.984-13.985V247.619C743.193,239.895,736.932,233.634,729.209,233.634z"/><path fill="#FFF" d="M720.393,245.05H348.099c-6.288,0-11.385,5.097-11.385,11.385V808.09c0,6.288,5.097,11.385,11.385,11.385  h372.292c6.289,0,11.386-5.097,11.386-11.386V256.434C731.777,250.147,726.68,245.05,720.393,245.05z"/><path fill="#DAEAF7" d="M435.366,461.726h-36.332c-6.543,0-11.847,5.304-11.847,11.847v36.332c0,6.543,5.304,11.847,11.847,11.847  h36.332c6.543,0,11.847-5.304,11.847-11.847v-36.332C447.214,467.03,441.909,461.726,435.366,461.726z"/><path fill="#DAEAF7" d="M678.145,476.47H494.077c-1.745,0-3.159,1.414-3.159,3.159s1.414,3.159,3.159,3.159h184.068  c1.745,0,3.159-1.415,3.159-3.159S679.89,476.47,678.145,476.47z"/><path fill="#DAEAF7" d="M634.007,500.691h-95.792c-1.745,0-3.159,1.414-3.159,3.159s1.414,3.159,3.159,3.159h95.792  c1.745,0,3.159-1.415,3.159-3.159S635.752,500.691,634.007,500.691z"/><path fill="#FFF" d="M431.014,473.329c-5.966,8.332-11.932,16.665-17.898,24.996c-4.153-3.898-8.305-7.796-12.458-11.694  c-2.501,3.183-5.002,6.367-7.504,9.55c7.042,4.656,14.083,9.313,21.125,13.969c8.989-9.658,17.978-19.317,26.967-28.976  C437.836,478.559,434.425,475.944,431.014,473.329z"/><path fill="#DAEAF7" d="M435.366,544.921h-36.332c-6.543,0-11.847,5.304-11.847,11.847V593.1c0,6.543,5.304,11.847,11.847,11.847  h36.332c6.543,0,11.847-5.304,11.847-11.847v-36.332C447.214,550.225,441.909,544.921,435.366,544.921z"/><path fill="#DAEAF7" d="M678.145,559.664H494.077c-1.745,0-3.159,1.414-3.159,3.159s1.414,3.159,3.159,3.159h184.068  c1.745,0,3.159-1.414,3.159-3.159S679.89,559.664,678.145,559.664z"/><path fill="#DAEAF7" d="M634.007,583.885h-95.792c-1.745,0-3.159,1.414-3.159,3.159s1.414,3.159,3.159,3.159h95.792  c1.745,0,3.159-1.414,3.159-3.159S635.752,583.885,634.007,583.885z"/><path fill="#FFF" d="M431.014,556.524c-5.966,8.332-11.932,16.665-17.898,24.996c-4.153-3.898-8.305-7.796-12.458-11.694  c-2.501,3.183-5.002,6.367-7.504,9.55c7.042,4.656,14.083,9.313,21.125,13.969c8.989-9.658,17.978-19.317,26.967-28.976  C437.836,561.753,434.425,559.138,431.014,556.524z"/><path fill="#DAEAF7" d="M435.366,628.116h-36.332c-6.543,0-11.847,5.304-11.847,11.847v36.332c0,6.543,5.304,11.847,11.847,11.847  h36.332c6.543,0,11.847-5.304,11.847-11.847v-36.332C447.214,633.42,441.909,628.116,435.366,628.116z"/><path fill="#DAEAF7" d="M678.145,642.859H494.077c-1.745,0-3.159,1.414-3.159,3.159s1.414,3.159,3.159,3.159h184.068  c1.745,0,3.159-1.414,3.159-3.159S679.89,642.859,678.145,642.859z"/><path fill="#DAEAF7" d="M634.007,667.08h-95.792c-1.745,0-3.159,1.414-3.159,3.159s1.414,3.159,3.159,3.159h95.792  c1.745,0,3.159-1.414,3.159-3.159S635.752,667.08,634.007,667.08z"/><path fill="#FFF" d="M431.014,639.718c-5.966,8.332-11.932,16.665-17.898,24.996c-4.153-3.898-8.305-7.796-12.458-11.694  c-2.501,3.183-5.002,6.367-7.504,9.55c7.042,4.656,14.083,9.313,21.125,13.969c8.989-9.658,17.978-19.317,26.967-28.976  C437.836,644.948,434.425,642.333,431.014,639.718z"/><path fill="#DAEAF7" d="M435.366,711.31h-36.332c-6.543,0-11.847,5.304-11.847,11.847v36.332c0,6.543,5.304,11.847,11.847,11.847  h36.332c6.543,0,11.847-5.304,11.847-11.847v-36.332C447.214,716.615,441.909,711.31,435.366,711.31z"/><path fill="#DAEAF7" d="M678.145,726.054H494.077c-1.745,0-3.159,1.414-3.159,3.159s1.414,3.159,3.159,3.159h184.068  c1.745,0,3.159-1.414,3.159-3.159S679.89,726.054,678.145,726.054z"/><path fill="#DAEAF7" d="M634.007,750.275h-95.792c-1.745,0-3.159,1.414-3.159,3.159s1.414,3.159,3.159,3.159h95.792  c1.745,0,3.159-1.414,3.159-3.159S635.752,750.275,634.007,750.275z"/><path fill="#FFF" d="M431.014,722.913c-5.966,8.332-11.932,16.665-17.898,24.996c-4.153-3.898-8.305-7.796-12.458-11.694  c-2.501,3.183-5.002,6.367-7.504,9.55c7.042,4.656,14.083,9.313,21.125,13.969c8.989-9.658,17.978-19.317,26.967-28.976  C437.836,728.143,434.425,725.528,431.014,722.913z"/><path fill="#EBEDF7" d="M720.393,245.05C706.224,625.241,568.6,796.449,336.714,808.09c0,6.288,5.097,11.385,11.385,11.385h372.292  c6.289,0,11.386-5.097,11.386-11.386V256.434C731.777,250.147,726.68,245.05,720.393,245.05z"/><path fill="#106DAD" d="M612.597,234.354v26.758c0,4.989-4.044,9.034-9.034,9.034H464.928c-4.989,0-9.033-4.044-9.033-9.033v-26.758  h-4.633v27.616c0,7.074,5.735,12.809,12.808,12.809h140.351c7.074,0,12.809-5.735,12.809-12.809v-27.616H612.597z"/><path fill="#106DAD" d="M626.448,230.63H442.044c-4.816,0-8.72,3.904-8.72,8.72c0,4.816,3.905,8.721,8.72,8.721h184.404  c4.816,0,8.72-3.905,8.72-8.721C635.168,234.534,631.264,230.63,626.448,230.63z"/><circle cx="439.125" cy="362.464" r="55.697" fill="#F76A78"/><path fill="#FFF" d="M410.21,355.298h20.351v-17.962c0-3.958,3.208-7.166,7.166-7.166c3.958,0,7.166,3.208,7.166,7.166v17.962  h20.351c3.957,0,7.166,3.208,7.166,7.166c0,3.957-3.208,7.166-7.166,7.166h-20.351v17.962c0,3.958-3.208,7.166-7.166,7.166  c-3.957,0-7.166-3.208-7.166-7.166V369.63H410.21c-3.958,0-7.166-3.208-7.166-7.166C403.044,358.507,406.252,355.298,410.21,355.298  z"/><path fill="#DAEAF7" d="M549.759,340.757h132.676c1.452,0,2.629-1.177,2.629-2.629c0-1.452-1.177-2.629-2.629-2.629H549.759  c-1.452,0-2.63,1.177-2.63,2.629C547.129,339.58,548.306,340.757,549.759,340.757z"/><path fill="#DAEAF7" d="M682.434,364.423H549.759c-1.452,0-2.63,1.177-2.63,2.629c0,1.452,1.177,2.63,2.63,2.63h132.676  c1.452,0,2.629-1.177,2.629-2.63C685.064,365.6,683.886,364.423,682.434,364.423z"/><path fill="#DAEAF7" d="M664.564,393.347h-96.935c-1.452,0-2.63,1.177-2.63,2.629c0,1.452,1.177,2.63,2.63,2.63h96.935  c1.452,0,2.629-1.177,2.629-2.63C667.193,394.525,666.016,393.347,664.564,393.347z"/><path fill="#FFF" d="M918.799,713.219v97.032c0,5.454-1.956,10.829-5.852,14.645c-0.334,0.334-0.684,0.652-1.049,0.97  c-5.979,5.104-12.769,5.073-14.423,5.009c-40.597,0.016-81.194,0.016-121.79,0.016h-9.573c-40.596,0-81.194,0-121.79-0.016  c-1.638,0.064-8.444,0.095-14.423-5.009c-0.366-0.318-0.716-0.636-1.049-0.97c-3.88-3.816-5.852-9.191-5.852-14.645v-97.032  c0-44.524,0.016-89.033,0.032-133.557v-42.823c0-48.532,18.732-95.187,52.253-130.282c0.175-0.175,0.35-0.366,0.525-0.557h190.183  c0.175,0.191,0.35,0.382,0.525,0.557c33.536,35.095,52.252,81.75,52.252,130.282v42.823  C918.783,624.186,918.799,668.694,918.799,713.219z"/><path fill="#11A8EB" d="M856.548,303.635H687.847c-10.647,0-19.278,8.631-19.278,19.278v68.806h207.257v-68.806  C875.825,312.266,867.194,303.635,856.548,303.635z"/><path fill="#11A8EB" d="M884.106,405.673H657.698c-1.15,0-2.083-0.932-2.083-2.083v-11.379c0-1.15,0.932-2.083,2.083-2.083h226.408  c1.15,0,2.083,0.932,2.083,2.083v11.379C886.188,404.74,885.256,405.673,884.106,405.673z"/><path fill="#1D74BC" d="M697.754,317.285c-2.196,0-3.975,1.78-3.975,3.975v54.065c0,2.196,1.78,3.975,3.975,3.975  s3.975-1.78,3.975-3.975V321.26C701.73,319.065,699.95,317.285,697.754,317.285z"/><path fill="#1D74BC" d="M734.328,317.285c-2.196,0-3.975,1.78-3.975,3.975v54.065c0,2.196,1.78,3.975,3.975,3.975  c2.196,0,3.975-1.78,3.975-3.975V321.26C738.303,319.065,736.524,317.285,734.328,317.285z"/><path fill="#1D74BC" d="M770.902,317.285c-2.196,0-3.975,1.78-3.975,3.975v54.065c0,2.196,1.78,3.975,3.975,3.975  c2.196,0,3.975-1.78,3.975-3.975V321.26C774.877,319.065,773.097,317.285,770.902,317.285z"/><path fill="#1D74BC" d="M807.475,317.285c-2.196,0-3.975,1.78-3.975,3.975v54.065c0,2.196,1.78,3.975,3.975,3.975  c2.196,0,3.975-1.78,3.975-3.975V321.26C811.451,319.065,809.671,317.285,807.475,317.285z"/><path fill="#1D74BC" d="M844.049,317.285c-2.196,0-3.975,1.78-3.975,3.975v54.065c0,2.196,1.78,3.975,3.975,3.975  c2.196,0,3.975-1.78,3.975-3.975V321.26C848.024,319.065,846.245,317.285,844.049,317.285z"/><path fill="#11A8EB" d="M918.799,713.219v20.688H622.997v-20.688c0-44.524,0.016-89.033,0.032-133.557v-15.25h295.738v15.25  C918.783,624.186,918.799,668.694,918.799,713.219z"/><circle cx="770.902" cy="649.161" r="56.451" fill="#FFF"/><path fill="#1D74BC" d="M812.403,642.501h-34.841v-34.841c0-3.672-2.987-6.659-6.66-6.659c-3.672,0-6.659,2.987-6.659,6.659v34.841  h-34.841c-3.673,0-6.659,2.987-6.659,6.659s2.987,6.659,6.659,6.659h34.841v34.841c0,3.672,2.987,6.659,6.659,6.659  c3.673,0,6.66-2.987,6.66-6.659V655.82h34.841c3.671,0,6.658-2.987,6.658-6.659S816.074,642.501,812.403,642.501z"/><rect width="295.738" height="4.77" x="623.029" y="574.891" fill="#FFF"/><rect width="295.802" height="4.77" x="622.997" y="722.776" fill="#FFF"/><path fill="#D6E3F2" d="M623.029,536.839c0-48.532,18.716-95.187,52.252-130.282c0.175-0.175,0.35-0.366,0.525-0.557h190.675  c0.021,0.35,0.012,0.206,0.033,0.557l0,0c-122.216,14.484-211.847,122.29-203.215,245.058  c4.802,68.299,21.958,136.597,64.796,179.271c-27.924-0.001-55.849,0-83.774-0.011c-1.654,0.064-8.444,0.095-14.423-5.009  c-0.366-0.318-0.715-0.636-1.049-0.97c-3.896-3.816-5.852-9.191-5.852-14.645v-97.032c0-44.524,0.016-89.033,0.032-133.557V536.839z  "/><path fill="#EBEDF7" d="M636.891,815.136V456.704c0-9.045-7.333-16.387-16.387-16.387H499.922c-9.044,0-16.377,7.342-16.377,16.387  v358.431c0,7.151,4.418,13.249,10.665,15.755h132.016C632.473,828.385,636.891,822.286,636.891,815.136z M594.116,463.412h-68.49  c-2.78,0-5.036-2.256-5.036-5.036s2.256-5.036,5.036-5.036h68.49c2.78,0,5.036,2.256,5.036,5.036S596.896,463.412,594.116,463.412z"/><path fill="#FFF" d="M646.701,822.493V464.062c0-9.045-7.332-16.387-16.387-16.387H509.732c-9.045,0-16.377,7.342-16.377,16.387  v358.431c0,9.387,7.604,16.981,16.981,16.981h119.383C639.096,839.474,646.701,831.88,646.701,822.493z M535.436,470.769  c-2.78,0-5.036-2.256-5.036-5.036c0-2.78,2.256-5.036,5.036-5.036h68.489c2.78,0,5.036,2.256,5.036,5.036  c0,2.78-2.256,5.036-5.036,5.036H535.436z"/><path fill="#B2B5CB" d="M642.67,767.043c0-0.695-0.564-1.259-1.259-1.259H498.893c-0.695,0-1.259,0.564-1.259,1.259  s0.564,1.259,1.259,1.259h142.518C642.106,768.302,642.67,767.738,642.67,767.043z"/><path fill="#B2B5CB" d="M642.67,693.517c0-0.695-0.564-1.259-1.259-1.259H498.893c-0.695,0-1.259,0.564-1.259,1.259  c0,0.695,0.564,1.259,1.259,1.259h142.518C642.106,694.776,642.67,694.213,642.67,693.517z"/><path fill="#B2B5CB" d="M642.67,619.992c0-0.695-0.564-1.259-1.259-1.259H498.893c-0.695,0-1.259,0.564-1.259,1.259  c0,0.695,0.564,1.259,1.259,1.259h142.518C642.106,621.251,642.67,620.687,642.67,619.992z"/><path fill="#B2B5CB" d="M642.67,546.466c0-0.695-0.564-1.259-1.259-1.259H498.893c-0.695,0-1.259,0.564-1.259,1.259  s0.564,1.259,1.259,1.259h142.518C642.106,547.725,642.67,547.162,642.67,546.466z"/><path fill="#B2B5CB" d="M571.411,831.524V480.812c0-0.695-0.564-1.259-1.259-1.259c-0.695,0-1.259,0.564-1.259,1.259v350.712  c0,0.695,0.564,1.259,1.259,1.259C570.848,832.783,571.411,832.219,571.411,831.524z"/><circle cx="611.003" cy="804.085" r="26.328" fill="#D6E3F2"/><circle cx="611.003" cy="804.085" r="20.262" fill="#F76A78"/><path fill="#D6E3F2" d="M599.848,820.998c2.355,1.555,5.07,2.645,8.04,3.107c11.057,1.721,21.416-5.848,23.137-16.905  c0.348-2.238,0.31-4.446-0.055-6.561c-0.016,0.277-0.029,0.555-0.054,0.832c-1.293,14.511-13.598,23.74-27.485,20.614  C602.205,821.81,601.01,821.443,599.848,820.998z"/><path fill="#BA3456" d="M616.986,811.71c-1.502-2.844-3.098-5.63-4.779-8.365c-1.68-2.735-3.441-5.42-5.296-8.047  c-1.865-2.621-3.802-5.198-5.98-7.628c1.18,3.042,2.6,5.936,4.092,8.786c1.502,2.844,3.099,5.63,4.776,8.367  c1.677,2.737,3.438,5.422,5.293,8.049c1.864,2.622,3.802,5.198,5.983,7.625C619.898,817.455,618.479,814.56,616.986,811.71z"/><path fill="#58595B" d="M628.082,795.862c-3.861-6.732-11.25-10.792-19.004-10.439c-0.426,0.019-0.846,0.11-1.248,0.25l-0.024,0.008  c-0.711,0.248-0.466,1.311,0.282,1.219c0.04-0.005,0.08-0.01,0.121-0.015c7.92-0.93,15.663,3.331,19.117,10.518  c0.018,0.037,0.035,0.073,0.052,0.11c0.323,0.681,1.351,0.319,1.18-0.414c-0.002-0.008-0.004-0.017-0.006-0.025  C628.453,796.651,628.298,796.24,628.082,795.862z"/><circle cx="611.003" cy="729.552" r="26.328" fill="#D6E3F2"/><circle cx="611.003" cy="729.552" r="20.262" fill="#F76A78"/><path fill="#D6E3F2" d="M599.848,746.466c2.355,1.555,5.07,2.645,8.04,3.107c11.057,1.721,21.416-5.848,23.137-16.905  c0.348-2.238,0.31-4.446-0.055-6.561c-0.016,0.277-0.029,0.555-0.054,0.832c-1.293,14.511-13.598,23.74-27.485,20.614  C602.205,747.277,601.01,746.91,599.848,746.466z"/><path fill="#BA3456" d="M616.986,737.178c-1.502-2.844-3.098-5.63-4.779-8.365c-1.68-2.735-3.441-5.42-5.296-8.047  c-1.865-2.621-3.802-5.198-5.98-7.628c1.18,3.042,2.6,5.936,4.092,8.786c1.502,2.844,3.099,5.63,4.776,8.367  c1.677,2.737,3.438,5.422,5.293,8.049c1.864,2.622,3.802,5.198,5.983,7.625C619.898,742.922,618.479,740.027,616.986,737.178z"/><path fill="#58595B" d="M628.082,721.33c-3.861-6.732-11.25-10.792-19.004-10.439c-0.426,0.019-0.846,0.11-1.248,0.25l-0.024,0.008  c-0.711,0.248-0.466,1.311,0.282,1.219c0.04-0.005,0.08-0.01,0.121-0.015c7.92-0.93,15.663,3.331,19.117,10.518  c0.018,0.037,0.035,0.073,0.052,0.11c0.323,0.681,1.351,0.319,1.18-0.415c-0.002-0.008-0.004-0.016-0.006-0.025  C628.453,722.118,628.298,721.707,628.082,721.33z"/><circle cx="611.003" cy="656.027" r="26.328" fill="#D6E3F2"/><circle cx="611.003" cy="656.027" r="20.262" fill="#F76A78"/><path fill="#D6E3F2" d="M599.848,672.94c2.355,1.555,5.07,2.645,8.04,3.107c11.057,1.721,21.416-5.848,23.137-16.905  c0.348-2.238,0.31-4.446-0.055-6.561c-0.016,0.277-0.029,0.554-0.054,0.832c-1.293,14.511-13.598,23.74-27.485,20.614  C602.205,673.752,601.01,673.384,599.848,672.94z"/><path fill="#BA3456" d="M616.986,663.652c-1.502-2.844-3.098-5.63-4.779-8.365c-1.68-2.735-3.441-5.42-5.296-8.047  c-1.865-2.621-3.802-5.198-5.98-7.628c1.18,3.042,2.6,5.936,4.092,8.786c1.502,2.844,3.099,5.63,4.776,8.367  c1.677,2.737,3.438,5.422,5.293,8.049c1.864,2.622,3.802,5.198,5.983,7.625C619.898,669.397,618.479,666.502,616.986,663.652z"/><path fill="#58595B" d="M628.082,647.804c-3.861-6.732-11.25-10.792-19.004-10.439c-0.426,0.019-0.846,0.11-1.248,0.25l-0.024,0.008  c-0.711,0.248-0.466,1.311,0.282,1.219c0.04-0.005,0.08-0.01,0.121-0.015c7.92-0.93,15.663,3.33,19.117,10.518  c0.018,0.037,0.035,0.073,0.052,0.11c0.323,0.681,1.351,0.319,1.18-0.414c-0.002-0.008-0.004-0.017-0.006-0.025  C628.453,648.593,628.298,648.182,628.082,647.804z"/><circle cx="611.003" cy="583.509" r="26.328" fill="#D6E3F2"/><circle cx="611.003" cy="583.509" r="20.262" fill="#F76A78"/><path fill="#D6E3F2" d="M599.848,600.422c2.355,1.555,5.07,2.645,8.04,3.107c11.057,1.721,21.416-5.848,23.137-16.905  c0.348-2.238,0.31-4.446-0.055-6.561c-0.016,0.277-0.029,0.555-0.054,0.832c-1.293,14.511-13.598,23.74-27.485,20.614  C602.205,601.233,601.01,600.866,599.848,600.422z"/><path fill="#BA3456" d="M616.986,591.134c-1.502-2.844-3.098-5.63-4.779-8.365c-1.68-2.735-3.441-5.42-5.296-8.047  c-1.865-2.621-3.802-5.198-5.98-7.628c1.18,3.042,2.6,5.936,4.092,8.786c1.502,2.844,3.099,5.63,4.776,8.367  c1.677,2.737,3.438,5.422,5.293,8.049c1.864,2.622,3.802,5.198,5.983,7.625C619.898,596.879,618.479,593.984,616.986,591.134z"/><path fill="#58595B" d="M628.082,575.286c-3.861-6.732-11.25-10.792-19.004-10.439c-0.426,0.019-0.846,0.11-1.248,0.25l-0.024,0.008  c-0.711,0.248-0.466,1.311,0.282,1.219c0.04-0.005,0.08-0.01,0.121-0.015c7.92-0.93,15.663,3.331,19.117,10.518  c0.018,0.037,0.035,0.073,0.052,0.11c0.323,0.681,1.351,0.319,1.18-0.414c-0.002-0.008-0.004-0.017-0.006-0.025  C628.453,576.075,628.298,575.663,628.082,575.286z"/><circle cx="611.003" cy="508.976" r="26.328" fill="#D6E3F2"/><circle cx="611.003" cy="508.976" r="20.262" fill="#F76A78"/><path fill="#D6E3F2" d="M599.848,525.89c2.355,1.555,5.07,2.645,8.04,3.107c11.057,1.721,21.416-5.848,23.137-16.905  c0.348-2.238,0.31-4.446-0.055-6.561c-0.016,0.277-0.029,0.554-0.054,0.832c-1.293,14.511-13.598,23.74-27.485,20.614  C602.205,526.701,601.01,526.334,599.848,525.89z"/><path fill="#BA3456" d="M616.986,516.602c-1.502-2.844-3.098-5.63-4.779-8.365c-1.68-2.735-3.441-5.42-5.296-8.047  c-1.865-2.621-3.802-5.198-5.98-7.628c1.18,3.042,2.6,5.936,4.092,8.786c1.502,2.844,3.099,5.63,4.776,8.367  c1.677,2.737,3.438,5.422,5.293,8.049c1.864,2.622,3.802,5.198,5.983,7.625C619.898,522.346,618.479,519.451,616.986,516.602z"/><path fill="#58595B" d="M628.082,500.753c-3.861-6.732-11.25-10.792-19.004-10.439c-0.426,0.019-0.846,0.11-1.248,0.25l-0.024,0.008  c-0.711,0.248-0.466,1.311,0.282,1.219c0.04-0.005,0.08-0.01,0.121-0.015c7.92-0.93,15.663,3.33,19.117,10.518  c0.018,0.037,0.035,0.073,0.052,0.11c0.323,0.681,1.351,0.319,1.18-0.414c-0.002-0.008-0.004-0.017-0.006-0.025  C628.453,501.542,628.298,501.131,628.082,500.753z"/><circle cx="529.42" cy="804.085" r="26.328" fill="#D6E3F2"/><circle cx="529.42" cy="804.085" r="20.262" fill="#F76A78"/><path fill="#D6E3F2" d="M518.265,820.998c2.355,1.555,5.07,2.645,8.04,3.107c11.057,1.721,21.416-5.848,23.137-16.905  c0.348-2.238,0.31-4.446-0.055-6.561c-0.016,0.277-0.029,0.555-0.054,0.832c-1.293,14.511-13.598,23.74-27.485,20.614  C520.622,821.81,519.427,821.443,518.265,820.998z"/><path fill="#BA3456" d="M535.403,811.71c-1.502-2.844-3.098-5.63-4.779-8.365c-1.68-2.735-3.441-5.42-5.296-8.047  c-1.865-2.621-3.802-5.198-5.98-7.628c1.18,3.042,2.6,5.936,4.092,8.786c1.502,2.844,3.099,5.63,4.776,8.367  c1.677,2.737,3.438,5.422,5.293,8.049c1.864,2.622,3.802,5.198,5.983,7.625C538.315,817.455,536.896,814.56,535.403,811.71z"/><path fill="#58595B" d="M546.499,795.862c-3.861-6.732-11.25-10.792-19.004-10.439c-0.426,0.019-0.846,0.11-1.248,0.25l-0.024,0.008  c-0.711,0.248-0.466,1.311,0.282,1.219c0.04-0.005,0.08-0.01,0.121-0.015c7.92-0.93,15.663,3.331,19.117,10.518  c0.018,0.037,0.035,0.073,0.052,0.11c0.323,0.681,1.351,0.319,1.18-0.414c-0.002-0.008-0.004-0.017-0.006-0.025  C546.87,796.651,546.715,796.24,546.499,795.862z"/><circle cx="529.42" cy="729.552" r="26.328" fill="#D6E3F2"/><circle cx="529.42" cy="729.552" r="20.262" fill="#F76A78"/><path fill="#D6E3F2" d="M518.265,746.466c2.355,1.555,5.07,2.645,8.04,3.107c11.057,1.721,21.416-5.848,23.137-16.905  c0.348-2.238,0.31-4.446-0.055-6.561c-0.016,0.277-0.029,0.555-0.054,0.832c-1.293,14.511-13.598,23.74-27.485,20.614  C520.622,747.277,519.427,746.91,518.265,746.466z"/><path fill="#BA3456" d="M535.403,737.178c-1.502-2.844-3.098-5.63-4.779-8.365c-1.68-2.735-3.441-5.42-5.296-8.047  c-1.865-2.621-3.802-5.198-5.98-7.628c1.18,3.042,2.6,5.936,4.092,8.786c1.502,2.844,3.099,5.63,4.776,8.367  c1.677,2.737,3.438,5.422,5.293,8.049c1.864,2.622,3.802,5.198,5.983,7.625C538.315,742.922,536.896,740.027,535.403,737.178z"/><path fill="#58595B" d="M546.499,721.33c-3.861-6.732-11.25-10.792-19.004-10.439c-0.426,0.019-0.846,0.11-1.248,0.25l-0.024,0.008  c-0.711,0.248-0.466,1.311,0.282,1.219c0.04-0.005,0.08-0.01,0.121-0.015c7.92-0.93,15.663,3.331,19.117,10.518  c0.018,0.037,0.035,0.073,0.052,0.11c0.323,0.681,1.351,0.319,1.18-0.415c-0.002-0.008-0.004-0.016-0.006-0.025  C546.87,722.118,546.715,721.707,546.499,721.33z"/><circle cx="529.42" cy="656.027" r="26.328" fill="#D6E3F2"/><circle cx="529.42" cy="656.027" r="20.262" fill="#F76A78"/><path fill="#D6E3F2" d="M518.265,672.94c2.355,1.555,5.07,2.645,8.04,3.107c11.057,1.721,21.416-5.848,23.137-16.905  c0.348-2.238,0.31-4.446-0.055-6.561c-0.016,0.277-0.029,0.554-0.054,0.832c-1.293,14.511-13.598,23.74-27.485,20.614  C520.622,673.752,519.427,673.384,518.265,672.94z"/><path fill="#BA3456" d="M535.403,663.652c-1.502-2.844-3.098-5.63-4.779-8.365c-1.68-2.735-3.441-5.42-5.296-8.047  c-1.865-2.621-3.802-5.198-5.98-7.628c1.18,3.042,2.6,5.936,4.092,8.786c1.502,2.844,3.099,5.63,4.776,8.367  c1.677,2.737,3.438,5.422,5.293,8.049c1.864,2.622,3.802,5.198,5.983,7.625C538.315,669.397,536.896,666.502,535.403,663.652z"/><path fill="#58595B" d="M546.499,647.804c-3.861-6.732-11.25-10.792-19.004-10.439c-0.426,0.019-0.846,0.11-1.248,0.25l-0.024,0.008  c-0.711,0.248-0.466,1.311,0.282,1.219c0.04-0.005,0.08-0.01,0.121-0.015c7.92-0.93,15.663,3.33,19.117,10.518  c0.018,0.037,0.035,0.073,0.052,0.11c0.323,0.681,1.351,0.319,1.18-0.414c-0.002-0.008-0.004-0.017-0.006-0.025  C546.87,648.593,546.715,648.182,546.499,647.804z"/><circle cx="529.42" cy="583.509" r="26.328" fill="#D6E3F2"/><circle cx="529.42" cy="583.509" r="20.262" fill="#F76A78"/><path fill="#D6E3F2" d="M518.265,600.422c2.355,1.555,5.07,2.645,8.04,3.107c11.057,1.721,21.416-5.848,23.137-16.905  c0.348-2.238,0.31-4.446-0.055-6.561c-0.016,0.277-0.029,0.555-0.054,0.832c-1.293,14.511-13.598,23.74-27.485,20.614  C520.622,601.233,519.427,600.866,518.265,600.422z"/><path fill="#BA3456" d="M535.403,591.134c-1.502-2.844-3.098-5.63-4.779-8.365c-1.68-2.735-3.441-5.42-5.296-8.047  c-1.865-2.621-3.802-5.198-5.98-7.628c1.18,3.042,2.6,5.936,4.092,8.786c1.502,2.844,3.099,5.63,4.776,8.367  c1.677,2.737,3.438,5.422,5.293,8.049c1.864,2.622,3.802,5.198,5.983,7.625C538.315,596.879,536.896,593.984,535.403,591.134z"/><path fill="#58595B" d="M546.499,575.286c-3.861-6.732-11.25-10.792-19.004-10.439c-0.426,0.019-0.846,0.11-1.248,0.25l-0.024,0.008  c-0.711,0.248-0.466,1.311,0.282,1.219c0.04-0.005,0.08-0.01,0.121-0.015c7.92-0.93,15.663,3.331,19.117,10.518  c0.018,0.037,0.035,0.073,0.052,0.11c0.323,0.681,1.351,0.319,1.18-0.414c-0.002-0.008-0.004-0.017-0.006-0.025  C546.87,576.075,546.715,575.663,546.499,575.286z"/><circle cx="529.42" cy="508.976" r="26.328" fill="#D6E3F2"/><circle cx="529.42" cy="508.976" r="20.262" fill="#F76A78"/><path fill="#D6E3F2" d="M518.265,525.89c2.355,1.555,5.07,2.645,8.04,3.107c11.057,1.721,21.416-5.848,23.137-16.905  c0.348-2.238,0.31-4.446-0.055-6.561c-0.016,0.277-0.029,0.554-0.054,0.832c-1.293,14.511-13.598,23.74-27.485,20.614  C520.622,526.701,519.427,526.334,518.265,525.89z"/><path fill="#BA3456" d="M535.403,516.602c-1.502-2.844-3.098-5.63-4.779-8.365c-1.68-2.735-3.441-5.42-5.296-8.047  c-1.865-2.621-3.802-5.198-5.98-7.628c1.18,3.042,2.6,5.936,4.092,8.786c1.502,2.844,3.099,5.63,4.776,8.367  c1.677,2.737,3.438,5.422,5.293,8.049c1.864,2.622,3.802,5.198,5.983,7.625C538.315,522.346,536.896,519.451,535.403,516.602z"/><path fill="#58595B" d="M546.499,500.753c-3.861-6.732-11.25-10.792-19.004-10.439c-0.426,0.019-0.846,0.11-1.248,0.25l-0.024,0.008  c-0.711,0.248-0.466,1.311,0.282,1.219c0.04-0.005,0.08-0.01,0.121-0.015c7.92-0.93,15.663,3.33,19.117,10.518  c0.018,0.037,0.035,0.073,0.052,0.11c0.323,0.681,1.351,0.319,1.18-0.414c-0.002-0.008-0.004-0.017-0.006-0.025  C546.87,501.542,546.715,501.131,546.499,500.753z"/><path fill="#FFCFCF" d="M352.302,745.589c0.037,22.63,5.787,52.481,5.787,90.731l4.193,13.177l10.068,4.647l-2.962-15.824  c8.546-33.496,14.523-94.391,14.716-99.938c1.182-31.675-21.998-117.554-23.491-123.115l-0.061-0.213l-0.02-0.079l-41.113-0.938  C303.63,678.932,340.188,674.918,352.302,745.589z"/><path fill="#FFCFCF" d="M315.446,851.393l-7.096-21.409c4.688-27.302,24.253-71.525,34.541-85.538  C362.033,718.373,361,595.453,361,595.453l-37.565,8.085c-20.407,33.368-4.151,120.703-13.247,135.971  c-9.884,16.592-15.217,57.636-13.388,90.287l-1.137,12.246L315.446,851.393z"/><path fill="#363163" d="M292.757,841.154c0.59,3.561,1.614,17.768,1.272,19.139l3.71,0.695l1.889-11.751  c0,0,4.864,1.508,7.176,5.559c2.313,4.051,3.826,7.604,9.652,8.394c5.826,0.789,14.489,2.405,14.154-1.319  c-0.335-3.724-12.725-11.442-16.234-17.744c-3.897-6.997-5.893-14.967-5.893-14.967c-4.556,1.584-7.628,1.407-11.795-0.861  C296.689,828.299,292.168,837.593,292.757,841.154z"/><path fill="#363163" d="M354.738,843.654c0.749,3.531,2.412,17.678,2.131,19.062l3.738,0.528l1.359-11.823  c0,0,4.926,1.287,7.418,5.23c2.493,3.942,4.165,7.425,10.02,7.951c5.856,0.526,14.583,1.751,14.081-1.955  c-0.502-3.705-13.226-10.858-17.016-16.995c-4.208-6.815-6.56-14.686-6.56-14.686c-4.48,1.788-7.556,1.749-11.823-0.33  C358.086,830.636,353.989,840.124,354.738,843.654z"/><path fill="#232844" d="M375.789,634.217c0,0,12,54.501,16,74.901c4,20.4,1.2,33.501-15.2,33.101c-16.4-0.4-66.801,3.6-76.001-4.4  c-9.2-8,5.2-75.201,8.4-106.002L375.789,634.217z"/><path fill="#36A5B2" d="M301.154,564.891c3.599-0.455,9.301,0.846,13.052,0.109c0,0,0,0.021-0.022,0.065  c-3.447,18.32-4.216,34.778-5.496,42.127c-0.325,1.844-0.857,3.531,0.943,3.097c1.062-0.26,2.146-0.477,3.209-0.651  c5.051-0.91-7.899,26.614-2.891,26.592c4.553-0.022,56.096,2.277,60.54,2.537c10.774,0.607-7.981-28.565,1.32-30.885  c0,0-16.304-17.495-2.731-37.832c1.604,3.274,7.262,9.496,14.504,13.225l8.845-24.737c-5.074-7.523-18.493-36.986-36.683-39.132  h-12.401c-11.772,0-32.758,13.745-42.189,21.442C301.045,547.59,301.023,559.385,301.154,564.891z"/><path fill="#FFCFCF" d="M367.126,524.068v44.335c0,0,0.716,0.629,1.952,1.648c3.252,2.667,10.102,8.13,16.672,12.098  c4.553,2.753,8.954,4.813,11.946,4.748c13.095-0.26,43.685-28.878,43.685-28.878c12.054-0.867,20.596-6.547,24.26-17.539  c3.902-11.729-14.244,3.533-20.336,3.273c0,0-0.629-11.273-3.252-11.23c-4.184,0.087-6.092,15.675-6.092,15.675  s-39.089,20.965-39.089,19.729c0-0.347-2.298-3.859-5.615-8.802c-5.074-7.523-12.531-18.363-17.821-25.973  c0-0.022-0.021-0.022-0.021-0.022c-3.469-5.03-6.006-8.672-6.266-9.04L367.126,524.068z"/><path fill="#FFCFCF" d="M234.184,509.867c0.086,13.269,11.599,17.648,21.485,20.206c3.49,7.87,21.918,37.159,32,37.636  c3.837,0.174,9.344-0.151,15.415-0.911c3.599-0.455,7.371-1.062,11.121-1.799c9.496-1.843,18.688-4.553,23.74-7.805  c8.889-5.723,10.385-30.959-3.469-33.344c-0.781-0.13-1.669-0.108-2.623,0.065c-6.96,1.214-18.081,9.864-28.618,17.431  c-4.9,3.512-9.669,6.786-13.853,8.975c-8.065-7.566-14.699-15.415-25.365-26.19c0,0-0.651-13.593-6.612-18.883  c-5.182-4.596-3.469,10.71-3.469,10.71C243.81,514.637,234.141,502.106,234.184,509.867z"/><path fill="#36A5B2" d="M253.637,531.966c0,0,15.556,31.133,24.658,37.946c17.642,13.205,24.707-2.765,25.292-2.895  c0.022-0.022,5.862-0.162,5.862-0.162c3.295,14.244-2.407,40.151-6.547,60.466c-0.933,4.596,2.514,8.802,7.046,8.911  c0.325,0.022,0.672,0.022,1.018-0.022l20.553-2.211c3.317-0.347,5.636-3.426,5.138-6.742c-1.626-11.014-1.127-21.463,0.217-31.675  c3.339-25.171,11.881-48.867,6.461-76.183c-15.522-0.651-53.051,27.945-53.051,27.945l-25.387-23.284L253.637,531.966z"/><path fill="#36A5B2" d="M360.301,638.022c4.436,0.524,9.22,1.052,13.186,1.187c3.429,0.116,6.013-3.075,5.17-6.4  c-5.08-20.041-9.549-40.179-8.625-59.961l0.217,0.239c0.737,0.802,3.339,3.577,6.721,6.851c6.504,6.287,15.957,14.417,20.835,13.962  c0.39-0.043,0.802-0.108,1.215-0.195c13.246-2.753,39.934-30.2,39.934-30.2l-11.057-13.29l-29.008,12.184  c0,0-25.366-40.931-43.144-43.382c-0.017,19.136,0.402,63.461-7.238,107.046C347.419,632.258,354.054,637.283,360.301,638.022z"/><path fill="#E6E6E6" d="M309.956,636.24c9.619-23.18,0.871-40.055,7.917-71.355l-8.416,1.979  c3.296,14.244-2.407,40.151-6.547,60.465C301.977,631.926,305.425,636.132,309.956,636.24z"/><path fill="#E6E6E6" d="M370.031,557.672v15.176l0.217,0.239l6.721,6.851c6.504,6.287,15.957,14.417,20.835,13.962  c0.39-0.043,0.802-0.108,1.215-0.195C381.613,584.244,381.684,568.636,370.031,557.672z"/><path fill="#FFCFCF" d="M345.093,502.981l-1.75,16.426c4.791,6.2,8.932,6.222,12.401,0l-0.303-4.292l-0.672-9.778L345.093,502.981z"/><path fill="#FFCFCF" d="M366.313,479.792c0,0,3.722,27.541-3.598,31.469c-7.506,4.028-16.982,0.431-19.966-7.881  c0,0-8.047-2.514-5.77-8.118c2.277-5.605,7.63,0,7.63,0S359.593,491.702,366.313,479.792z"/><path fill="#30334D" d="M301.1,538.763c0.541-7.288-5.816-14.824-2.443-21.306c0.843-1.62,2.209-2.898,3.604-4.076  c6.215-5.248,13.939-9.731,16.567-17.428c1.582-4.636,1-9.688,1.332-14.574c0.331-4.887,2.021-10.259,6.366-12.519  c4.031-2.096,9.1-0.858,13.293-2.608c4.128-1.723,7.004-6.176,11.441-6.75c1.913-0.247,3.849,0.294,5.62,1.061  c10.4,4.504,13.819,12.335,11.16,23.352c-0.905,3.748-5.806,7.871-8.052,10.399c-6.892,7.753-2.023,17.683-2.159,25.922  c-0.05,3.058-0.336,6.106-2.193,8.537c-1.856,2.431-4.49,4.275-5.908,6.985c-3.403,6.504,1.549,14.313,0.928,21.627  c-0.641,7.541-8.244,13.754-15.762,12.879c-2.652-0.309-5.163-1.358-7.791-1.83c-6.116-1.1-12.316,0.972-18.522,1.302  c-6.205,0.329-13.562-2.097-15.189-8.094C291.238,553.7,300.491,546.97,301.1,538.763z"/><ellipse cx="878.188" cy="493.079" fill="#FFCBC7" rx="4.292" ry="6.744" transform="rotate(-14.373 878.251 493.034)"/><path fill="#FFCBC7" d="M889.467,489.549c0,0,8.985,50.59,22.106,54.082c5.939,1.581,13.569,0.255,20.853-2.211  c12.318-4.168,23.641-11.581,24.033-13.604l12.497-37.935c-7.193,3.1-48.173,26.461-51.521,28.698  c-5.422-8.139-17.18-29.317-17.566-30.872c0,0,2.537-11.413,0.296-14.625c-1.992-2.843-2.724,6.48-3.565,5.35  c-0.916-1.244-6.345-14.441-9.955-10.586C878.628,476.44,889.467,489.549,889.467,489.549z"/><path fill="#FFF" d="M918.126,514.988l-16.438-26.3l-13.047,5.753c0,0,7.448,50.918,23.809,50.918  c16.36,0,38.345-9.16,38.345-9.16l13.572-44.269L918.126,514.988z"/><path fill="#FFCBC7" d="M959.503,705.481c1.509,9.865,2.144,18.638,2.098,26.725c-0.1,20.661-3.91,53.881-9.852,73.339l-9.355-0.293  c0,0-10.122-59.099-14.062-87.344c-1.023-7.169-1.726-13.549-1.93-18.327c-1.248-27.273,22.827-101.474,24.377-106.278l0.063-0.184  l0.021-0.068l42.785-1.208C1010.117,647.59,982.078,658.039,959.503,705.481z"/><path fill="#2AA2A8" d="M984.226,663.922c-7.303,11.572-14.615,24.011-22.957,41.534c4.058,25.192-1.466,79.051-4.688,92.503  h-18.723c-1.022-7.168-11.252-93.6-11.455-98.377c-1.248-27.273,22.827-101.474,24.377-106.278l0.063-0.184l0.021-0.068  l42.785-1.208C1004.047,627.012,996.718,644.142,984.226,663.922z"/><path fill="#FFCBC7" d="M1036.508,795.258c0,0-40.593-66.908-43.529-69.96c-21.014-21.766-31.988-131.457-31.988-131.457h34.743  c27.237,25.038,20.377,59.511,21.181,93.569c0.278,11.804,4.074,23.186,10.45,33.125c1.283,2.002,2.493,4.029,3.634,6.107  c7.947,14.502,11.917,37.504,16.266,65.439L1036.508,795.258z"/><path fill="#36A5B2" d="M1048.594,783.615l-17.423,5.318c-3.643-4.712-35.255-60.583-38.192-63.635  c-21.014-21.766-34.583-131.889-34.583-131.889l35.858,0.41l1.48,0.023c26.325,24.2,20.798,57.216,21.124,90.149  c0.133,13.439,4.533,26.516,12.675,37.209C1039.497,734.285,1047.672,781.932,1048.594,783.615z"/><path fill="#36A5B2" d="M1018.534,523.036c-0.296,21.902-5.692,59.878-7.74,73.538c-0.296,1.98-1.389,3.687-2.937,4.758  c-0.843,0.592-1.845,1.002-2.915,1.161c-9.812,1.458-19.42,2.255-28.778,2.231c-8.423,0-16.642-0.637-24.633-2.026  c-3.119-0.546-5.51-3.051-5.851-6.193c-1.115-10.336,2.127-33.012,1.603-55.074c-0.341-13.956,4.037-49.679,30.099-55.299  l15.267-0.138c17.12,4.44,24.292,17.531,25.476,26.682C1018.489,515.387,1018.602,518.937,1018.534,523.036z"/><path fill="#30334D" d="M942.393,805.252c-11.34,3.921-23.09,3.061-24.205,13.139l35.267-0.044  c0.558-4.269-0.011-8.536-1.707-12.803L942.393,805.252z"/><path fill="#30334D" d="M1036.508,795.258c-7.644,8.862-17.194,13.851-13.198,22.897l30.071-14.704  c-1.62-3.874-2.596-8.601-6.116-11.37L1036.508,795.258z"/><path fill="#30334D" d="M969.936,445.791c0.931-1.983,2.661-3.56,4.544-4.845c1.618-1.105,3.441-2.054,5.441-2.268  c2-0.215,4.203,0.434,5.329,1.973c0.454,0.621,0.75,1.386,1.435,1.787c1.08,0.631,2.463,0.045,3.713-0.203  c1.806-0.36,3.779,0.074,5.214,1.149c1.434,1.075,2.301,2.767,2.289,4.47c1.64-0.081,3.305,0.519,4.449,1.604  c1.145,1.086,1.749,2.638,1.615,4.146c-0.086,0.976-0.464,1.933-0.376,2.908c0.088,0.966,0.622,1.842,0.966,2.759  c0.881,2.349,0.44,5.084-1.143,7.095c-0.607,0.771-1.385,1.468-1.675,2.382c-0.348,1.094,0.074,2.285-0.166,3.404  c-0.278,1.301-1.432,2.326-2.738,2.883c-1.305,0.558-2.76,0.722-4.188,0.88c-2.153,0.239-4.307,0.477-6.46,0.714  c-2.078,0.231-4.239,0.453-6.222-0.165c-1.983-0.619-3.728-2.341-3.536-4.263l-5.791-17.216  C969.497,453.105,968.448,448.958,969.936,445.791z"/><path fill="#FFCBC7" d="M992.865,486.034c-5.555,5.555-10.795,6.619-15.484,0.098l1.32-10.715l0.551-4.512h12.292l0.237,2.797  L992.865,486.034z"/><path fill="#F0B4B4" d="M991.956,475.696c-3.038,3.655-11.408,4.713-13.677,3.146l0.973-7.937l12.362-5.188L991.956,475.696z"/><path fill="#FFCBC7" d="M972.953,449.419c-2.262,6.377-4.479,20.473,0.932,25.716c3.426,3.318,15.855,2.035,18.394-7.091  c2.998-2.172,5.198-7.464,2.436-9.866c-1.97-1.712-4.485,2.811-7.92,2.063c-1.304-0.283,2.699-8.992-1.368-10.5  C981.359,448.232,977.054,451.501,972.953,449.419z"/><path fill="#FFF" d="M1021.073,628.767c-3.639-11.755-7.657-45.101-4.199-69.412c3.458-24.311,10.636-66.894-24.01-73.32  l-7.747,4.588c0,0-29.351,121.072-24.127,143.183C966.214,655.916,1024.712,640.522,1021.073,628.767z"/><path fill="#FFF" d="M977.381,486.132l2.538,2.764c-11.641,18.849-29.378,118.879-28.958,145.748  c0.079,5.037-26.907,1.615-22.811-5.458C955.734,581.56,926.355,498.846,977.381,486.132z"/><polygon fill="#C5E8FC" points="885.771 429.049 861.532 438.349 912.018 605.676 960.153 587.21"/><path fill="#EAF2F9" d="M945.873,573.229l-60.887-129.465c-1.56-3.317-5.415-4.867-8.837-3.555  c-3.422,1.313-5.251,5.044-4.192,8.553l41.327,136.97c1.751,5.804,8.064,8.898,13.724,6.727l13.161-5.049  C945.829,585.238,948.452,578.715,945.873,573.229z"/><polygon fill="#EAF2F9" points="965.064 594.288 913.101 614.223 912.018 605.676 960.153 587.21"/><rect width="22.312" height="3.486" x="861.871" y="430.328" fill="#EAF2F9" transform="rotate(-20.989 872.98 432.048)"/><polygon fill="#F76A78" points="949.738 565.068 904.951 582.25 903.943 578.903 903.535 577.566 893.437 544.101 893.035 542.761 892.429 540.753 931.293 525.844 932.185 527.742 932.782 529.006 947.658 560.639 948.249 561.906"/><polygon fill="#FFF" points="948.249 561.906 903.943 578.903 903.535 577.566 947.658 560.639"/><polygon fill="#FFF" points="932.782 529.006 893.437 544.101 893.035 542.761 932.185 527.742"/><circle cx="919.427" cy="553.019" r="13.74" fill="#FFF"/><path fill="#F76A78" d="M928.277,547.888l-7.917,3.037l-3.037-7.917c-0.32-0.834-1.259-1.253-2.094-0.933  c-0.835,0.32-1.253,1.259-0.933,2.094l3.037,7.917l-7.917,3.037c-0.835,0.32-1.253,1.259-0.933,2.094  c0.32,0.834,1.259,1.253,2.094,0.933l7.917-3.037l3.037,7.917c0.32,0.834,1.259,1.253,2.094,0.933  c0.835-0.32,1.253-1.259,0.933-2.094l-3.037-7.917l7.917-3.037c0.834-0.32,1.253-1.259,0.932-2.094S929.111,547.568,928.277,547.888  z"/><path fill="#F76A78" d="M873.266,405.497c-1.135-2.139-3.687-3.094-5.947-2.227l-9.313,3.573c-2.26,0.867-3.518,3.284-2.932,5.633  l5.61,22.464l23.435-8.991L873.266,405.497z"/><path fill="#BA3456" d="M857.803,409.908c-0.359,0.138-0.539,0.541-0.401,0.901l7.492,19.529c0.138,0.359,0.541,0.539,0.901,0.401  c0.36-0.138,0.539-0.541,0.401-0.901l-7.492-19.529C858.566,409.949,858.162,409.77,857.803,409.908z"/><path fill="#BA3456" d="M863.662,407.66c-0.359,0.138-0.539,0.541-0.401,0.901l7.492,19.529c0.138,0.359,0.541,0.539,0.901,0.401  s0.539-0.541,0.401-0.901l-7.492-19.529C864.425,407.702,864.021,407.522,863.662,407.66z"/><path fill="#BA3456" d="M869.521,405.412c-0.359,0.138-0.539,0.541-0.401,0.901l7.492,19.529c0.138,0.36,0.541,0.539,0.901,0.401  c0.359-0.138,0.539-0.541,0.401-0.901l-7.492-19.529C870.283,405.454,869.88,405.274,869.521,405.412z"/><path fill="#FFCBC7" d="M1005.098,532.93c0,0-10.112,17.397-22.324,24.814c-2.922,1.758-5.758,3.16-8.343,3.953  c-17.904,5.472-59.191,2.813-59.191,2.813c-12.987,5.425-19.384-2.518-22.42-6.913c-7.494-10.849,13.821-0.469,15.803-4.898  c0,0-11.094-1.204-8.393-4.472c2.681-3.289,18.24,4.661,18.24,4.661c19.423-2.73,29.769-7.241,45.134-9.567  c1.296-1.554,2.592-3.107,3.93-4.637c9.698-10.978,21-20.928,36.519-27.399C1011.807,519.808,1008.531,524.515,1005.098,532.93z"/><path fill="#FFF" d="M920.237,549.946l1.153,16.935c0,0,47.7-0.178,55.992-3.724c8.292-3.547,29.16-25.647,37.774-36.708  c11.704-15.029-4.052-42.154-25.935-19.152c-19.486,20.482-26.157,30.945-26.157,30.945L920.237,549.946z"/><path fill="#DDDDF0" d="M975.577,560.332c8.339-3.436,29.501-25.256,38.262-36.2c4.445-5.553,5.081-12.842,2.982-18.616  c3.31,5.981,3.309,14.545-1.666,20.932c-8.614,11.061-29.482,33.162-37.774,36.708c-8.292,3.547-55.992,3.724-55.992,3.724  l-0.243-3.565C929.471,563.361,968.144,563.394,975.577,560.332z"/><path fill="#117CA0" d="M860.327,635.886c0,0-19.799-10.717-25.248-42.322c0,0-0.935-5.784-9.324-5.442  c-8.389-0.341-9.324,5.442-9.324,5.442c-5.449,31.605-25.248,42.322-25.248,42.322c5.43,1.284,11.409,2.452,17.889,3.357  c5.978,0.835,11.603,1.337,16.804,1.607c5.138-0.28,10.681-0.784,16.563-1.608C848.911,638.337,854.891,637.17,860.327,635.886z"/><path fill="#117CA0" d="M860.489,636.798v40.129c0,1.072-1.169,1.94-2.605,1.94H793.03c-1.442,0-2.605-0.868-2.605-1.94v-40.129  c0-1.071,1.164-1.943,2.605-1.943h64.854C859.32,634.855,860.489,635.727,860.489,636.798z"/><rect width="3.182" height="44.012" x="794.042" y="634.855" fill="#086887"/><rect width="3.182" height="44.012" x="801.417" y="634.855" fill="#086887"/><rect width="3.177" height="44.012" x="808.793" y="634.855" fill="#086887"/><rect width="3.182" height="44.012" x="816.163" y="634.855" fill="#086887"/><rect width="3.182" height="44.012" x="823.538" y="634.855" fill="#086887"/><rect width="3.182" height="44.012" x="830.914" y="634.855" fill="#086887"/><rect width="3.182" height="44.012" x="838.29" y="634.855" fill="#086887"/><rect width="3.182" height="44.012" x="845.665" y="634.855" fill="#086887"/><rect width="3.182" height="44.012" x="853.04" y="634.855" fill="#086887"/><path fill="#51B3AB" d="M878.221,823.36c0,0-0.604,12.215-13.408,14.888h-77.474c-12.819-2.673-13.408-14.888-13.408-14.888  l0.317-26.272l0.71-59.385l0.317-26.907c3.578-17.636,19.432-22.105,19.432-22.105l31.074-0.423h0.589l31.059,0.423  c0,0,15.869,4.469,19.448,22.105l0.317,26.907l0.71,59.385L878.221,823.36z"/><rect width="63.106" height="5.627" x="794.52" y="683.237" fill="#117CA0"/><rect width="74.918" height="7.605" x="788.322" y="676.118" fill="#117CA0"/><circle cx="825.457" cy="766.633" r="38.82" fill="#FFF"/><circle cx="825.457" cy="766.633" r="33.381" fill="#51B3AB"/><circle cx="825.457" cy="766.633" r="29.672" fill="#FFF"/><path fill="#BADAFF" d="M837.151,752.044h-23.162c-0.341,0-0.618-0.276-0.618-0.617v-1.402c0-0.341,0.276-0.618,0.618-0.618h23.162  c0.341,0,0.618,0.276,0.618,0.618v1.402C837.769,751.768,837.492,752.044,837.151,752.044z"/><path fill="#BADAFF" d="M837.151,787.321h-23.162c-0.341,0-0.618-0.276-0.618-0.618v-1.402c0-0.341,0.276-0.617,0.618-0.617h23.162  c0.341,0,0.618,0.276,0.618,0.617v1.402C837.769,787.044,837.492,787.321,837.151,787.321z"/><path fill="#BADAFF" d="M833.36,762.759h-35.422c-0.341,0-0.617-0.276-0.617-0.618v-1.402c0-0.341,0.276-0.618,0.617-0.618h35.422  c0.341,0,0.618,0.276,0.618,0.618v1.402C833.977,762.483,833.701,762.759,833.36,762.759z"/><path fill="#BADAFF" d="M847.031,774.133h-42.922c-0.341,0-0.618-0.276-0.618-0.617v-1.402c0-0.341,0.276-0.618,0.618-0.618h42.922  c0.341,0,0.618,0.276,0.618,0.618v1.402C847.649,773.857,847.372,774.133,847.031,774.133z"/><path fill="#BADAFF" d="M851.575,762.759h-14.507c-0.341,0-0.617-0.276-0.617-0.618v-1.402c0-0.341,0.276-0.618,0.617-0.618h14.507  c0.341,0,0.618,0.276,0.618,0.618v1.402C852.192,762.483,851.916,762.759,851.575,762.759z"/><path fill="#F9AB10" d="M802.736,854.788c0,11.181-21.624,20.245-48.3,20.245c-26.676,0-48.301-9.064-48.301-20.245  c0-1.668,0-12.595,0-12.595s25.604-7.651,48.301-7.651c22.828,0,48.3,7.739,48.3,7.739S802.736,853.176,802.736,854.788z"/><path fill="#E6E7E8" d="M800.853,841.739c0,2.923,0,9.958,0,11.23c0,11.181-21.624,20.245-48.3,20.245  c-19.008,0-35.444-4.604-43.327-11.295c6.883,7.662,24.523,13.114,45.21,13.114c26.676,0,48.3-9.064,48.3-20.245  c0-1.612,0-12.506,0-12.506S802.066,842.078,800.853,841.739z"/><ellipse cx="754.436" cy="842.075" fill="#FFBD22" rx="48.3" ry="20.245"/><path fill="#E6E7E8" d="M793.799,830.35c2.419,2.411,3.758,5.061,3.758,7.841c0,11.181-21.625,20.245-48.301,20.245  c-16.246,0-30.607-3.365-39.362-8.52c7.31,7.287,24.499,12.404,44.542,12.404c26.676,0,48.3-9.063,48.3-20.245  C802.736,837.704,799.419,833.66,793.799,830.35z"/><polygon fill="#F9AB10" points="786.639 834.922 729.225 847.055 722.694 843.729 777.797 832.137"/><path fill="#FFF" d="M778.694,794.954c4.218,13.963-3.682,28.704-17.645,32.922l-36.945,11.161l-15.277-50.567l36.945-11.161  c6.979-2.108,14.155-1.189,20.115,2.006C771.845,782.505,776.584,787.971,778.694,794.954z"/><path fill="#F76A78" d="M708.827,788.47l15.277,50.567l-63.318,19.129c-6.979,2.108-14.155,1.189-20.115-2.006  c-5.959-3.19-10.698-8.656-12.807-15.64c-4.218-13.963,3.682-28.704,17.645-32.922L708.827,788.47z"/><rect width="4.098" height="52.824" x="713.762" y="787.539" fill="#FFF" transform="rotate(-16.81 715.81 813.943)"/><path fill="#D6E3F2" d="M761.1,827.861c10.886-3.289,18.085-12.974,18.732-23.699c-47.33,19.525-96.407,34.962-147.906,44.364  c2.352,3.195,5.371,5.785,8.797,7.619c5.96,3.194,13.136,4.114,20.115,2.006l60.703-18.339L761.1,827.861z"/><path fill="#58595B" d="M742.884,781.511L650.24,809.5c-1.324,0.4-2.073,1.798-1.673,3.122s1.798,2.073,3.122,1.673l92.644-27.988  c1.324-0.4,2.073-1.798,1.673-3.122C745.606,781.86,744.208,781.111,742.884,781.511z"/><path fill="#F76A78" d="M985.992,335.471l-2.507-12.755c-0.041-0.209-0.203-0.374-0.411-0.419l-12.705-2.75  c-0.567-0.123-0.559-0.934,0.01-1.046l12.755-2.507c0.209-0.041,0.374-0.203,0.419-0.411l2.75-12.705  c0.123-0.567,0.934-0.559,1.046,0.01l2.507,12.755c0.041,0.209,0.203,0.374,0.411,0.419l12.705,2.75  c0.567,0.123,0.559,0.934-0.01,1.046l-12.755,2.507c-0.209,0.041-0.374,0.203-0.419,0.411l-2.75,12.705  C986.915,336.048,986.104,336.041,985.992,335.471z"/><path fill="#FFBD22" d="M932.436,314.039l-1.371-6.976c-0.022-0.115-0.111-0.205-0.225-0.229l-6.949-1.504  c-0.31-0.067-0.306-0.511,0.005-0.572l6.976-1.371c0.114-0.022,0.205-0.111,0.229-0.225l1.504-6.949  c0.067-0.31,0.511-0.306,0.572,0.005l1.371,6.976c0.023,0.114,0.111,0.205,0.225,0.229l6.949,1.504  c0.31,0.067,0.306,0.511-0.005,0.572l-6.976,1.371c-0.114,0.023-0.205,0.111-0.229,0.225l-1.504,6.949  C932.941,314.355,932.497,314.351,932.436,314.039z"/><path fill="#90D4FB" d="M956.993,293.457l-2.108-10.727c-0.035-0.176-0.17-0.315-0.346-0.352l-10.685-2.313  c-0.477-0.103-0.47-0.786,0.008-0.88l10.727-2.108c0.176-0.035,0.315-0.171,0.352-0.346l2.313-10.685  c0.103-0.477,0.786-0.47,0.88,0.008l2.108,10.727c0.035,0.176,0.171,0.314,0.346,0.352l10.685,2.313  c0.477,0.103,0.47,0.786-0.008,0.88l-10.727,2.108c-0.176,0.035-0.314,0.17-0.352,0.346l-2.313,10.685  C957.77,293.942,957.087,293.935,956.993,293.457z"/></svg>