<svg xmlns="http://www.w3.org/2000/svg" viewBox="0 0 1364 960"><path fill="#CCE3FF" d="M344.724 405.784c-.017-22.162-17.998-40.114-40.16-40.097-22.163.017-40.114 17.998-40.096 40.159.017 22.163 17.997 40.115 40.159 40.098 22.161-.017 40.114-17.997 40.097-40.16z"/><path fill="#B9D2EA" d="M327.688 373.032c5.96 6.997 9.579 16.051 9.586 25.961.017 22.163-17.935 40.143-40.097 40.16-8.617.007-16.583-2.729-23.125-7.347 7.367 8.648 18.323 14.146 30.574 14.137 22.162-.017 40.115-17.998 40.097-40.16-.01-13.544-6.751-25.492-17.035-32.751z"/><path fill="#FFF" d="m283.758 400.669 14.663-.012-.01-12.94a5.163 5.163 0 1 1 10.326-.008l.01 12.94 14.663-.012a5.164 5.164 0 0 1 .008 10.326l-14.663.011.01 12.941a5.164 5.164 0 1 1-10.326.008l-.01-12.941-14.663.012a5.162 5.162 0 0 1-.008-10.325z"/><path fill="#CCC" d="M278.553 380.457c-4.165 4.634-5.602 10.134-3.21 12.285 2.393 2.15 7.71.136 11.874-4.498 4.165-4.634 5.602-10.135 3.21-12.284-2.393-2.152-7.709-.138-11.874 4.497z"/><path fill="#CCE3FF" d="M1020.353 765.452c-.017-22.162-17.998-40.114-40.16-40.096-22.163.017-40.114 17.998-40.096 40.159.017 22.163 17.997 40.115 40.159 40.097 22.161-.017 40.114-17.997 40.097-40.16z"/><path fill="#B9D2EA" d="M1003.317 732.701c5.96 6.997 9.579 16.051 9.586 25.961.017 22.163-17.935 40.143-40.097 40.16-8.617.007-16.583-2.729-23.125-7.347 7.367 8.648 18.323 14.146 30.574 14.137 22.162-.017 40.115-17.998 40.097-40.16-.01-13.544-6.751-25.492-17.035-32.751z"/><path fill="#FFF" d="m959.387 760.337 14.663-.011-.01-12.94a5.164 5.164 0 0 1 10.326-.008l.01 12.94 14.663-.012a5.164 5.164 0 0 1 .008 10.326l-14.663.012.01 12.941a5.164 5.164 0 1 1-10.326.008l-.01-12.941-14.663.011a5.163 5.163 0 0 1-.008-10.326z"/><path fill="#CCC" d="M954.182 740.125c-4.165 4.634-5.602 10.134-3.21 12.285 2.393 2.15 7.71.136 11.875-4.498s5.602-10.135 3.21-12.284c-2.394-2.151-7.711-.137-11.875 4.497z"/><path fill="#CCE3FF" d="M890.431 150.761c-.012-15.597-12.667-28.231-28.264-28.219-15.598.012-28.232 12.666-28.219 28.264.012 15.598 12.666 28.232 28.263 28.22 15.597-.013 28.232-12.668 28.22-28.265z"/><path fill="#B9D2EA" d="M878.442 127.711c4.195 4.924 6.741 11.296 6.747 18.271.012 15.598-12.622 28.252-28.22 28.264-6.065.005-11.671-1.921-16.275-5.171 5.185 6.087 12.895 9.956 21.517 9.949 15.597-.012 28.232-12.666 28.22-28.264-.008-9.532-4.752-17.941-11.989-23.049z"/><path fill="#FFF" d="m847.524 147.161 10.319-.008-.007-9.107a3.633 3.633 0 0 1 3.631-3.636 3.633 3.633 0 0 1 3.636 3.631l.007 9.107 10.319-.008a3.634 3.634 0 0 1 .005 7.267l-10.319.008.007 9.108a3.634 3.634 0 0 1-7.267.006l-.007-9.108-10.319.008a3.634 3.634 0 0 1-.005-7.268z"/><path fill="#CCC" d="M843.861 132.936c-2.931 3.262-3.943 7.132-2.259 8.646 1.684 1.513 5.426.096 8.357-3.166 2.931-3.262 3.943-7.133 2.259-8.645-1.685-1.514-5.426-.097-8.357 3.165z"/><path fill="#CCE3FF" d="M504.471 817.069c-.009-11.251-9.138-20.365-20.389-20.357-11.252.009-20.366 9.137-20.357 20.389.009 11.252 9.137 20.366 20.389 20.357 11.251-.008 20.366-9.137 20.357-20.389z"/><path fill="#B9D2EA" d="M495.822 800.442a20.28 20.28 0 0 1 4.867 13.18c.009 11.252-9.105 20.38-20.357 20.389a20.255 20.255 0 0 1-11.74-3.73c3.74 4.391 9.303 7.182 15.522 7.177 11.251-.009 20.366-9.137 20.357-20.389-.005-6.876-3.428-12.942-8.649-16.627z"/><path fill="#FFF" d="m473.519 814.472 7.444-.006-.005-6.57a2.621 2.621 0 0 1 5.242-.004l.005 6.57 7.444-.006a2.622 2.622 0 0 1 .004 5.242l-7.444.006.005 6.57a2.622 2.622 0 1 1-5.242.004l-.005-6.57-7.444.006a2.621 2.621 0 0 1-.004-5.242z"/><path fill="#CCC" d="M470.876 804.211c-2.114 2.353-2.844 5.145-1.629 6.237 1.215 1.092 3.914.069 6.029-2.284 2.114-2.353 2.844-5.145 1.629-6.237-1.215-1.091-3.914-.069-6.029 2.284z"/><path fill="#CCE3FF" d="M1113.72 567.559c-.009-10.774-8.75-19.501-19.524-19.493-10.774.009-19.501 8.75-19.493 19.523.008 10.774 8.749 19.502 19.523 19.493 10.775-.008 19.502-8.749 19.494-19.523z"/><path fill="#B9D2EA" d="M1105.438 551.637a19.413 19.413 0 0 1 4.66 12.621c.008 10.774-8.719 19.515-19.493 19.524a19.4 19.4 0 0 1-11.242-3.572c3.581 4.204 8.908 6.877 14.863 6.873 10.774-.008 19.502-8.749 19.493-19.524-.004-6.585-3.281-12.393-8.281-15.922z"/><path fill="#FFF" d="m1084.081 565.072 7.128-.006-.005-6.291a2.51 2.51 0 0 1 5.02-.004l.005 6.291 7.128-.006a2.51 2.51 0 0 1 .004 5.02l-7.128.006.005 6.291a2.51 2.51 0 1 1-5.02.004l-.005-6.291-7.128.006a2.51 2.51 0 0 1-.004-5.02z"/><path fill="#CCC" d="M1081.551 555.246c-2.025 2.253-2.724 4.927-1.56 5.972 1.164 1.045 3.748.066 5.773-2.187 2.025-2.253 2.724-4.927 1.56-5.972-1.164-1.045-3.748-.066-5.773 2.187z"/><path fill="#CCE3FF" d="M442.784 221.655c-.008-10.774-8.75-19.501-19.524-19.493-10.774.008-19.501 8.749-19.493 19.523.008 10.774 8.749 19.502 19.523 19.493 10.775-.008 19.503-8.749 19.494-19.523z"/><path fill="#B9D2EA" d="M434.502 205.733a19.413 19.413 0 0 1 4.66 12.621c.008 10.774-8.719 19.515-19.493 19.524a19.4 19.4 0 0 1-11.242-3.572c3.581 4.204 8.908 6.877 14.863 6.873 10.774-.008 19.502-8.749 19.493-19.524-.004-6.585-3.281-12.393-8.281-15.922z"/><path fill="#FFF" d="m413.146 219.168 7.128-.005-.005-6.291a2.51 2.51 0 0 1 5.02-.004l.005 6.291 7.128-.006a2.51 2.51 0 0 1 .004 5.02l-7.128.005.005 6.291a2.51 2.51 0 1 1-5.02.004l-.005-6.291-7.128.006a2.51 2.51 0 0 1-.004-5.02z"/><path fill="#CCC" d="M410.615 209.342c-2.025 2.253-2.724 4.926-1.56 5.972 1.164 1.045 3.748.066 5.773-2.187 2.025-2.253 2.724-4.927 1.56-5.972-1.164-1.045-3.748-.066-5.773 2.187z"/><path fill="#CCE3FF" d="M306.763 644.856c-.012-15.597-12.667-28.231-28.264-28.219-15.598.012-28.231 12.666-28.219 28.263.012 15.598 12.666 28.232 28.263 28.22 15.597-.012 28.232-12.666 28.22-28.264z"/><path fill="#B9D2EA" d="M294.774 621.806c4.195 4.925 6.741 11.296 6.747 18.271.012 15.598-12.622 28.252-28.22 28.264-6.064.005-11.671-1.921-16.275-5.17 5.185 6.087 12.895 9.956 21.517 9.949 15.597-.012 28.232-12.666 28.22-28.264-.007-9.533-4.751-17.942-11.989-23.05z"/><path fill="#FFF" d="m263.856 641.256 10.319-.008-.007-9.107a3.633 3.633 0 0 1 3.631-3.636 3.633 3.633 0 0 1 3.636 3.631l.007 9.107 10.319-.008a3.633 3.633 0 1 1 .005 7.267l-10.319.008.007 9.108a3.634 3.634 0 0 1-7.267.006l-.007-9.108-10.319.008a3.634 3.634 0 0 1-.005-7.268z"/><path fill="#CCC" d="M260.193 627.031c-2.931 3.262-3.943 7.132-2.259 8.646 1.684 1.513 5.426.096 8.357-3.165 2.931-3.262 3.943-7.133 2.259-8.646-1.684-1.514-5.426-.097-8.357 3.165z"/><path fill="#FFF" d="M801.513 715.411c-.816 5.934-2.991 13.412-8.338 20.468-11.472 15.146-28.335 17.042-33.234 17.259l-.368.015c-7.023.076-23.237.131-44.037.176-8.255.021-17.233.028-26.649.035-33.163.026-60.874-.009-70.63-.1l-.368-.014c-4.971-.208-21.836-2.078-33.318-17.207-5.358-7.047-7.545-14.536-8.357-20.455a45.393 45.393 0 0 1-.361-9.076l.23-194.997c-.255-19.102 3.893-37.598 12.023-53.449 5.316-10.355 11.229-17.624 15.148-22.427a164.21 164.21 0 0 1 35.87-32.624l.651-.44-.063-80.457 97.676-.077.063 80.457.638.439c13.558 9.052 25.645 20.002 35.921 32.568 3.94 4.811 9.865 12.057 15.183 22.403 8.154 15.839 12.346 34.328 12.106 53.487l.536 194.94c.14 2.01.186 5.21-.322 9.076z"/><path fill="#D1E0FF" d="M790.108 733.563c-10.312 13.63-25.448 15.497-30.149 15.727-.057.014-.127.014-.184.014h-.297c-8.1.091-28.646.164-54.403.184-7.773.006-15.986.027-24.539.033-29.396.009-53.341-.029-62.247-.107h-.298c-4.474-.195-19.881-1.896-30.357-15.694-8.051-10.599-8.273-22.196-7.936-27.068l.229-195.125c-.255-18.535 3.767-36.408 11.614-51.707 5.118-10.001 10.889-17.071 14.695-21.761 10.016-12.27 21.803-22.984 35.036-31.859l2.264-1.517h.084l-.062-78.715 89.987-.07.062 78.715h.085l2.266 1.513c13.247 8.854 25.05 19.55 35.071 31.804 3.827 4.684 9.61 11.745 14.744 21.738 7.87 15.287 11.906 33.153 11.694 51.689l.521 195.124c.358 4.873.154 16.47-7.88 27.082z"/><path fill="#85ADFF" d="M790.108 733.563c-10.312 13.63-25.448 15.497-30.149 15.727-12.22.08-31.548.152-54.884.199-7.773.006-15.986.027-24.539.033-29.396.009-53.341-.029-62.247-.107h-.298c-4.474-.195-19.881-1.896-30.357-15.694-8.051-10.599-8.273-22.196-7.936-27.068l.229-195.125c-.255-18.535 3.767-36.408 11.614-51.707 5.118-10.001 10.889-17.071 14.695-21.761 10.016-12.27 21.803-22.984 35.036-31.859l2.264-1.517h.084l-.015-19.243c8.15-3.424 78.99-4.569 89.987-.07l.015 19.243h.085l2.266 1.513c13.247 8.854 25.05 19.55 35.071 31.804 3.827 4.684 9.61 11.745 14.744 21.738 7.87 15.287 11.906 33.153 11.694 51.689l.521 195.124c.358 4.872.154 16.469-7.88 27.081z"/><circle cx="752.781" cy="683.227" r="8.203" fill="#D1E0FF" transform="rotate(-78.082 752.804 683.258)"/><circle cx="609.211" cy="660.879" r="8.203" fill="#D1E0FF" transform="rotate(-66.009 609.224 660.887)"/><path fill="#D1E0FF" d="M609.471 494.475a2.734 2.734 0 1 0 5.468-.004 2.734 2.734 0 0 0-5.468.004zM682.674 695.196a2.734 2.734 0 1 0 5.468-.004 2.734 2.734 0 0 0-5.468.004z"/><circle cx="778.773" cy="702.543" r="2.734" fill="#D1E0FF" transform="rotate(-62.277 778.818 702.556)"/><path fill="#D1E0FF" d="M694.972 436.596a2.734 2.734 0 1 0 5.468-.004 2.734 2.734 0 0 0-5.468.004zM680.59 528.012a5.86 5.86 0 1 0 11.72-.01 5.86 5.86 0 0 0-11.72.01z"/><path fill="#85ADFF" d="M669.025 474.897a5.86 5.86 0 1 0 11.72-.01 5.86 5.86 0 0 0-11.72.01z"/><path fill="#D1E0FF" d="M644.59 447.573a3.906 3.906 0 1 0 7.813-.007 3.906 3.906 0 0 0-7.813.007z"/><circle cx="638.14" cy="690.543" r="5.859" fill="#D1E0FF" transform="rotate(-45.001 638.135 690.554)"/><path fill="#D1E0FF" d="M754.037 540.455a5.86 5.86 0 1 0 11.72-.01 5.86 5.86 0 0 0-11.72.01zM600.917 544.481a5.86 5.86 0 1 0 11.72-.01 5.86 5.86 0 0 0-11.72.01zM683.828 671.758a5.86 5.86 0 1 0 11.72-.01 5.86 5.86 0 0 0-11.72.01zM756.852 643.576a5.86 5.86 0 1 0 11.72-.01 5.86 5.86 0 0 0-11.72.01zM660.97 413.967a5.86 5.86 0 1 0 11.72-.01 5.86 5.86 0 0 0-11.72.01z"/><circle cx="719.781" cy="443.412" r="8.203" fill="#D1E0FF" transform="rotate(-45.001 719.78 443.423)"/><path fill="#D1E0FF" d="M739.154 490.467a4.687 4.687 0 1 0 9.375-.007 4.687 4.687 0 0 0-9.375.007z"/><path fill="#3658D1" d="M579.477 550.991H797.47v99.608H579.477z"/><path fill="#FFF" d="m721.639 592.446-22.943.018a1.854 1.854 0 0 1-1.86-1.847l-.018-22.817a1.854 1.854 0 0 0-1.86-1.847l-13.023.01a1.854 1.854 0 0 0-1.857 1.85l.018 22.817a1.854 1.854 0 0 1-1.857 1.85l-22.943.018a1.854 1.854 0 0 0-1.857 1.85l.01 12.951a1.854 1.854 0 0 0 1.86 1.847l22.943-.018a1.854 1.854 0 0 1 1.86 1.847l.018 22.817a1.854 1.854 0 0 0 1.86 1.847l13.023-.01a1.854 1.854 0 0 0 1.857-1.85l-.018-22.817a1.854 1.854 0 0 1 1.857-1.85l22.943-.018a1.854 1.854 0 0 0 1.857-1.85l-.01-12.951a1.853 1.853 0 0 0-1.86-1.847z"/><path fill="#E6E6E6" d="m694.804 566.24.018 22.817a1.854 1.854 0 0 0 1.86 1.847h.182a1.813 1.813 0 0 1-.029-.287l-.018-22.817a1.854 1.854 0 0 0-1.86-1.847h-.182a1.8 1.8 0 0 1 .029.287zM676.239 607.567l-22.761.018c.14.883.903 1.561 1.831 1.56l22.761-.018a1.853 1.853 0 0 0-1.831-1.56z"/><path fill="#FFF" d="M721.639 592.446h-.182c.015.094.029.189.029.287l.01 12.951a1.854 1.854 0 0 1-1.857 1.85l-22.943.018a1.853 1.853 0 0 0-1.857 1.85l.018 22.817a1.854 1.854 0 0 1-1.857 1.85l-12.841.01c.14.883.903 1.561 1.831 1.56l13.023-.01a1.854 1.854 0 0 0 1.857-1.85l-.018-22.817a1.854 1.854 0 0 1 1.857-1.85l22.943-.018a1.854 1.854 0 0 0 1.857-1.85l-.01-12.951a1.853 1.853 0 0 0-1.86-1.847z"/><path fill="#CCC" d="M584.953 506.889h17.187v207.907h-17.187z"/><path fill="#37488A" d="m752.677 300.058.022 28.306c.006 7.958-5.514 14.419-12.351 14.425l-103.572.081c-6.825.005-12.367-6.447-12.373-14.405l-.022-28.306c-.006-7.958 5.526-14.419 12.351-14.425l103.572-.081c6.836-.005 12.367 6.447 12.373 14.405z"/><path fill="#90BAFC" d="M960.574 315.892a327.59 327.59 0 0 0-34.229-41.625 326.868 326.868 0 0 0-23.073-21.666 330.15 330.15 0 0 0-72.133-46.792c-43.002-20.484-91.128-31.932-141.932-31.893a341.36 341.36 0 0 0-12.419.234l.006 8.379c4.124-.162 8.266-.249 12.419-.252 48.453-.038 95.282 10.581 137.807 30.739 28.357 13.442 54.804 31.13 78.539 52.74a304.911 304.911 0 0 1 7.432 6.983 245.846 245.846 0 0 1 3.576 3.505 324.961 324.961 0 0 1 32.752 38.173 258.79 258.79 0 0 1 4.035 5.632l1.093 1.567 1.903-1.103 5.307-3.074a56.684 56.684 0 0 0-1.083-1.547zm32.255 58.216a330.547 330.547 0 0 0-11.794-24.67v-.009a341.479 341.479 0 0 0-5.933-10.679l-.01-.009a203.612 203.612 0 0 0-2.411-4.094 244.139 244.139 0 0 0-2.027-3.348l-7.181 4.148a318.634 318.634 0 0 1 10.558 18.476 258.282 258.282 0 0 1 3.168 6.174 314.076 314.076 0 0 1 11.739 26.396c14.389 36.77 21.921 76.288 21.953 116.959.036 46.27-9.632 91.055-28.065 132.011l7.197 4.156c18.815-41.517 29.276-87.618 29.238-136.174-.036-45.915-9.448-89.631-26.432-129.337zM708.49 824.574c-.009.009-.019.009-.028 0-1.502.094-3.014.17-4.516.237-4.731.209-9.471.315-14.229.319a327.137 327.137 0 0 1-38.733-2.265 319.513 319.513 0 0 1-59.669-12.923 314.371 314.371 0 0 1-31.21-11.797 303.195 303.195 0 0 1-9.548-4.387h-.009c-.924-.447-1.839-.894-2.763-1.351a288.054 288.054 0 0 1-7.01-3.559 292.782 292.782 0 0 1-10.268-5.618 307.287 307.287 0 0 1-18.474-11.397 224.056 224.056 0 0 1-4.061-2.74h-.009a305.825 305.825 0 0 1-13.565-9.87 323.747 323.747 0 0 1-32.025-28.05 326.526 326.526 0 0 1-24.271-27.086l-7.293 4.223a331.062 331.062 0 0 0 53.254 53.413 309.723 309.723 0 0 0 13.164 9.964 321.173 321.173 0 0 0 17.625 11.836c1.354.848 2.707 1.687 4.079 2.507a322.333 322.333 0 0 0 16.504 9.364h.009c.625.326 1.26.661 1.895.987a358.33 358.33 0 0 0 5.992 3.046c.103.056.205.112.317.158h.01c1.157.568 2.305 1.136 3.472 1.686a323.033 323.033 0 0 0 29.186 12.293 326.32 326.32 0 0 0 68.574 16.937h.01c1.362.195 2.725.371 4.096.529 3.873.482 7.773.89 11.683 1.222h.009c2.855.259 5.711.462 8.585.637 3.359.203 6.737.359 10.124.459a336.513 336.513 0 0 0 28.551-.358c2.062-.114 4.124-.246 6.177-.406h.009a140.53 140.53 0 0 0 2.743-.207l-.007-8.397a313.62 313.62 0 0 1-8.38.594zM368.224 514.377a327.084 327.084 0 0 1 .397-30.073c2.155-36.568 10.422-71.974 24.308-105.043l-7.234-4.165c-14.529 34.282-23.429 71.546-25.535 110.605-.055 1.082-.11 2.155-.156 3.238v.009c-.22 4.973-.328 9.984-.324 15.013.056 71.238 22.687 137.178 61.134 191.069l7.237-4.186C391.098 639.49 370.3 578.56 368.224 514.377zm24.326-154.374 7.188 4.137c15.473-32.044 36.397-61.619 62.278-87.541 53.795-53.879 123.337-86.32 198.294-93.012l-.007-8.398C542.177 185.537 441.931 258.16 392.55 360.003zm583.103 290.366a316.215 316.215 0 0 1-8.851 16.055 257.575 257.575 0 0 1-2.451 4.098c-13.195 21.657-29.059 41.889-47.426 60.294-20.278 20.3-42.77 37.561-66.952 51.538h-.01a268.092 268.092 0 0 1-6.92 3.878 315.844 315.844 0 0 1-53.474 23.079 319.36 319.36 0 0 1-56.206 12.864l.007 8.425a327.78 327.78 0 0 0 74.154-18.859h.019a332.176 332.176 0 0 0 13.954-5.731 318.859 318.859 0 0 0 13.646-6.355c.009.009.019 0 .028-.019a305.027 305.027 0 0 0 15.212-7.99c52.098-29.18 95.469-72.088 125.193-123.83a249.333 249.333 0 0 0 2.311-4.07 335.083 335.083 0 0 0 4.947-9.241l-7.181-4.136z"/><path fill="#90BAFC" d="M857.527 707.294a15.075 15.075 0 0 0-.075-1.12 14.658 14.658 0 0 0-.104-.905 11.21 11.21 0 0 0-.113-.784 5.93 5.93 0 0 0-.065-.392c-.019-.131-.047-.261-.075-.392a22.473 22.473 0 0 0-.356-1.539s.01 0 0-.009a1.02 1.02 0 0 0-.056-.224l-.392.336a260.54 260.54 0 0 1-19.097 14.645 257.836 257.836 0 0 1-13.793 8.959c10.728-2.584 21.456-5.177 32.184-7.77.298-.691.559-1.391.782-2.1.074-.243.149-.476.214-.719.056-.159.093-.327.14-.495.102-.392.195-.784.279-1.176.037-.168.074-.336.102-.513a.368.368 0 0 0 .028-.14c.056-.243.093-.485.13-.737.01-.056.019-.103.019-.159.047-.299.084-.607.121-.914.028-.233.056-.457.065-.681.019-.177.028-.355.046-.532.009-.233.028-.467.028-.691.009-.271.018-.541.018-.812-.001-.38-.011-.763-.03-1.136zm0 0a15.075 15.075 0 0 0-.075-1.12 14.658 14.658 0 0 0-.104-.905 11.21 11.21 0 0 0-.113-.784 5.93 5.93 0 0 0-.065-.392c-.019-.131-.047-.261-.075-.392a22.473 22.473 0 0 0-.356-1.539s.01 0 0-.009a1.02 1.02 0 0 0-.056-.224l-.392.336a260.54 260.54 0 0 1-19.097 14.645 257.836 257.836 0 0 1-13.793 8.959c10.728-2.584 21.456-5.177 32.184-7.77.298-.691.559-1.391.782-2.1.074-.243.149-.476.214-.719.056-.159.093-.327.14-.495.102-.392.195-.784.279-1.176.037-.168.074-.336.102-.513a.368.368 0 0 0 .028-.14c.056-.243.093-.485.13-.737.01-.056.019-.103.019-.159.047-.299.084-.607.121-.914.028-.233.056-.457.065-.681.019-.177.028-.355.046-.532.009-.233.028-.467.028-.691.009-.271.018-.541.018-.812-.001-.38-.011-.763-.03-1.136zm0 0a15.075 15.075 0 0 0-.075-1.12 14.658 14.658 0 0 0-.104-.905 11.21 11.21 0 0 0-.113-.784 5.93 5.93 0 0 0-.065-.392c-.019-.131-.047-.261-.075-.392a22.473 22.473 0 0 0-.356-1.539s.01 0 0-.009a1.02 1.02 0 0 0-.056-.224l-.392.336a260.54 260.54 0 0 1-19.097 14.645 257.836 257.836 0 0 1-13.793 8.959c10.728-2.584 21.456-5.177 32.184-7.77.298-.691.559-1.391.782-2.1.074-.243.149-.476.214-.719.056-.159.093-.327.14-.495.102-.392.195-.784.279-1.176.037-.168.074-.336.102-.513a.368.368 0 0 0 .028-.14c.056-.243.093-.485.13-.737.01-.056.019-.103.019-.159.047-.299.084-.607.121-.914.028-.233.056-.457.065-.681.019-.177.028-.355.046-.532.009-.233.028-.467.028-.691.009-.271.018-.541.018-.812-.001-.38-.011-.763-.03-1.136zm106.431-241.165a272.68 272.68 0 0 0-7.624-36.999v-.009a264.036 264.036 0 0 0-3.677-12.061c0-.009-.01-.019-.01-.019.01-.009.01-.009 0-.019v-.009a246.394 246.394 0 0 0-3.273-9.384c-.458-1.25-.935-2.5-1.421-3.74v-.009a267.565 267.565 0 0 0-4.824-11.697 281.746 281.746 0 0 0-12.709-25.266c-.01-.009-.019-.009-.019-.028a272.969 272.969 0 0 0-8.539-14.008 277.97 277.97 0 0 0-41.606-50.026 275.556 275.556 0 0 0-22.184-18.961 275.777 275.777 0 0 0-44.519-27.929 277.164 277.164 0 0 0-26.032-11.438 274.921 274.921 0 0 0-53.876-14.336 278.479 278.479 0 0 0-44.397-3.511c-4.684.004-9.33.119-13.958.365a275.861 275.861 0 0 0-51.163 7.383c-.896.215-1.8.44-2.696.674-78.155 19.73-143.082 72.666-178.903 142.925a250.015 250.015 0 0 0-3.055 6.161s.009.019 0 .019a274.564 274.564 0 0 0-23.092 72.749c-.845 4.936-1.56 9.91-2.125 14.93v.009a279.082 279.082 0 0 0-1.813 32.033c.055 70.557 26.483 134.936 69.945 183.803a271.262 271.262 0 0 0 14.437 15.048 127.24 127.24 0 0 0 1.672 1.613 276.07 276.07 0 0 0 23.435 19.949 202.582 202.582 0 0 0 3.996 2.992h.009a273.154 273.154 0 0 0 27.334 17.651 266.725 266.725 0 0 0 17.306 9.009 271.292 271.292 0 0 0 26.265 10.868c1.335.484 2.67.95 4.013 1.396a271.318 271.318 0 0 0 13.962 4.3 272.2 272.2 0 0 0 11.385 2.921c1.447.335 2.893.66 4.349.976a269.206 269.206 0 0 0 15.64 2.918h.01a277.994 277.994 0 0 0 33.219 3.184h.037l.858.027c3.107.1 6.233.154 9.368.151 1.605-.001 3.21-.012 4.814-.05a280.153 280.153 0 0 0 23.708-1.418l.494-.056h.019c1.8-.188 3.601-.395 5.401-.629.01.009.028.009.037 0a58.222 58.222 0 0 0 1.745-.225h.01a275.116 275.116 0 0 0 39.629-8.196 270.774 270.774 0 0 0 10.653-3.274l.037-.009a165.09 165.09 0 0 0 4.254-1.459h.018a267.99 267.99 0 0 0 8.946-3.273l.019-.009c.159-.065.326-.122.485-.187l.047-.019c.196-.075.401-.159.606-.234 1.017-.402 2.024-.804 3.031-1.215h.01c1.567-.636 3.134-1.29 4.692-1.963 1.996-.851 3.974-1.72 5.942-2.626.149-.066.298-.131.448-.206a268.137 268.137 0 0 0 24.287-12.625 249.409 249.409 0 0 0 8.16-4.952 281.004 281.004 0 0 0 15.555-10.565l.009-.009a318.337 318.337 0 0 0 5.222-3.914l.019-.019a291.7 291.7 0 0 0 7.264-5.772c.075-.056.14-.112.214-.168a476.893 476.893 0 0 0 3.264-2.736 203.057 203.057 0 0 0 3.422-2.96 257.39 257.39 0 0 0 5.296-4.763l.018-.009c.504-.476.989-.924 1.483-1.391 3.347-3.128 6.61-6.35 9.79-9.646.718-.738 1.426-1.485 2.125-2.232.849-.887 1.669-1.774 2.499-2.671a277.567 277.567 0 0 0 22.996-28.551c31.642-45.054 50.194-99.969 50.148-159.208a277.856 277.856 0 0 0-2.541-37.366zm-55.285 176.287a260.461 260.461 0 0 1-12.545 18.018 258.142 258.142 0 0 1-12.454 15.125 261.483 261.483 0 0 1-10.703 11.373 239.65 239.65 0 0 1-7.207 6.938 92.132 92.132 0 0 1-1.697 1.569c-.876.803-1.753 1.597-2.639 2.381a262.05 262.05 0 0 1-4.298 3.726 15.46 15.46 0 0 1-.448.383l-.392.336a260.54 260.54 0 0 1-19.097 14.645 257.836 257.836 0 0 1-13.793 8.959 210.323 210.323 0 0 1-4.775 2.822c-.382.224-.746.448-1.128.654l-.019.009c-.215.122-.438.252-.662.374-1.651.934-3.32 1.85-4.99 2.756a255.122 255.122 0 0 1-13.085 6.532c-1.194.57-2.397 1.112-3.601 1.654a291.07 291.07 0 0 1-3.927 1.711l-.028.009a249.851 249.851 0 0 1-13.282 5.226 255.687 255.687 0 0 1-17.845 5.724h-.009a226.904 226.904 0 0 1-8.974 2.349c-.504.131-.998.243-1.502.365l-.495.112h-.009a254.775 254.775 0 0 1-15.057 3.063 258.47 258.47 0 0 1-18.668 2.515 230.91 230.91 0 0 1-6.764.574h-.019c-6.064.443-12.176.681-18.325.695h-.569c-3.424.003-6.83-.06-10.236-.188h-.009l-.57-.028h-.009a238.587 238.587 0 0 1-6.886-.368h-.01a259.474 259.474 0 0 1-16.647-1.638h-.01a255.493 255.493 0 0 1-18.729-3.148h-.009a193.064 193.064 0 0 1-5.142-1.125h-.019a256.315 256.315 0 0 1-31.955-9.492h-.009a249.862 249.862 0 0 1-19.992-8.372h-.009a255.94 255.94 0 0 1-34.828-19.781c-.486-.326-.952-.662-1.438-.988-.009-.009-.019-.009-.019-.009a259.487 259.487 0 0 1-19.895-15.1c-.009 0-.009 0-.019-.009a269.16 269.16 0 0 1-16.984-15.55c-49.023-48.937-76.04-114.043-76.094-183.303-.016-20.396 2.31-40.431 6.839-59.804a255.683 255.683 0 0 1 12.016-37.854 256.524 256.524 0 0 1 11.271-24.137 255.664 255.664 0 0 1 6.839-12.042c10.753-17.83 23.747-34.476 38.842-49.585 32.985-33.047 73.312-56.096 117.315-67.626h.009c.793-.206 1.595-.412 2.388-.608a259.594 259.594 0 0 1 49.633-7.485c4.628-.256 9.283-.381 13.958-.384a261.401 261.401 0 0 1 44.398 3.735 255.44 255.44 0 0 1 44.329 11.712h.009a254.383 254.383 0 0 1 30.204 13.188 256.647 256.647 0 0 1 31.319 19.122h.009c.98.699 1.951 1.398 2.913 2.106a261.583 261.583 0 0 1 29.196 24.927c.355.336.7.681 1.046 1.026a247.33 247.33 0 0 1 2.278 2.303c1.419 1.445 2.811 2.9 4.184 4.373 17.425 18.657 31.801 39.462 42.866 61.8.869 1.735 1.71 3.479 2.523 5.242.467.989.926 1.987 1.374 2.985a219.097 219.097 0 0 1 3.243 7.49 254.045 254.045 0 0 1 10.156 29.458v.009a303.61 303.61 0 0 1 1.516 5.69c.477 1.875.927 3.76 1.357 5.653v.009c4.344 18.9 6.58 38.418 6.596 58.292a251.42 251.42 0 0 1-.261 11.859c-1.995 45.638-15.761 89.157-39.841 127.048zm-51.146 64.878a15.075 15.075 0 0 0-.075-1.12 14.658 14.658 0 0 0-.104-.905 11.21 11.21 0 0 0-.113-.784 5.93 5.93 0 0 0-.065-.392c-.019-.131-.047-.261-.075-.392a22.473 22.473 0 0 0-.356-1.539s.01 0 0-.009a1.02 1.02 0 0 0-.056-.224l-.392.336a260.54 260.54 0 0 1-19.097 14.645 257.836 257.836 0 0 1-13.793 8.959c10.728-2.584 21.456-5.177 32.184-7.77.298-.691.559-1.391.782-2.1.074-.243.149-.476.214-.719.056-.159.093-.327.14-.495.102-.392.195-.784.279-1.176.037-.168.074-.336.102-.513a.368.368 0 0 0 .028-.14c.056-.243.093-.485.13-.737.01-.056.019-.103.019-.159.047-.299.084-.607.121-.914.028-.233.056-.457.065-.681.019-.177.028-.355.046-.532.009-.233.028-.467.028-.691.009-.271.018-.541.018-.812-.001-.38-.011-.763-.03-1.136zm0 0a15.075 15.075 0 0 0-.075-1.12 14.658 14.658 0 0 0-.104-.905 11.21 11.21 0 0 0-.113-.784 5.93 5.93 0 0 0-.065-.392c-.019-.131-.047-.261-.075-.392a22.473 22.473 0 0 0-.356-1.539s.01 0 0-.009a1.02 1.02 0 0 0-.056-.224l-.392.336a260.54 260.54 0 0 1-19.097 14.645 257.836 257.836 0 0 1-13.793 8.959c10.728-2.584 21.456-5.177 32.184-7.77.298-.691.559-1.391.782-2.1.074-.243.149-.476.214-.719.056-.159.093-.327.14-.495.102-.392.195-.784.279-1.176.037-.168.074-.336.102-.513a.368.368 0 0 0 .028-.14c.056-.243.093-.485.13-.737.01-.056.019-.103.019-.159.047-.299.084-.607.121-.914.028-.233.056-.457.065-.681.019-.177.028-.355.046-.532.009-.233.028-.467.028-.691.009-.271.018-.541.018-.812-.001-.38-.011-.763-.03-1.136z"/><path fill="#FFF" d="m944.677 420.012-120.14-37.681c-4.64-1.454-9.497-.04-12.655 3.239a12.293 12.293 0 0 0-2.885 4.88l-.122.382-9.833 31.359-3.907 12.456-21.052 67.126-1.012 3.23v.007L740.86 607.685l-.116.375-10.377 33.089-3.778 12.034-2.1 6.698-4.533 14.446-.387 1.247-3.744 11.938-4.213 13.424-9.167 29.226a27.761 27.761 0 0 0-1.194 6.221v.007a25.361 25.361 0 0 0-.059 2.889 27.24 27.24 0 0 0 .549 4.666 27.624 27.624 0 0 0 5.391 11.563 27.392 27.392 0 0 0 13.346 9.173l5.417 1.699 9.751 3.058h.027l2.555.809h.007l3.148.992 5.949 1.869 1.697.53 1.261.394 1.138.36.736.231 6.685 2.1h.007l2.685.843h.007l8.804 2.759 2.664.836 14.95 4.689 4.306 1.352.429.136.484.156h.007l2.596.809h.007l4.988 1.57 5.506 1.726.014.007 5.424 1.699c1.615.51 3.244.856 4.865 1.052 12.632 1.584 24.984-5.81 29.341-18.144v-.007c.109-.307.21-.613.313-.934l4.498-14.344 1.658-5.288.51-1.629 1.393-4.436v-.007l.211-.661 2.276-7.264.517-1.635L863 721.841l5.491-17.492 29.091-92.761 11.274-35.951 18.239-58.145 2.841-9.042 22.86-72.891c2.045-6.535-1.591-13.494-8.119-15.547zm-80.352 1.303c.047-.538.122-1.07.224-1.581 1.778-9.157 11.999-14.023 20.396-9.206 4.471 2.565 7.132 7.652 6.686 12.789-.54 6.275-4.903 10.849-10.236 12.236-3.106.806-6.546.53-9.75-1.116-.218-.109-.429-.231-.648-.354a13.295 13.295 0 0 1-4.779-4.745c-1.425-2.383-2.129-5.196-1.893-8.023z"/><path fill="#CCC" d="M807.402 474.514c-5.664-10.84-1.467-24.22 9.373-29.883 10.84-5.664 24.219-1.467 29.883 9.373 5.664 10.84 1.467 24.22-9.373 29.883-10.84 5.664-24.219 1.468-29.883-9.373z"/><path fill="#FF8FCF" d="M811.016 472.626c-4.621-8.844-1.197-19.759 7.647-24.38 8.844-4.621 19.76-1.197 24.381 7.647s1.197 19.76-7.647 24.38c-8.845 4.621-19.76 1.197-24.381-7.647z"/><path fill="#CCC" d="M843.044 455.893a18.047 18.047 0 0 0-1.063-1.764c3.266 8.458-.262 18.203-8.488 22.501-8.227 4.298-18.24 1.629-23.318-5.883.245.634.519 1.263.841 1.88 4.621 8.844 15.536 12.268 24.38 7.647 8.845-4.622 12.269-15.537 7.648-24.381zM824.119 455.728c-4.557 1.56-8.734 1.414-9.328-.324-.595-1.739 2.616-4.413 7.173-5.973 4.557-1.56 8.734-1.414 9.329.325.595 1.738-2.616 4.412-7.174 5.972z"/><ellipse cx="899.449" cy="486.974" fill="#CCC" rx="22.146" ry="22.145" transform="rotate(-69.076 899.48 487.006)"/><path fill="#FF8FCF" d="M883.435 495.34c-4.621-8.844-1.197-19.759 7.647-24.38 8.844-4.621 19.76-1.197 24.38 7.647 4.621 8.844 1.197 19.76-7.647 24.38-8.843 4.621-19.759 1.198-24.38-7.647z"/><path fill="#CCC" d="M915.463 478.607a18.047 18.047 0 0 0-1.063-1.764c3.266 8.458-.262 18.203-8.488 22.501-8.228 4.298-18.24 1.629-23.318-5.883.245.634.519 1.263.841 1.88 4.621 8.844 15.536 12.268 24.381 7.647s12.268-15.536 7.647-24.381zM896.539 478.442c-4.557 1.56-8.734 1.414-9.329-.325-.595-1.739 2.617-4.413 7.174-5.972 4.557-1.56 8.734-1.414 9.329.325.594 1.739-2.617 4.412-7.174 5.972zM790.514 528.358c-5.664-10.841-1.467-24.22 9.373-29.883 10.84-5.664 24.219-1.467 29.883 9.373 5.664 10.84 1.467 24.219-9.373 29.883-10.841 5.664-24.22 1.467-29.883-9.373z"/><path fill="#FF8FCF" d="M794.128 526.469c-4.62-8.844-1.197-19.76 7.647-24.38 8.844-4.621 19.76-1.197 24.381 7.647 4.621 8.844 1.197 19.759-7.647 24.38-8.845 4.621-19.761 1.198-24.381-7.647z"/><path fill="#CCC" d="M826.156 509.736c-.323-.617-.682-1.2-1.063-1.764 3.266 8.458-.261 18.202-8.488 22.501-8.227 4.298-18.24 1.629-23.318-5.883.245.634.519 1.263.841 1.88 4.621 8.844 15.536 12.268 24.38 7.647 8.845-4.621 12.268-15.537 7.648-24.381zM807.231 509.571c-4.557 1.559-8.734 1.414-9.329-.324-.595-1.739 2.616-4.413 7.173-5.973 4.557-1.56 8.734-1.415 9.329.324.596 1.739-2.616 4.413-7.173 5.973zM862.933 551.073c-5.664-10.841-1.467-24.22 9.373-29.883 10.84-5.664 24.219-1.467 29.883 9.373 5.664 10.84 1.467 24.219-9.373 29.883-10.841 5.663-24.22 1.467-29.883-9.373z"/><path fill="#FF8FCF" d="M866.547 549.184c-4.62-8.844-1.197-19.76 7.647-24.38 8.844-4.621 19.76-1.197 24.38 7.647 4.621 8.844 1.197 19.76-7.647 24.38-8.844 4.621-19.759 1.197-24.38-7.647z"/><path fill="#CCC" d="M898.575 532.45c-.323-.617-.682-1.2-1.063-1.764 3.266 8.458-.261 18.202-8.488 22.501-8.228 4.298-18.24 1.629-23.318-5.883.245.634.519 1.263.841 1.88 4.621 8.844 15.536 12.268 24.381 7.647 8.844-4.621 12.268-15.536 7.647-24.381zM879.65 532.286c-4.557 1.559-8.734 1.414-9.329-.325s2.617-4.413 7.174-5.972c4.557-1.56 8.734-1.415 9.329.324.595 1.739-2.616 4.413-7.174 5.973zM773.625 582.202c-5.664-10.841-1.467-24.22 9.373-29.883 10.84-5.664 24.219-1.467 29.883 9.373 5.664 10.84 1.467 24.219-9.373 29.883-10.84 5.663-24.219 1.467-29.883-9.373z"/><path fill="#FF8FCF" d="M777.239 580.313c-4.62-8.844-1.197-19.76 7.647-24.38 8.844-4.621 19.76-1.197 24.381 7.647 4.621 8.844 1.197 19.759-7.647 24.38s-19.76 1.197-24.381-7.647z"/><path fill="#CCC" d="M809.267 563.579c-.323-.617-.682-1.2-1.063-1.764 3.266 8.458-.262 18.202-8.488 22.501-8.227 4.299-18.24 1.629-23.318-5.883.245.635.519 1.263.841 1.88 4.621 8.844 15.536 12.268 24.38 7.647s12.269-15.536 7.648-24.381zM790.343 563.415c-4.557 1.559-8.734 1.414-9.329-.325-.595-1.739 2.616-4.413 7.173-5.972 4.557-1.56 8.734-1.415 9.329.324.596 1.739-2.616 4.413-7.173 5.973zM846.044 604.916c-5.663-10.841-1.467-24.22 9.373-29.883s24.219-1.467 29.883 9.373c5.664 10.84 1.467 24.219-9.373 29.883-10.84 5.664-24.219 1.467-29.883-9.373z"/><path fill="#FF8FCF" d="M849.658 603.028c-4.62-8.844-1.197-19.76 7.647-24.38 8.844-4.621 19.76-1.197 24.38 7.647 4.621 8.844 1.197 19.76-7.647 24.38-8.843 4.621-19.759 1.197-24.38-7.647z"/><path fill="#CCC" d="M881.686 586.294c-.323-.617-.682-1.2-1.063-1.764 3.266 8.458-.262 18.202-8.488 22.501-8.228 4.298-18.24 1.629-23.318-5.883.245.635.519 1.263.841 1.88 4.621 8.844 15.536 12.268 24.381 7.647s12.268-15.537 7.647-24.381zM862.762 586.13c-4.557 1.559-8.734 1.414-9.329-.325-.595-1.739 2.617-4.413 7.174-5.972 4.557-1.56 8.734-1.415 9.329.324s-2.617 4.413-7.174 5.973zM756.737 636.045c-5.664-10.84-1.467-24.219 9.373-29.883 10.84-5.664 24.219-1.467 29.883 9.373 5.664 10.84 1.467 24.219-9.373 29.883-10.84 5.663-24.219 1.467-29.883-9.373z"/><path fill="#FF8FCF" d="M760.351 634.157c-4.62-8.844-1.197-19.76 7.647-24.381 8.844-4.62 19.76-1.197 24.381 7.647 4.621 8.844 1.197 19.76-7.647 24.381-8.844 4.62-19.76 1.196-24.381-7.647z"/><path fill="#CCC" d="M792.379 617.423a18.246 18.246 0 0 0-1.063-1.764c3.266 8.458-.261 18.202-8.488 22.5-8.227 4.299-18.24 1.629-23.318-5.883.245.634.519 1.263.841 1.88 4.621 8.844 15.536 12.267 24.38 7.647 8.845-4.62 12.269-15.536 7.648-24.38zM773.455 617.258c-4.557 1.56-8.734 1.414-9.329-.324-.595-1.739 2.616-4.413 7.173-5.973 4.557-1.559 8.734-1.414 9.329.325.596 1.739-2.616 4.413-7.173 5.972z"/><circle cx="848.784" cy="648.504" r="22.145" fill="#CCC" transform="rotate(-7.227 848.61 648.385)"/><circle cx="848.784" cy="648.504" r="18.068" fill="#FF8FCF" transform="rotate(-77.003 848.756 648.49)"/><path fill="#CCC" d="M864.798 640.138a18.246 18.246 0 0 0-1.063-1.764c3.266 8.458-.262 18.202-8.488 22.5-8.228 4.298-18.241 1.629-23.318-5.883.245.634.519 1.263.841 1.88 4.621 8.844 15.537 12.267 24.381 7.647 8.844-4.621 12.268-15.536 7.647-24.38zM845.874 639.973c-4.557 1.56-8.734 1.414-9.329-.324-.595-1.739 2.617-4.413 7.174-5.973 4.557-1.559 8.734-1.414 9.329.325.595 1.738-2.617 4.412-7.174 5.972zM739.849 689.888c-5.664-10.84-1.467-24.22 9.373-29.883 10.84-5.664 24.219-1.467 29.883 9.373 5.664 10.84 1.467 24.22-9.373 29.883-10.84 5.664-24.219 1.468-29.883-9.373z"/><path fill="#FF8FCF" d="M743.463 688c-4.62-8.844-1.197-19.759 7.647-24.38 8.844-4.621 19.76-1.197 24.381 7.647 4.621 8.844 1.197 19.76-7.647 24.38-8.845 4.621-19.76 1.197-24.381-7.647z"/><path fill="#CCC" d="M775.491 671.267a18.047 18.047 0 0 0-1.063-1.764c3.266 8.458-.261 18.202-8.488 22.5-8.227 4.299-18.24 1.629-23.318-5.883.245.634.519 1.263.841 1.88 4.621 8.844 15.536 12.268 24.38 7.647 8.845-4.621 12.269-15.536 7.648-24.38zM756.566 671.102c-4.557 1.56-8.734 1.414-9.329-.324-.595-1.739 2.616-4.414 7.173-5.973 4.557-1.559 8.734-1.414 9.329.325.596 1.738-2.615 4.412-7.173 5.972z"/><ellipse cx="831.896" cy="702.348" fill="#CCC" rx="22.146" ry="22.145" transform="rotate(-82.039 831.87 702.322)"/><ellipse cx="831.896" cy="702.348" fill="#FF8FCF" rx="18.068" ry="18.067" transform="rotate(-74.211 831.892 702.328)"/><path fill="#CCC" d="M847.91 693.981a18.047 18.047 0 0 0-1.063-1.764c3.266 8.458-.261 18.202-8.488 22.5-8.228 4.298-18.241 1.629-23.318-5.883.245.634.519 1.263.841 1.88 4.621 8.844 15.536 12.268 24.381 7.647 8.844-4.62 12.268-15.536 7.647-24.38zM828.986 693.816c-4.557 1.56-8.734 1.414-9.329-.324-.595-1.739 2.617-4.413 7.174-5.973 4.557-1.559 8.734-1.414 9.329.325.595 1.738-2.617 4.413-7.174 5.972zM722.961 743.732c-5.664-10.84-1.467-24.22 9.373-29.883 10.84-5.664 24.219-1.467 29.883 9.373 5.664 10.84 1.467 24.22-9.373 29.883-10.841 5.664-24.22 1.467-29.883-9.373z"/><path fill="#FF8FCF" d="M726.575 741.843c-4.62-8.844-1.197-19.759 7.647-24.38 8.844-4.621 19.76-1.197 24.381 7.647 4.621 8.844 1.197 19.759-7.647 24.38s-19.76 1.198-24.381-7.647z"/><path fill="#CCC" d="M758.602 725.11a18.047 18.047 0 0 0-1.063-1.764c3.266 8.458-.262 18.202-8.488 22.501-8.227 4.299-18.24 1.629-23.318-5.883.245.634.519 1.263.841 1.88 4.621 8.844 15.536 12.268 24.38 7.647s12.269-15.536 7.648-24.381zM739.678 724.945c-4.557 1.56-8.734 1.414-9.329-.324-.595-1.739 2.616-4.413 7.173-5.972 4.557-1.56 8.734-1.414 9.329.325.596 1.737-2.616 4.411-7.173 5.971z"/><ellipse cx="815.008" cy="756.191" fill="#CCC" rx="22.146" ry="22.145" transform="rotate(-76.64 815.03 756.153)"/><ellipse cx="815.007" cy="756.191" fill="#FF8FCF" rx="18.068" ry="18.067" transform="rotate(-70.598 815.046 756.205)"/><path fill="#CCC" d="M831.022 747.825a18.047 18.047 0 0 0-1.063-1.764c3.266 8.458-.261 18.202-8.488 22.501-8.228 4.298-18.24 1.629-23.318-5.883.245.634.519 1.263.841 1.879 4.621 8.844 15.536 12.268 24.381 7.647 8.844-4.621 12.268-15.536 7.647-24.38zM812.097 747.66c-4.557 1.56-8.734 1.414-9.329-.325-.595-1.739 2.617-4.413 7.174-5.972 4.557-1.56 8.734-1.414 9.329.325.595 1.738-2.616 4.412-7.174 5.972z"/><path fill="#99C7FF" d="m809.355 738.127-6.896 51.048-60.619-8.189c-6.027-.815-11.306-3.694-15.223-7.833l-.034-.004c-5.147-5.461-7.906-13.089-6.819-21.136.952-7.055 4.686-13.048 9.952-17.029 5.236-4.021 11.965-6.001 19.019-5.048l60.62 8.191z"/><path fill="#7AADEB" d="m809.355 738.127-3.909-.529-4.72 34.941c-.72 5.325-5.619 9.057-10.944 8.339l-50.978-6.886c-6.026-.815-11.305-3.693-15.223-7.833l-.034-.004a26.2 26.2 0 0 1-3.106-4.056 25.893 25.893 0 0 0 6.143 11.05l.034.005c3.917 4.14 9.195 7.018 15.223 7.833l60.619 8.189 6.895-51.049z"/><path fill="#52A0FF" d="M892.084 775.294c-.952 7.053-4.687 13.047-9.917 17.033-5.266 3.981-12 5.995-19.054 5.042l-60.655-8.194 6.896-51.048 60.654 8.194a25.66 25.66 0 0 1 21.096 17.794 25.55 25.55 0 0 1 .98 11.179z"/><path fill="#4D96F0" d="M891.105 764.114a25.662 25.662 0 0 0-9.443-13.131 25.515 25.515 0 0 1 2.502 5.551 25.592 25.592 0 0 1 .981 11.178c-.952 7.054-4.687 13.047-9.917 17.033-5.267 3.981-12 5.995-19.054 5.042l-52.834-7.137-.881 6.524 60.655 8.194c7.054.953 13.788-1.06 19.054-5.042 5.23-3.986 8.965-9.98 9.917-17.033.522-3.864.134-7.67-.98-11.179z"/><path fill="#A7A9AC" d="M747.386 736.987c-.252-1.399-1.421-2.268-2.826-2.154-5.335.431-10.331 3.068-13.842 7.076-.869.991-.63 2.767.431 3.527 1.159.83 2.601.626 3.528-.431.19-.216.382-.431.582-.638l.055-.056c.036-.033.211-.204.227-.219.402-.372.821-.725 1.255-1.057.434-.334.883-.648 1.345-.94.12-.077.245-.148.365-.225.244-.131.486-.264.734-.387a19.296 19.296 0 0 1 3.043-1.186c.13-.031.259-.064.389-.094.281-.064.563-.12.847-.171.567-.1 1.14-.17 1.714-.217 1.311-.107 2.385-1.542 2.153-2.828zM836.624 746.024l-77.453-10.308c-3.204-.427-3.885 4.552-.675 4.979l77.453 10.308c3.204.427 3.885-4.552.675-4.979zM846.544 747.546c-3.203-.435-3.883 4.544-.675 4.979 3.204.435 3.884-4.544.675-4.979z"/><path fill="#99C7FF" d="m831.511 697.946 17.407 48.481-57.571 20.672c-5.725 2.055-11.736 1.932-17.12.065l-.032.012c-7.084-2.474-13.049-7.972-15.793-15.614-2.406-6.7-1.855-13.739.983-19.7 2.794-5.982 7.853-10.84 14.553-13.245l57.573-20.671z"/><path fill="#7AADEB" d="m831.511 697.946-3.713 1.333 11.915 33.184c1.815 5.057-.812 10.628-5.869 12.444l-48.415 17.384c-5.724 2.054-11.735 1.933-17.12.065l-.032.012a26.195 26.195 0 0 1-4.626-2.167 25.898 25.898 0 0 0 10.544 6.975l.032-.012c5.384 1.869 11.395 1.99 17.12-.065l57.571-20.672-17.407-48.481z"/><path fill="#52A0FF" d="M922.06 692.801c2.406 6.698 1.854 13.739-.95 19.687-2.839 5.96-7.887 10.851-14.586 13.256l-57.605 20.684-17.407-48.481 57.604-20.683a25.66 25.66 0 0 1 26.923 6.068 25.571 25.571 0 0 1 6.021 9.469z"/><path fill="#4D96F0" d="M916.038 683.331a25.66 25.66 0 0 0-14.432-7.301 25.551 25.551 0 0 1 4.779 3.773 25.573 25.573 0 0 1 6.022 9.468c2.406 6.699 1.854 13.739-.95 19.687-2.84 5.961-7.887 10.851-14.586 13.256l-50.177 18.017 2.225 6.196 57.605-20.684c6.7-2.405 11.748-7.296 14.586-13.256 2.804-5.948 3.356-12.989.95-19.687a25.577 25.577 0 0 0-6.022-9.469z"/><path fill="#A7A9AC" d="M775.992 725.495c-.869-1.126-2.306-1.358-3.501-.609-4.536 2.841-7.754 7.484-9.023 12.66-.315 1.28.716 2.747 2.008 2.931 1.411.202 2.597-.643 2.932-2.009.069-.279.141-.558.223-.835l.023-.075c.017-.046.093-.278.101-.299a17.91 17.91 0 0 1 1.387-2.972c.071-.124.149-.244.22-.368.156-.229.31-.458.474-.682a19.338 19.338 0 0 1 2.154-2.455c.101-.087.2-.177.302-.263a17.704 17.704 0 0 1 2.094-1.524c1.112-.697 1.404-2.465.606-3.5zM859.351 692.387l-73.487 26.55c-3.041 1.098-1.35 5.831 1.696 4.73l73.487-26.55c3.04-1.099 1.35-5.831-1.696-4.73zM868.856 689.165c-3.043 1.09-1.352 5.823 1.696 4.729 3.044-1.09 1.353-5.822-1.696-4.729z"/><path fill="#559BDB" d="M574.507 325.731c-.335 18.148 3.09 33.14 6.419 43.517.156.465.298.905.44 1.344l-69.515.054c3.288-10.537 6.702-25.767 6.428-44.225-.233-16.622-3.385-30.425-6.495-40.362-3.497-25.319 14.61-44.993 31.451-46.971a22.1 22.1 0 0 1 2.236-.157c17.825-.415 39.259 19.823 35.829 47.074a134.634 134.634 0 0 0-6.793 39.726z"/><path fill="#6FB2EF" d="M574.507 325.731c-.335 18.148 3.09 33.14 6.419 43.517v.065l-36.568-.178-1.123-130.047a22.1 22.1 0 0 1 2.236-.157c17.825-.415 39.259 19.823 35.829 47.074a134.634 134.634 0 0 0-6.793 39.726z"/><path fill="#999" d="M543.99 240.281c4.515.455 10.986 1.874 16.808 6.227 3.341 2.498 5.869 5.513 7.004 6.881 1.186 1.429 3.286 3.988 5.221 7.685.879 1.679 4.301 8.517 4.553 18.008.057 2.132.099 5.385-.881 9.465-.741 3.08-1.995 6.102-3.545 8.784-2.52 4.721-3.186 10.673-3.485 16.431-.228 5.825.046 11.724.579 17.605 1.081 11.771 3.006 23.508 5.257 35.177l-5.024.167c-.99-6.26-3.126-20.281-4.587-34.974 0 0-1.109-7.827-.474-18.17.188-3.055.435-6.119 1.035-9.189.611-3.058 1.48-6.157 3.091-9.074a28.801 28.801 0 0 0 4.018-16.038c-.223-5.63-2.023-11.113-4.664-16.29-1.281-2.629-2.709-5.059-4.458-7.28-1.195-1.518-3.23-3.742-6.055-5.827-5.382-3.973-10.96-5.381-14.388-5.934-.003-1.217-.004-2.435-.005-3.654z"/><path fill="#6FB2EF" d="m636.83 747.118-12.874.088c-14.102.089-49.067.142-77.077.164-28.01.022-62.975.023-77.064-.043l-12.887-.068.442-260.987a70.765 70.765 0 0 1 3.731-23.128c3.637-10.705 9.421-19.138 15.348-25.541.117-.142.246-.272.375-.401a64.933 64.933 0 0 1 2.971-3.001c.142-.142.297-.284.439-.414a82.988 82.988 0 0 1 3.759-3.338 85.096 85.096 0 0 1 5.399-4.115c.259-.181.504-.336.749-.505l.155-.117c.62-.414 1.227-.802 1.809-1.19.168-.104.323-.22.478-.31l.917-.583c.568-.375 1.072-.686 1.512-.958l.31-.194.853-.001 25.825.15 24.624.136 24.637-.174 26.227-.188h.452l.065.039.194.129c.982.62 1.966 1.252 2.949 1.872a79.46 79.46 0 0 1 12.183 9.53c.129.116.246.246.375.362a66.977 66.977 0 0 1 3.402 3.475c5.847 6.355 11.515 14.675 15.104 25.206 2.539 7.418 3.799 15.237 3.767 23.212l.851 260.893z"/><path fill="#A0CEFF" d="m623.875 734.276-.808-248.101c.02-5.059-.588-11.697-3.077-18.988-6.29-18.43-20.273-28.361-25.753-31.835l-47.591.339-47.592-.265c-5.476 3.482-19.442 13.435-25.703 31.875-2.477 7.295-3.075 13.934-3.048 18.993l-.418 248.102c25.447.132 128.541.051 153.99-.12z"/><path fill="#2A3F8C" d="m597.24 381.547.033 41.95-101.314.079-.033-41.95c-.005-6.729 5.445-12.188 12.174-12.193l76.946-.06c6.73-.005 12.189 5.446 12.194 12.174z"/><path fill="#4765D1" d="m597.92 415.077-102.624.08a2.929 2.929 0 0 1-2.931-2.927l-.004-4.939a2.929 2.929 0 0 1 2.927-2.931l102.624-.08a2.929 2.929 0 0 1 2.931 2.927l.004 4.939a2.93 2.93 0 0 1-2.927 2.931zM597.903 392.411l-102.624.08a2.929 2.929 0 0 1-2.931-2.927l-.004-4.939a2.929 2.929 0 0 1 2.927-2.931l102.624-.08a2.929 2.929 0 0 1 2.931 2.927l.004 4.939a2.93 2.93 0 0 1-2.927 2.931z"/><path fill="#2A3F8C" d="m559.579 623.458-.147-187.825-12.554.01h-.507l-12.554.01.147 187.825c1.414 3.329 3.716 9.875 3.722 18.48v.409a47.912 47.912 0 0 1-2.083 13.642c.322 2.76 6.409 25.223 10.963 29.234h.506c4.548-4.018 10.599-26.49 10.917-29.251a47.868 47.868 0 0 1-2.104-13.639v-.409c-.006-8.605 2.285-15.154 3.694-18.486z"/><path fill="#666" d="M613.331 433.968c-4.718.249-9.5.473-14.309.683-9.19.369-18.535.661-28.048.823h-.453c-3.8.081-7.652.135-11.517.151-3.645.055-7.316.057-11.013.06l-.866.001c-.75.001-1.5.001-2.249-.011-1.487.001-2.973.002-4.447-.035-.413.013-.814.001-1.228.001-.931.001-1.875-.012-2.805-.024h-.078c-.983.001-1.952-.024-2.934-.036a1132.538 1132.538 0 0 1-38.83-1.081 978.736 978.736 0 0 1-14.323-.713 82.988 82.988 0 0 1 3.759-3.338 85.096 85.096 0 0 1 5.399-4.115c.259-.181.504-.336.749-.505l.155-.117c.62-.414 1.227-.802 1.809-1.19.168-.104.323-.22.478-.31l.917-.583c.568-.375 1.072-.686 1.512-.958l.31-.194.853-.001-.003-3.826 25.826.148 24.624.123 24.637-.161 26.227-.189.003 3.826h.452l.065.039.194.129c.982.62 1.966 1.252 2.949 1.872a79.445 79.445 0 0 1 12.185 9.531z"/><path fill="#4E94DE" d="M623.837 689.128c-12.719.075-44.852.126-76.986.151-32.134.025-64.268.024-77-.03-.001-1.758.242-103.433.301-126.842l153.185-.12c.096 23.408.498 125.083.5 126.841z"/><path fill="#FFF" d="m557.037 593.122-7.089.006a.576.576 0 0 1-.575-.574l-.005-7.089a.575.575 0 0 0-.575-.574l-4.024.003a.575.575 0 0 0-.574.575l.006 7.089a.576.576 0 0 1-.574.575l-7.089.006a.575.575 0 0 0-.574.575l.003 4.024c0 .317.258.574.575.574l7.089-.005c.317 0 .574.257.575.574l.006 7.089c0 .317.258.574.575.574l4.024-.003a.575.575 0 0 0 .574-.575l-.005-7.089c0-.317.257-.574.574-.575l7.089-.005a.575.575 0 0 0 .574-.575l-.003-4.024a.578.578 0 0 0-.577-.576z"/><path fill="#A0CEFF" d="m623.726 682.5-153.773.12c-.015-8.513-.022-17.027-.02-25.54.002-8.472.011-16.94.028-25.406l153.624-.12a8721.72 8721.72 0 0 1 .141 50.946z"/><path fill="#FFF" d="m508.11 640.871-20.882-.095c-2.491-.011-2.638 3.864-.137 3.875l20.882.095c2.49.012 2.638-3.864.137-3.875zM606.525 640.794l-20.882-.095c-2.491-.011-2.638 3.864-.137 3.875l20.882.095c2.49.012 2.638-3.864.137-3.875zM571.31 640.477c-1.844.006-2.766.021-3.22.024l-6.763.051-13.524.101-13.203.099-6.761.051-3.22.024-1.933.014c-.239.002-.675-.09-.965-.07-1.719.008-2.94 1.038-3.001 2.064-.054.905.809 1.593.887 1.654 1.081.837 2.422.336 2.502.305l6.592-.124 19.965-.149 19.964-.149 2.255-.017c1.529-.011 1.712.022 2.254-.017 1.633-.118 2.683-.194 3.168-.924.399-.6.389-1.6-.091-2.229-.511-.672-1.406-.719-4.906-.708zM558.99 659.594l-20.882-.095c-2.491-.011-2.638 3.864-.137 3.875l20.882.095c2.491.011 2.638-3.864.137-3.875zM591.349 659.568l-20.882-.095c-2.491-.011-2.638 3.864-.137 3.875l20.882.095c2.491.012 2.638-3.863.137-3.875zM524.845 659.276c-1.844.006-2.766.021-3.22.024l-6.763.051-13.524.101-13.203.099-6.761.051-3.22.024-1.933.014c-.239.002-.675-.09-.965-.07-1.719.008-2.94 1.038-3.001 2.064-.054.905.809 1.593.887 1.654 1.081.837 2.422.336 2.501.305l6.592-.124 19.965-.149 19.964-.149 2.255-.017c1.529-.011 1.712.022 2.254-.017 1.633-.118 2.683-.194 3.168-.924.399-.6.389-1.6-.091-2.228-.51-.673-1.404-.72-4.905-.709zM618.965 659.535c-.782-.012-1.172-.006-1.364-.007l-2.865-.013-5.73-.027-5.594-.026-2.865-.013-1.364-.006-.819-.004c-.101 0-.294-.096-.416-.079-.729-.008-1.157 1.005-1.093 2.025.056.9.482 1.592.521 1.653.532.843 1.057.357 1.088.327l2.786-.061 8.458.039 8.458.04.955.004c.648.003.728.038.955.004.683-.102 1.122-.167 1.264-.889.117-.593.025-1.588-.233-2.218-.275-.672-.658-.727-2.142-.749zM495.318 669.739l-20.882-.095c-2.491-.011-2.638 3.864-.137 3.875l20.882.095c2.491.012 2.638-3.863.137-3.875zM527.365 669.714l-20.882-.095c-2.491-.011-2.638 3.864-.137 3.875l20.882.095c2.491.012 2.638-3.864.137-3.875zM619.362 669.642l-20.882-.095c-2.491-.011-2.638 3.864-.137 3.875l20.882.095c2.49.012 2.638-3.864.137-3.875zM586.343 669.484c-1.844-.005-2.766.005-3.22.005l-6.763.012-13.525.023-13.203.023-6.762.012-3.22.006-1.933.003c-.239 0-.674-.094-.965-.075-1.719-.002-2.946 1.021-3.013 2.046-.059.905.799 1.597.878 1.659 1.076.843 2.42.35 2.5.319l6.593-.086 19.966-.035 19.965-.034 2.255-.004c1.529-.002 1.711.032 2.254-.004 1.634-.109 2.684-.178 3.174-.906.403-.598.398-1.597-.078-2.229-.509-.675-1.403-.726-4.903-.735zM495.638 650.776l-20.882-.095c-2.491-.011-2.638 3.864-.137 3.875l20.882.095c2.49.011 2.638-3.864.137-3.875zM615.534 650.338c-1.844.006-2.766.021-3.22.024l-6.763.051-13.524.101-13.203.099-6.761.05-3.22.024-1.933.014c-.239.002-.675-.09-.965-.07-1.719.008-2.94 1.038-3.001 2.064-.054.905.809 1.593.887 1.654 1.081.837 2.422.336 2.502.305l6.592-.124 19.965-.149 19.964-.149 2.255-.017c1.529-.011 1.712.022 2.254-.017 1.633-.118 2.683-.194 3.168-.924.399-.6.389-1.6-.091-2.229-.511-.672-1.406-.718-4.906-.707zM553.846 650.386c-1.844.006-2.766.021-3.22.024l-6.763.051-13.524.101-13.203.099-6.762.051-3.22.024-1.932.014c-.239.002-.675-.09-.965-.07-1.719.008-2.94 1.038-3.001 2.064-.053.905.809 1.593.887 1.654 1.081.837 2.422.336 2.502.305l6.592-.124 19.965-.149 19.964-.149 2.254-.017c1.529-.011 1.712.022 2.255-.017 1.633-.118 2.683-.194 3.168-.924.399-.6.389-1.6-.091-2.228-.511-.674-1.406-.72-4.906-.709z"/><path fill="#666" d="M469.825 720.9H623.87v13.437H469.825z"/><path fill="#999" d="M605.249 486.491h8.558v234.003h-8.558zM584.2 438.151a66.921 66.921 0 0 1 9.094 5.906c1.233.951 4.327 3.406 8.494 7.808 5.712 6.033 12.185 18.975 11.648 18.978l.143 12.97-8.557.007-.545-12.702a48.384 48.384 0 0 0-2.009-4.812c-2.013-4.175-4.121-7.006-6.624-10.332-1.995-2.652-3.724-4.829-6.348-7.612-2.289-2.427-4.975-4.409-7.579-6.556l2.283-3.655z"/><path fill="#666" d="M619.264 480.511c-.179-4.568-.916-10.491-3.184-16.933-5.638-15.993-16.862-24.547-21.565-27.705-15.917-.349-79.987-.299-95.904.075-4.698 3.165-15.909 11.737-21.521 27.739-2.257 6.446-2.986 12.37-3.157 16.938 19.768-4.884 44.356-9.148 72.658-9.985 28.302.792 52.898 5.018 72.673 9.871z"/><ellipse cx="530.365" cy="485.572" fill="#999" rx="14.865" ry="8.201"/><path fill="#E06BAE" d="M631.713 753.534c.01 12.112-23.407 21.948-52.301 21.97-28.894.023-52.326-9.777-52.336-21.888l-.011-13.642s27.728-8.309 52.312-8.328c24.727-.019 52.325 8.342 52.325 8.342l.011 13.546z"/><path fill="#D1589D" d="m629.662 739.402.009 12.164c.01 12.112-23.407 21.948-52.302 21.97-20.589.016-38.396-4.957-46.94-12.198 7.461 8.293 26.574 14.184 48.981 14.166 28.895-.023 52.311-9.859 52.301-21.97l-.011-13.546s-.723-.22-2.038-.586z"/><ellipse cx="579.384" cy="739.806" fill="#FF8FCF" rx="52.319" ry="21.929"/><path fill="#FFA8D9" d="M532.288 743.391c-.009-12.111 23.406-21.948 52.301-21.97 17.049-.013 32.191 3.395 41.747 8.677-8.533-7.253-26.357-12.237-46.969-12.221-28.894.023-52.311 9.859-52.302 21.97.004 4.965 3.949 9.541 10.589 13.211-3.429-2.915-5.364-6.195-5.366-9.667z"/><path fill="#FA82C7" d="M622.011 727.072c2.623 2.61 4.076 5.479 4.078 8.49.01 12.112-23.407 21.948-52.301 21.971-17.597.014-33.156-3.62-42.644-9.195 7.925 7.887 26.548 13.415 48.258 13.398 28.895-.023 52.311-9.859 52.301-21.97-.004-4.736-3.6-9.114-9.692-12.694z"/><path fill="#E06BAE" d="m614.26 732.03-62.179 13.191-7.077-3.597 59.677-12.603z"/><path fill="#EB8F52" d="M607.984 811.182c.01 12.112 23.441 21.911 52.336 21.888 28.895-.023 52.311-9.859 52.301-21.97l-.011-13.642s-27.741-8.266-52.325-8.246c-24.727.019-52.312 8.424-52.312 8.424l.011 13.546z"/><path fill="#E08241" d="m610.013 797.046.01 12.164c.009 12.112 23.441 21.911 52.336 21.888 20.589-.016 38.388-5.017 46.921-12.271-7.449 8.305-26.552 14.226-48.959 14.243-28.895.023-52.326-9.777-52.336-21.888l-.011-13.547s.725-.221 2.039-.589z"/><ellipse cx="660.292" cy="797.371" fill="#FFBC8F" rx="52.319" ry="21.93"/><path fill="#FFC8A3" d="M707.395 800.882c-.009-12.111-23.441-21.911-52.336-21.888-17.049.013-32.185 3.445-41.733 8.743 8.522-7.267 26.338-12.279 46.949-12.295 28.895-.023 52.326 9.778 52.336 21.889.004 4.965-3.934 9.547-10.568 13.228 3.424-2.922 5.354-6.205 5.352-9.677z"/><path fill="#FAAE7C" d="M617.645 784.704c-2.619 2.614-4.067 5.485-4.065 8.497.01 12.111 23.441 21.911 52.336 21.889 17.597-.014 33.15-3.671 42.63-9.262-7.912 7.899-26.527 13.457-48.237 13.474-28.895.023-52.326-9.777-52.336-21.888-.003-4.737 3.586-9.121 9.672-12.71z"/><path fill="#EB8F52" d="m625.403 789.65 62.2 13.093 7.072-3.607-59.697-12.51z"/></svg>